<svg width="917" height="147" viewBox="0 0 917 147" fill="none" xmlns="http://www.w3.org/2000/svg">
<path d="M95.4455 108.896L106.225 143H136.409L87.9975 3.448H49.1895L0.777453 143H30.9615L41.9375 108.896H95.4455ZM87.6055 84.2H49.7775L52.7175 74.988C58.4015 56.956 63.6935 38.532 68.3975 20.5H68.7895C73.4935 38.532 78.9815 56.956 84.6655 74.988L87.6055 84.2ZM178.101 118.304V3.448H149.289V143H243.957V118.304H178.101ZM358.459 28.144V3.448H262.027V143H360.223V118.304H290.839V84.2H353.951V59.7H290.839V28.144H358.459ZM482.49 28.144V3.448H386.058V143H484.254V118.304H414.87V84.2H477.982V59.7H414.87V28.144H482.49ZM573.202 72.048L614.754 3.448H581.826L555.954 51.664H555.562L529.69 3.448H496.762L538.314 72.048L494.606 143H528.122L555.562 93.608H555.954L583.394 143H616.91L573.202 72.048ZM680.201 0.311991C640.609 0.311991 616.305 28.144 616.305 73.224C616.305 118.5 640.413 146.136 679.613 146.136C713.717 146.136 735.865 127.124 738.609 94H709.013C706.857 111.052 696.077 120.656 679.613 120.656C658.837 120.656 646.097 102.82 646.097 73.224C646.097 43.824 659.033 25.792 680.201 25.792C696.469 25.792 707.249 35.592 709.013 51.86H738.021C736.649 21.48 714.697 0.311991 680.201 0.311991ZM791.366 143V3.448H762.554V143H791.366ZM916.522 28.144V3.448H823.422V143H852.234V90.864H911.622V66.168H852.234V28.144H916.522Z" fill="#F5F7FA"/>
</svg>
