<?xml version="1.0" encoding="utf-8"?>
<!-- Generator: Adobe Illustrator 25.1.0, SVG Export Plug-In . SVG Version: 6.00 Build 0)  -->
<svg version="1.1" id="logo-aleexcif" xmlns="http://www.w3.org/2000/svg" xmlns:xlink="http://www.w3.org/1999/xlink" x="0px"
	 y="0px" width="340.8px" height="51.5px" viewBox="0 0 340.8 51.5" enable-background="new 0 0 340.8 51.5" xml:space="preserve">
<path id="a" fill="#FFFFFF" d="M38,50.2L34.5,40H15.9l-3.5,10.2H0l19-49h12.6l19,49H38z M19.7,29.1h11.1l-5.5-16L19.7,29.1z"/>
<path id="l" fill="#FFFFFF" d="M90.2,39.2v11H57v-49h11.5v38H90.2z"/>
<path id="e" fill="#FFFFFF" d="M96.5,1.2h34v10.9h-22.5v7.8h20.7v11h-20.7v8.3h23.7v11H96.5V1.2z"/>
<path id="e_1_" fill="#FFFFFF" d="M138.9,1.2h34v10.9h-22.5v7.8h20.7v11h-20.7v8.3h23.7v11h-35.1V1.2z"/>
<path id="x" fill="#FFFFFF" d="M178.8,1.2h14.4l9,13.7l9-13.7h14L209,24.6l17.9,25.6h-14.4L202,34.6l-10.3,15.6h-14.1l17.7-25.3
	L178.8,1.2z"/>
<path id="c" fill="#FFFFFF" d="M276.4,30.9c-0.2,13.9-10.6,20.6-22.6,20.6c-16.5,0-24.2-12.7-24.2-25.4c0-13.7,9-26,25-26
	c12.2,0,20.8,7.1,21.7,18.8h-11.7c-0.3-4.6-3.9-8.1-10.3-8.1c-9.3,0-13.1,7.4-13.1,15.1c0,7.5,3.6,14.8,12.7,14.8
	c6,0,10.7-3.2,10.9-9.7H276.4z"/>
<path id="i" fill="#FFFFFF" d="M296,1.2v49h-11.5v-49H296z"/>
<path id="f" fill="#FFFFFF" d="M306.8,1.2h34v10.9h-22.5v8.5h20.7v11h-20.7v18.6h-11.5V1.2z"/>
</svg>
