<svg xmlns="http://www.w3.org/2000/svg" xmlns:xlink="http://www.w3.org/1999/xlink" viewBox="0 0 1044.5 781.7"><defs><style>.cls-1,.cls-2{fill:#191070;}.cls-1{opacity:0.25;isolation:isolate;}.cls-3{fill:#2f57d5;}.cls-4{fill:#581eab;}.cls-10,.cls-11,.cls-5,.cls-6,.cls-7,.cls-8,.cls-9{fill:none;stroke-linecap:round;}.cls-5{stroke:#191070;stroke-width:5.85px;}.cls-5,.cls-6{stroke-miterlimit:10;}.cls-6{stroke:#581eab;stroke-width:1.32px;}.cls-10,.cls-11,.cls-7,.cls-8,.cls-9{stroke-linejoin:round;stroke-width:4.6px;stroke-dasharray:196.54 382.74 0 195.78 0 0;}.cls-7{stroke:url(#linear-gradient);}.cls-8{stroke:url(#linear-gradient-2);}.cls-9{stroke:url(#linear-gradient-3);}.cls-10{stroke:url(#linear-gradient-4);}.cls-11{stroke:url(#linear-gradient-5);}</style><linearGradient id="linear-gradient" x1="328.67" y1="641.57" x2="399.31" y2="641.57" gradientTransform="matrix(1, 0.05, 0.05, -1, -30.76, 757.11)" gradientUnits="userSpaceOnUse"><stop offset="0" stop-color="#2f57d5" stop-opacity="0"/><stop offset="1" stop-color="#2f57d5"/></linearGradient><linearGradient id="linear-gradient-2" x1="121.98" y1="414.07" x2="192.62" y2="414.07" gradientTransform="matrix(0.97, 0.24, 0.24, -0.97, -90.6, 633.54)" xlink:href="#linear-gradient"/><linearGradient id="linear-gradient-3" x1="579.4" y1="654.63" x2="650.08" y2="654.63" gradientTransform="matrix(0.99, 0.15, 0.15, -0.99, -15.25, 784.77)" xlink:href="#linear-gradient"/><linearGradient id="linear-gradient-4" x1="691.3" y1="462.89" x2="761.98" y2="462.89" gradientTransform="matrix(0.99, 0.15, 0.15, -0.99, -15.25, 784.77)" xlink:href="#linear-gradient"/><linearGradient id="linear-gradient-5" x1="317.71" y1="194.04" x2="388.38" y2="194.04" gradientTransform="matrix(0.99, 0.15, 0.15, -0.99, -15.25, 784.77)" xlink:href="#linear-gradient"/></defs><g id="Layer_2" data-name="Layer 2"><g id="Layer_1-2" data-name="Layer 1"><g id="Stars"><circle class="cls-1" cx="853.9" cy="405.5" r="7.6"/><circle class="cls-1" cx="931.9" cy="335.1" r="7.6"/><circle class="cls-1" cx="820.6" cy="286.5" r="7.6"/><circle class="cls-1" cx="771.4" cy="731" r="7.6"/><circle class="cls-1" cx="851.7" cy="105" r="7.6"/><circle class="cls-1" cx="984" cy="205" r="7.6"/><circle class="cls-1" cx="629.7" cy="407.1" r="7.6"/><circle class="cls-1" cx="629.7" cy="328.7" r="7.6"/><circle class="cls-1" cx="729" cy="117.9" r="7.6"/><circle class="cls-1" cx="877.6" cy="20.4" r="7.6"/><circle class="cls-1" cx="651" cy="61.4" r="7.6"/><circle class="cls-1" cx="1036.9" cy="544" r="7.6"/><circle class="cls-1" cx="943.3" cy="591.4" r="7.6"/><circle class="cls-1" cx="839.5" cy="582.4" r="7.6"/><circle class="cls-1" cx="624.3" cy="605" r="7.6"/><circle class="cls-1" cx="720.4" cy="531.3" r="7.6"/><circle class="cls-1" cx="728" cy="688.1" r="7.6"/><circle class="cls-1" cx="691" cy="481.4" r="7.6"/><circle class="cls-1" cx="939.5" cy="473.5" r="7.6"/><circle class="cls-1" cx="582.9" cy="208.3" r="7.6"/><circle class="cls-1" cx="966.2" cy="688.1" r="7.6"/><circle class="cls-1" cx="7.6" cy="166" r="7.6"/><circle class="cls-2" cx="853.9" cy="405.5" r="3.8"/><circle class="cls-2" cx="931.9" cy="335.1" r="3.8"/><circle class="cls-2" cx="820.6" cy="286.5" r="3.8"/><circle class="cls-2" cx="771.4" cy="731" r="3.8"/><circle class="cls-2" cx="851.7" cy="105" r="3.8"/><circle class="cls-2" cx="984" cy="205" r="3.8"/><circle class="cls-2" cx="629.7" cy="407.1" r="3.8"/><circle class="cls-2" cx="629.7" cy="328.7" r="3.8"/><circle class="cls-2" cx="729" cy="117.9" r="3.8"/><circle class="cls-2" cx="877.6" cy="20.4" r="3.8"/><circle class="cls-2" cx="651" cy="61.4" r="3.8"/><path class="cls-2" d="M1036.9,540.2a3.8,3.8,0,1,1-3.8,3.8A3.8,3.8,0,0,1,1036.9,540.2Z"/><circle class="cls-2" cx="943.3" cy="591.4" r="3.8"/><circle class="cls-2" cx="839.5" cy="582.4" r="3.8"/><circle class="cls-2" cx="624.3" cy="605" r="3.8"/><circle class="cls-2" cx="720.4" cy="531.3" r="3.8"/><circle class="cls-2" cx="728" cy="688.1" r="3.8"/><circle class="cls-2" cx="691" cy="481.4" r="3.8"/><circle class="cls-2" cx="939.5" cy="473.5" r="3.8"/><circle class="cls-2" cx="582.9" cy="208.3" r="3.8"/><circle class="cls-2" cx="966.2" cy="688.1" r="3.8"/><circle class="cls-3" cx="820.6" cy="286.5" r="3.8"/><circle class="cls-3" cx="851.7" cy="105" r="3.8"/><circle class="cls-3" cx="943.3" cy="591.4" r="3.8"/><circle class="cls-3" cx="624.3" cy="605" r="3.8"/><circle class="cls-3" cx="728" cy="688.1" r="3.8"/><circle class="cls-3" cx="691" cy="481.4" r="3.8"/><circle class="cls-3" cx="939.5" cy="473.5" r="3.8"/><circle class="cls-3" cx="582.9" cy="208.3" r="3.8"/><circle class="cls-3" cx="853.9" cy="405.5" r="3.8"/><circle class="cls-3" cx="771.4" cy="731" r="3.8"/><circle class="cls-3" cx="629.7" cy="407.1" r="3.8"/><circle class="cls-3" cx="729" cy="117.9" r="3.8"/><path class="cls-3" d="M1036.9,540.2a3.8,3.8,0,1,1-3.8,3.8A3.8,3.8,0,0,1,1036.9,540.2Z"/><circle class="cls-3" cx="720.4" cy="531.3" r="3.8"/><circle class="cls-3" cx="966.2" cy="688.1" r="3.8"/><circle class="cls-3" cx="931.9" cy="335.1" r="3.8"/><circle class="cls-3" cx="984" cy="205" r="3.8"/><circle class="cls-3" cx="629.7" cy="328.7" r="3.8"/><circle class="cls-3" cx="877.6" cy="20.4" r="3.8"/><circle class="cls-3" cx="651" cy="61.4" r="3.8"/><circle class="cls-3" cx="767.6" cy="629.9" r="3.8"/><circle class="cls-2" cx="895.7" cy="346.6" r="2.5"/><circle class="cls-2" cx="895.7" cy="500.3" r="2.5"/><circle class="cls-2" cx="623" cy="14.8" r="2.5"/><circle class="cls-2" cx="21.2" cy="187.2" r="2.5"/><circle class="cls-2" cx="851.4" cy="254.9" r="2.5"/><circle class="cls-2" cx="957.9" cy="349.1" r="2.5"/><circle class="cls-2" cx="1016.2" cy="396.2" r="2.5"/><circle class="cls-2" cx="895.7" cy="649.8" r="2.5"/><circle class="cls-2" cx="846.3" cy="758.8" r="2.5"/><circle class="cls-2" cx="715.4" cy="22.4" r="2.5"/><circle class="cls-2" cx="881.1" cy="160.8" r="2.5"/><circle class="cls-2" cx="890.1" cy="201.9" r="2.5"/><circle class="cls-2" cx="1016.2" cy="699.4" r="2.5"/><circle class="cls-2" cx="748.8" cy="153.3" r="2.5"/><circle class="cls-2" cx="605.2" cy="191.2" r="2.5"/><circle class="cls-2" cx="587.7" cy="50.5" r="2.5"/><circle class="cls-2" cx="1023.4" cy="172.9" r="2.5"/><circle class="cls-2" cx="600.2" cy="457.5" r="2.5"/><circle class="cls-2" cx="587.6" cy="257.9" r="2.5"/><circle class="cls-2" cx="673" cy="312.1" r="2.5"/><circle class="cls-2" cx="587.6" cy="561.1" r="2.5"/><circle class="cls-2" cx="673" cy="615.3" r="2.5"/><circle class="cls-2" cx="575.6" cy="679.2" r="2.5"/><circle class="cls-2" cx="724.2" cy="652.3" r="2.5"/><circle class="cls-2" cx="774.7" cy="539.8" r="2.5"/><circle class="cls-4" cx="843.8" cy="437.6" r="2.5"/><circle class="cls-4" cx="683.1" cy="10.6" r="2.5"/><circle class="cls-4" cx="939.5" cy="291.9" r="2.5"/><circle class="cls-4" cx="923.8" cy="394.7" r="2.5"/><circle class="cls-4" cx="870.3" cy="439.7" r="2.5"/><circle class="cls-4" cx="946.2" cy="442.4" r="2.5"/><circle class="cls-4" cx="39.6" cy="148.1" r="2.5"/><circle class="cls-4" cx="995.9" cy="265.8" r="2.5"/><circle class="cls-4" cx="49.3" cy="314.9" r="2.5"/><circle class="cls-4" cx="821.3" cy="561.1" r="2.5"/><circle class="cls-4" cx="900.4" cy="11.7" r="2.5"/><circle class="cls-4" cx="906.7" cy="615.3" r="2.5"/><circle class="cls-4" cx="809.3" cy="679.2" r="2.5"/><circle class="cls-4" cx="957.9" cy="652.3" r="2.5"/><circle class="cls-4" cx="602.7" cy="114" r="2.5"/><circle class="cls-4" cx="670.8" cy="119.8" r="2.5"/><circle class="cls-4" cx="811.8" cy="105" r="2.5"/><circle class="cls-4" cx="935.6" cy="723.8" r="2.5"/><circle class="cls-4" cx="754.4" cy="40.7" r="2.5"/><circle class="cls-4" cx="768.1" cy="186.1" r="2.5"/><circle class="cls-4" cx="995.9" cy="569" r="2.5"/><circle class="cls-4" cx="906.8" cy="73.9" r="2.5"/><circle class="cls-4" cx="954.2" cy="117.1" r="2.5"/><circle class="cls-4" cx="573.1" cy="601.2" r="2.5"/><circle class="cls-4" cx="1008.3" cy="539.8" r="2.5"/><circle class="cls-4" cx="901.7" cy="582.4" r="2.5"/><circle class="cls-4" cx="662" cy="346.6" r="2.5"/><circle class="cls-4" cx="662" cy="500.3" r="2.5"/><circle class="cls-4" cx="724.2" cy="349.1" r="2.5"/><circle class="cls-4" cx="782.5" cy="396.2" r="2.5"/><circle class="cls-4" cx="712.5" cy="442.4" r="2.5"/><circle class="cls-4" cx="762.2" cy="265.8" r="2.5"/><circle class="cls-4" cx="662" cy="649.8" r="2.5"/><circle class="cls-4" cx="575" cy="715.2" r="2.5"/><circle class="cls-4" cx="782.5" cy="699.4" r="2.5"/><circle class="cls-4" cx="687.1" cy="756.9" r="2.5"/><circle class="cls-4" cx="762.2" cy="569" r="2.5"/><circle class="cls-4" cx="668.1" cy="582.4" r="2.5"/><circle class="cls-1" cx="59.7" cy="39.4" r="14.8"/><circle class="cls-1" cx="894.5" cy="460.8" r="14.8"/><circle class="cls-1" cx="993.2" cy="622.9" r="14.8"/><circle class="cls-1" cx="620.4" cy="718.8" r="14.8"/><circle class="cls-1" cx="775.5" cy="159" r="14.8"/><circle class="cls-1" cx="742.3" cy="287.5" r="14.8"/><circle class="cls-1" cx="673.5" cy="440.1" r="14.8"/><circle class="cls-5" cx="59.7" cy="39.4" r="6.8"/><circle class="cls-5" cx="894.5" cy="460.8" r="6.8"/><circle class="cls-5" cx="993.2" cy="622.9" r="6.8"/><circle class="cls-5" cx="620.4" cy="718.8" r="6.8"/><circle class="cls-5" cx="775.5" cy="159" r="6.8"/><circle class="cls-5" cx="742.3" cy="287.5" r="6.8"/><circle class="cls-5" cx="673.5" cy="440.1" r="6.8"/><circle class="cls-1" cx="898" cy="766.5" r="12.8"/><circle class="cls-1" cx="892.1" cy="523.6" r="12.8"/><circle class="cls-1" cx="990.4" cy="111" r="12.8"/><circle class="cls-1" cx="809.3" cy="338.9" r="12.8"/><circle class="cls-1" cx="23.9" cy="239.8" r="12.8"/><circle class="cls-1" cx="680.6" cy="176.6" r="12.8"/><circle class="cls-2" cx="898" cy="766.5" r="8.7"/><circle class="cls-2" cx="892.1" cy="523.6" r="8.7"/><circle class="cls-2" cx="990.4" cy="111" r="8.7"/><circle class="cls-2" cx="809.3" cy="338.9" r="8.7"/><circle class="cls-2" cx="23.9" cy="239.8" r="8.7"/><circle class="cls-2" cx="680.6" cy="176.6" r="8.7"/><circle class="cls-3" cx="322.9" cy="763" r="1.7"/><circle class="cls-6" cx="322.9" cy="763" r="3.8"/><circle class="cls-1" cx="385.3" cy="596.5" r="7.6"/><circle class="cls-1" cx="317.3" cy="663.5" r="7.6"/><circle class="cls-1" cx="396.4" cy="759.1" r="7.6"/><circle class="cls-1" cx="288.4" cy="184.5" r="7.6"/><circle class="cls-1" cx="210.4" cy="254.9" r="7.6"/><circle class="cls-1" cx="321.7" cy="303.4" r="7.6"/><circle class="cls-1" cx="290.5" cy="485" r="7.6"/><circle class="cls-1" cx="158.2" cy="385" r="7.6"/><circle class="cls-1" cx="512.6" cy="182.9" r="7.6"/><circle class="cls-1" cx="512.6" cy="261.2" r="7.6"/><circle class="cls-1" cx="128.8" cy="612.4" r="7.6"/><circle class="cls-1" cx="413.3" cy="472.1" r="7.6"/><circle class="cls-1" cx="264.7" cy="569.6" r="7.6"/><circle class="cls-1" cx="491.3" cy="528.6" r="7.6"/><circle class="cls-1" cx="105.4" cy="46" r="7.6"/><circle class="cls-1" cx="302.8" cy="7.6" r="7.6"/><circle class="cls-1" cx="421.9" cy="58.7" r="7.6"/><circle class="cls-1" cx="473.4" cy="670.9" r="7.6"/><circle class="cls-1" cx="451.3" cy="108.6" r="7.6"/><circle class="cls-1" cx="202.8" cy="116.5" r="7.6"/><circle class="cls-1" cx="559.3" cy="381.7" r="7.6"/><circle class="cls-1" cx="93.4" cy="265.1" r="7.6"/><circle class="cls-2" cx="385.3" cy="596.5" r="3.8"/><circle class="cls-2" cx="317.3" cy="663.5" r="3.8"/><circle class="cls-2" cx="396.4" cy="759.1" r="3.8"/><circle class="cls-2" cx="288.4" cy="184.5" r="3.8"/><circle class="cls-2" cx="210.4" cy="254.9" r="3.8"/><circle class="cls-2" cx="321.7" cy="303.4" r="3.8"/><circle class="cls-2" cx="290.5" cy="485" r="3.8"/><circle class="cls-2" cx="158.2" cy="385" r="3.8"/><circle class="cls-2" cx="512.6" cy="182.9" r="3.8"/><circle class="cls-2" cx="512.6" cy="261.2" r="3.8"/><circle class="cls-2" cx="128.8" cy="612.4" r="3.8"/><circle class="cls-2" cx="413.3" cy="472.1" r="3.8"/><circle class="cls-2" cx="264.7" cy="569.6" r="3.8"/><circle class="cls-2" cx="491.3" cy="528.6" r="3.8"/><circle class="cls-2" cx="105.4" cy="46" r="3.8"/><circle class="cls-2" cx="302.8" cy="7.6" r="3.8"/><circle class="cls-2" cx="421.9" cy="58.7" r="3.8"/><circle class="cls-2" cx="473.4" cy="670.9" r="3.8"/><circle class="cls-2" cx="451.3" cy="108.6" r="3.8"/><circle class="cls-2" cx="202.8" cy="116.5" r="3.8"/><circle class="cls-2" cx="559.3" cy="381.7" r="3.8"/><circle class="cls-2" cx="93.4" cy="265.1" r="3.8"/><circle class="cls-3" cx="385.3" cy="596.5" r="3.8"/><circle class="cls-3" cx="321.7" cy="303.4" r="3.8"/><circle class="cls-3" cx="290.5" cy="485" r="3.8"/><circle class="cls-3" cx="473.4" cy="670.9" r="3.8"/><circle class="cls-3" cx="451.3" cy="108.6" r="3.8"/><circle class="cls-3" cx="202.8" cy="116.5" r="3.8"/><circle class="cls-3" cx="559.3" cy="381.7" r="3.8"/><circle class="cls-3" cx="93.4" cy="265.1" r="3.8"/><circle class="cls-3" cx="317.3" cy="663.5" r="3.8"/><circle class="cls-3" cx="396.4" cy="759.1" r="3.8"/><circle class="cls-3" cx="288.4" cy="184.5" r="3.8"/><circle class="cls-3" cx="512.6" cy="182.9" r="3.8"/><circle class="cls-3" cx="413.3" cy="472.1" r="3.8"/><circle class="cls-3" cx="105.4" cy="46" r="3.8"/><circle class="cls-3" cx="421.9" cy="58.7" r="3.8"/><circle class="cls-3" cx="210.4" cy="254.9" r="3.8"/><circle class="cls-3" cx="158.2" cy="385" r="3.8"/><circle class="cls-3" cx="512.6" cy="261.2" r="3.8"/><circle class="cls-3" cx="128.8" cy="612.4" r="3.8"/><circle class="cls-3" cx="264.7" cy="569.6" r="3.8"/><circle class="cls-3" cx="491.3" cy="528.6" r="3.8"/><circle class="cls-2" cx="246.6" cy="243.4" r="2.5"/><circle class="cls-2" cx="246.6" cy="89.7" r="2.5"/><circle class="cls-2" cx="519.2" cy="575.2" r="2.5"/><circle class="cls-2" cx="290.9" cy="335.1" r="2.5"/><circle class="cls-2" cx="333.9" cy="607" r="2.5"/><circle class="cls-2" cx="184.4" cy="240.8" r="2.5"/><circle class="cls-2" cx="126.1" cy="193.8" r="2.5"/><circle class="cls-2" cx="539.6" cy="779.2" r="2.5"/><circle class="cls-2" cx="393.4" cy="739.9" r="2.5"/><circle class="cls-2" cx="374.1" cy="707.1" r="2.5"/><circle class="cls-2" cx="426.9" cy="567.6" r="2.5"/><circle class="cls-2" cx="261.1" cy="429.1" r="2.5"/><circle class="cls-2" cx="252.1" cy="388.1" r="2.5"/><circle class="cls-2" cx="393.4" cy="436.6" r="2.5"/><circle class="cls-2" cx="537.1" cy="398.7" r="2.5"/><circle class="cls-2" cx="554.6" cy="539.5" r="2.5"/><circle class="cls-2" cx="191.6" cy="595" r="2.5"/><circle class="cls-2" cx="188.1" cy="776.1" r="2.5"/><circle class="cls-2" cx="118.8" cy="417.1" r="2.5"/><circle class="cls-2" cx="542.1" cy="132.5" r="2.5"/><circle class="cls-2" cx="554.7" cy="332.1" r="2.5"/><circle class="cls-2" cx="469.2" cy="277.9" r="2.5"/><circle class="cls-2" cx="554.7" cy="28.9" r="2.5"/><circle class="cls-2" cx="367.6" cy="50.2" r="2.5"/><circle class="cls-4" cx="298.4" cy="152.4" r="2.5"/><circle class="cls-4" cx="447" cy="641.6" r="2.5"/><circle class="cls-4" cx="459.1" cy="579.4" r="2.5"/><circle class="cls-4" cx="308.6" cy="639.1" r="2.5"/><circle class="cls-4" cx="261.1" cy="732.4" r="2.5"/><circle class="cls-4" cx="202.8" cy="298.1" r="2.5"/><circle class="cls-4" cx="218.5" cy="195.2" r="2.5"/><circle class="cls-4" cx="271.9" cy="150.2" r="2.5"/><circle class="cls-4" cx="471.5" cy="773.4" r="2.5"/><circle class="cls-4" cx="196.1" cy="147.6" r="2.5"/><circle class="cls-4" cx="537.1" cy="701.9" r="2.5"/><circle class="cls-4" cx="146.4" cy="324.2" r="2.5"/><circle class="cls-4" cx="321" cy="28.9" r="2.5"/><circle class="cls-4" cx="241.8" cy="578.3" r="2.5"/><circle class="cls-4" cx="539.6" cy="476" r="2.5"/><circle class="cls-4" cx="471.5" cy="470.2" r="2.5"/><circle class="cls-4" cx="330.4" cy="485" r="2.5"/><circle class="cls-4" cx="387.8" cy="549.2" r="2.5"/><circle class="cls-4" cx="374.1" cy="403.9" r="2.5"/><circle class="cls-4" cx="146.4" cy="21" r="2.5"/><circle class="cls-4" cx="235.4" cy="516.1" r="2.5"/><circle class="cls-4" cx="166.3" cy="627" r="2.5"/><circle class="cls-4" cx="118.8" cy="720.3" r="2.5"/><circle class="cls-4" cx="99.5" cy="566.2" r="2.5"/><circle class="cls-4" cx="188.1" cy="472.9" r="2.5"/><circle class="cls-4" cx="133.9" cy="50.2" r="2.5"/><circle class="cls-4" cx="480.2" cy="243.4" r="2.5"/><circle class="cls-4" cx="480.2" cy="89.7" r="2.5"/><circle class="cls-4" cx="418.1" cy="240.8" r="2.5"/><circle class="cls-4" cx="359.8" cy="193.8" r="2.5"/><circle class="cls-4" cx="429.7" cy="147.6" r="2.5"/><circle class="cls-4" cx="380" cy="324.2" r="2.5"/><circle class="cls-4" cx="380" cy="21" r="2.5"/><circle class="cls-1" cx="247.7" cy="129.2" r="14.8"/><circle class="cls-1" cx="487.4" cy="701.2" r="14.8"/><circle class="cls-1" cx="186.2" cy="648.6" r="14.8"/><circle class="cls-1" cx="366.8" cy="431" r="14.8"/><circle class="cls-1" cx="399.9" cy="302.4" r="14.8"/><circle class="cls-1" cx="468.8" cy="149.9" r="14.8"/><circle class="cls-5" cx="247.7" cy="129.2" r="6.8"/><circle class="cls-5" cx="487.4" cy="701.2" r="6.8"/><circle class="cls-5" cx="186.2" cy="648.6" r="6.8"/><circle class="cls-5" cx="366.8" cy="431" r="6.8"/><circle class="cls-5" cx="399.9" cy="302.4" r="6.8"/><circle class="cls-5" cx="468.8" cy="149.9" r="6.8"/><circle class="cls-1" cx="250.1" cy="66.3" r="12.8"/><circle class="cls-1" cx="151.9" cy="478.9" r="12.8"/><circle class="cls-1" cx="332.9" cy="251.1" r="12.8"/><circle class="cls-1" cx="248.2" cy="645.9" r="12.8"/><circle class="cls-1" cx="461.6" cy="413.3" r="12.8"/><circle class="cls-1" cx="481.8" cy="598" r="12.8"/><circle class="cls-2" cx="250.1" cy="66.3" r="8.7"/><circle class="cls-2" cx="151.9" cy="478.9" r="8.7"/><circle class="cls-2" cx="332.9" cy="251.1" r="8.7"/><circle class="cls-2" cx="248.2" cy="645.9" r="8.7"/><circle class="cls-1" cx="41" cy="408.3" r="7.6"/><circle class="cls-1" cx="12.6" cy="645.1" r="7.6" transform="translate(-632.53 656.14) rotate(-89.86)"/><circle class="cls-2" cx="41" cy="408.3" r="3.8" transform="translate(-367.99 441.74) rotate(-88.94)"/><circle class="cls-2" cx="12.6" cy="645.1" r="3.8" transform="translate(-632.53 656.14) rotate(-89.86)"/><circle class="cls-3" cx="41" cy="408.3" r="3.8" transform="translate(-367.99 441.74) rotate(-88.94)"/><circle class="cls-3" cx="12.6" cy="645.1" r="3.8" transform="translate(-632.53 656.14) rotate(-89.86)"/><circle class="cls-2" cx="26.2" cy="666.3" r="2.5"/><circle class="cls-2" cx="15.5" cy="481.2" r="2.5"/><circle class="cls-4" cx="44.5" cy="627.2" r="2.5"/><circle class="cls-4" cx="27.6" cy="338.9" r="2.5"/><circle class="cls-1" cx="64.7" cy="518.5" r="14.8" transform="translate(-455.67 565.91) rotate(-88.09)"/><circle class="cls-5" cx="64.7" cy="518.5" r="6.8"/><circle class="cls-1" cx="28.9" cy="718.9" r="12.8" transform="translate(-7.33 0.33) rotate(-0.58)"/><circle class="cls-1" cx="17.1" cy="377.3" r="12.8" transform="translate(-3.85 0.19) rotate(-0.58)"/><circle class="cls-2" cx="28.9" cy="718.9" r="8.7" transform="translate(-7.33 0.33) rotate(-0.58)"/><circle class="cls-2" cx="17.1" cy="377.3" r="8.7"/><circle class="cls-2" cx="461.6" cy="413.3" r="8.7"/><circle class="cls-2" cx="481.8" cy="598" r="8.7"/><path class="cls-7" d="M329.8,117.3l64.7,31"/><path class="cls-8" d="M133.5,248.2l57.3,43.2"/><path class="cls-9" d="M661.8,212.8l61,37.9"/><path class="cls-10" d="M743.09,419.38l61,37.9"/><path class="cls-11" d="M332.8,628l61,37.9"/></g></g></g></svg>