<svg xmlns="http://www.w3.org/2000/svg" xmlns:xlink="http://www.w3.org/1999/xlink" viewBox="0 0 428 926"><defs><style>.cls-1{fill:#0f0b37;}.cls-2{fill:#2f57d5;}.cls-10,.cls-3,.cls-7,.cls-8,.cls-9{fill:none;stroke-linecap:round;}.cls-3{stroke:#581eab;stroke-width:1.32px;}.cls-3,.cls-7{stroke-miterlimit:10;}.cls-4,.cls-5{fill:#191070;}.cls-4{opacity:0.25;isolation:isolate;}.cls-6{fill:#581eab;}.cls-7{stroke:#191070;stroke-width:5.85px;}.cls-10,.cls-8,.cls-9{stroke-linejoin:round;stroke-width:4.6px;stroke-dasharray:196.54 382.74 0 195.78 0 0;}.cls-8{stroke:url(#linear-gradient);}.cls-9{stroke:url(#linear-gradient-2);}.cls-10{stroke:url(#linear-gradient-3);}</style><linearGradient id="linear-gradient" x1="200.02" y1="905.38" x2="281.55" y2="905.38" gradientTransform="translate(-13.67 -753.05) rotate(2.62)" gradientUnits="userSpaceOnUse"><stop offset="0" stop-color="#2f57d5" stop-opacity="0"/><stop offset="1" stop-color="#2f57d5"/></linearGradient><linearGradient id="linear-gradient-2" x1="172.89" y1="1385.15" x2="254.43" y2="1385.15" xlink:href="#linear-gradient"/><linearGradient id="linear-gradient-3" x1="342.75" y1="1159.17" x2="424.28" y2="1159.17" xlink:href="#linear-gradient"/></defs><g id="Layer_2" data-name="Layer 2"><rect class="cls-1" width="428" height="926"/><circle class="cls-2" cx="139.84" cy="896.5" r="1.98"/><circle class="cls-3" cx="139.84" cy="896.5" r="4.43"/><circle class="cls-4" cx="212.52" cy="702.55" r="8.85"/><circle class="cls-4" cx="133.31" cy="780.6" r="8.85"/><circle class="cls-4" cx="225.45" cy="891.96" r="8.85"/><circle class="cls-4" cx="99.65" cy="222.63" r="8.85"/><circle class="cls-4" cx="12.79" cy="304.64" r="8.85"/><circle class="cls-4" cx="138.44" cy="361.13" r="8.85"/><circle class="cls-4" cx="102.1" cy="572.67" r="8.85"/><circle class="cls-4" cx="360.81" cy="220.77" r="8.85"/><circle class="cls-4" cx="360.81" cy="311.98" r="8.85"/><circle class="cls-4" cx="245.14" cy="557.64" r="8.85"/><circle class="cls-4" cx="72.04" cy="671.22" r="8.85"/><circle class="cls-4" cx="336" cy="623.46" r="8.85"/><circle class="cls-4" cx="116.42" cy="16.57" r="8.85"/><circle class="cls-4" cx="255.16" cy="76.09" r="8.85"/><circle class="cls-4" cx="315.15" cy="789.22" r="8.85"/><circle class="cls-4" cx="289.4" cy="134.22" r="8.85"/><circle class="cls-4" cx="19.94" cy="33.42" r="8.85"/><circle class="cls-4" cx="415.21" cy="452.34" r="8.85"/><circle class="cls-5" cx="212.52" cy="702.55" r="4.43"/><circle class="cls-5" cx="133.31" cy="780.6" r="4.43"/><circle class="cls-5" cx="225.45" cy="891.96" r="4.43"/><circle class="cls-5" cx="99.65" cy="222.63" r="4.43"/><circle class="cls-5" cx="12.79" cy="304.64" r="4.43"/><circle class="cls-5" cx="138.44" cy="361.13" r="4.43"/><circle class="cls-5" cx="102.1" cy="572.67" r="4.43"/><circle class="cls-5" cx="360.81" cy="220.77" r="4.43"/><circle class="cls-5" cx="360.81" cy="311.98" r="4.43"/><circle class="cls-5" cx="245.14" cy="557.64" r="4.43"/><circle class="cls-5" cx="72.04" cy="671.22" r="4.43"/><circle class="cls-5" cx="336" cy="623.46" r="4.43"/><circle class="cls-5" cx="116.42" cy="16.57" r="4.43"/><circle class="cls-5" cx="255.16" cy="76.09" r="4.43"/><circle class="cls-5" cx="315.15" cy="789.22" r="4.43"/><circle class="cls-5" cx="289.4" cy="134.22" r="4.43"/><circle class="cls-5" cx="19.94" cy="33.42" r="4.43"/><circle class="cls-5" cx="415.21" cy="452.34" r="4.43"/><circle class="cls-2" cx="212.52" cy="702.55" r="4.43"/><circle class="cls-2" cx="138.44" cy="361.13" r="4.43"/><circle class="cls-2" cx="102.1" cy="572.67" r="4.43"/><circle class="cls-2" cx="315.15" cy="789.22" r="4.43"/><circle class="cls-2" cx="289.4" cy="134.22" r="4.43"/><circle class="cls-2" cx="19.94" cy="33.42" r="4.43"/><circle class="cls-2" cx="415.21" cy="452.34" r="4.43"/><circle class="cls-2" cx="133.31" cy="780.6" r="4.43"/><circle class="cls-2" cx="225.45" cy="891.96" r="4.43"/><circle class="cls-2" cx="99.65" cy="222.63" r="4.43"/><circle class="cls-2" cx="360.81" cy="220.77" r="4.43"/><circle class="cls-2" cx="245.14" cy="557.64" r="4.43"/><circle class="cls-2" cx="255.16" cy="76.09" r="4.43"/><circle class="cls-2" cx="12.79" cy="304.64" r="4.43"/><circle class="cls-2" cx="360.81" cy="311.98" r="4.43"/><circle class="cls-2" cx="72.04" cy="671.22" r="4.43"/><circle class="cls-2" cx="336" cy="623.46" r="4.43"/><circle class="cls-5" cx="50.96" cy="291.24" r="2.91"/><circle class="cls-5" cx="50.96" cy="112.2" r="2.91"/><circle class="cls-5" cx="368.5" cy="677.74" r="2.91"/><circle class="cls-5" cx="102.56" cy="398.06" r="2.91"/><circle class="cls-5" cx="152.65" cy="714.78" r="2.91"/><circle class="cls-5" cx="392.26" cy="915.37" r="2.91"/><circle class="cls-5" cx="221.96" cy="869.59" r="2.91"/><circle class="cls-5" cx="199.48" cy="831.39" r="2.91"/><circle class="cls-5" cx="260.98" cy="668.89" r="2.91"/><circle class="cls-5" cx="67.85" cy="507.56" r="2.91"/><circle class="cls-5" cx="57.37" cy="459.8" r="2.91"/><circle class="cls-5" cx="221.96" cy="516.29" r="2.91"/><circle class="cls-5" cx="389.35" cy="472.14" r="2.91"/><circle class="cls-5" cx="409.73" cy="636.16" r="2.91"/><circle class="cls-5" cx="395.17" cy="162.06" r="2.91"/><circle class="cls-5" cx="409.85" cy="394.56" r="2.91"/><circle class="cls-5" cx="310.26" cy="331.43" r="2.91"/><circle class="cls-5" cx="409.85" cy="41.38" r="2.91"/><circle class="cls-5" cx="191.91" cy="66.19" r="2.91"/><circle class="cls-6" cx="111.3" cy="185.24" r="2.91"/><circle class="cls-6" cx="284.4" cy="755.09" r="2.91"/><circle class="cls-6" cx="298.49" cy="682.63" r="2.91"/><circle class="cls-6" cx="123.18" cy="752.18" r="2.91"/><circle class="cls-6" cx="67.85" cy="860.86" r="2.91"/><circle class="cls-6" cx="9.94" cy="354.96" r="2.91"/><circle class="cls-6" cx="18.23" cy="235.1" r="2.91"/><circle class="cls-6" cx="80.43" cy="182.68" r="2.91"/><circle class="cls-6" cx="312.93" cy="908.62" r="2.91"/><circle class="cls-6" cx="132.13" cy="99.65" r="2.91"/><circle class="cls-6" cx="389.35" cy="825.33" r="2.91"/><circle class="cls-6" cx="137.62" cy="41.38" r="2.91"/><circle class="cls-6" cx="45.37" cy="681.35" r="2.91"/><circle class="cls-6" cx="392.26" cy="562.19" r="2.91"/><circle class="cls-6" cx="312.93" cy="555.43" r="2.91"/><circle class="cls-6" cx="148.57" cy="572.67" r="2.91"/><circle class="cls-6" cx="215.44" cy="647.45" r="2.91"/><circle class="cls-6" cx="199.48" cy="478.2" r="2.91"/><circle class="cls-6" cx="37.91" cy="608.9" r="2.91"/><circle class="cls-6" cx="12.81" cy="558.58" r="2.91"/><circle class="cls-6" cx="323.07" cy="291.24" r="2.91"/><circle class="cls-6" cx="323.07" cy="112.2" r="2.91"/><circle class="cls-6" cx="250.73" cy="288.21" r="2.91"/><circle class="cls-6" cx="182.82" cy="233.47" r="2.91"/><circle class="cls-6" cx="264.24" cy="179.65" r="2.91"/><circle class="cls-6" cx="206.35" cy="385.36" r="2.91"/><circle class="cls-6" cx="206.35" cy="32.18" r="2.91"/><circle class="cls-4" cx="52.24" cy="158.22" r="17.24"/><circle class="cls-4" cx="331.46" cy="824.51" r="17.24"/><circle class="cls-4" cx="190.97" cy="509.77" r="17.24"/><circle class="cls-4" cx="229.53" cy="359.97" r="17.24"/><circle class="cls-4" cx="309.79" cy="182.33" r="17.24"/><circle class="cls-7" cx="52.24" cy="158.22" r="7.92"/><circle class="cls-7" cx="331.46" cy="824.51" r="7.92"/><circle class="cls-7" cx="190.97" cy="509.77" r="7.92"/><circle class="cls-7" cx="229.53" cy="359.97" r="7.92"/><circle class="cls-7" cx="309.79" cy="182.33" r="7.92"/><circle class="cls-4" cx="55.04" cy="84.95" r="14.91"/><circle class="cls-4" cx="151.49" cy="300.21" r="14.91"/><circle class="cls-4" cx="52.82" cy="760.1" r="14.91"/><circle class="cls-4" cx="301.4" cy="489.15" r="14.91"/><circle class="cls-4" cx="324.93" cy="704.3" r="14.91"/><circle class="cls-5" cx="55.04" cy="84.95" r="10.13"/><circle class="cls-5" cx="151.49" cy="300.21" r="10.13"/><circle class="cls-5" cx="52.82" cy="760.1" r="10.13"/><circle class="cls-5" cx="301.4" cy="489.15" r="10.13"/><circle class="cls-5" cx="324.93" cy="704.3" r="10.13"/><path class="cls-8" d="M147.87,144.35l75.37,36.11"/><path class="cls-9" d="M98.88,622.41l75.36,36.11"/><path class="cls-10" d="M278.88,404.41l75.36,36.11"/></g></svg>