<svg id="Layer_1" data-name="Layer 1" xmlns="http://www.w3.org/2000/svg" xmlns:xlink="http://www.w3.org/1999/xlink" viewBox="0 0 1600 1200"><defs><style>.cls-1{fill:#0f0b37;}.cls-2,.cls-3{fill:#191070;}.cls-2{opacity:0.25;isolation:isolate;}.cls-4{fill:#2f57d5;}.cls-5{fill:#581eab;}.cls-10,.cls-11,.cls-6,.cls-7,.cls-8,.cls-9{fill:none;stroke-linecap:round;}.cls-6{stroke:#191070;stroke-width:5.85px;}.cls-6,.cls-7{stroke-miterlimit:10;}.cls-7{stroke:#581eab;stroke-width:1.32px;}.cls-10,.cls-11,.cls-8,.cls-9{stroke-linejoin:round;stroke-width:4.6px;stroke-dasharray:196.54 382.74 0 195.78 0 0;}.cls-8{stroke:url(#linear-gradient);}.cls-9{stroke:url(#linear-gradient-2);}.cls-10{stroke:url(#linear-gradient-3);}.cls-11{stroke:url(#linear-gradient-4);}</style><linearGradient id="linear-gradient" x1="1135.16" y1="1498.3" x2="1239.53" y2="1498.3" gradientTransform="translate(0 -832.11)" gradientUnits="userSpaceOnUse"><stop offset="0" stop-color="#2f57d5" stop-opacity="0"/><stop offset="1" stop-color="#2f57d5"/></linearGradient><linearGradient id="linear-gradient-2" x1="575.09" y1="1011.21" x2="679.38" y2="1011.21" gradientTransform="translate(-12.02 -828.36) rotate(2.62)" xlink:href="#linear-gradient"/><linearGradient id="linear-gradient-3" x1="507.9" y1="1103.41" x2="612.2" y2="1103.41" gradientTransform="matrix(0.97, 0.24, -0.24, 0.97, -10.08, -788.79)" xlink:href="#linear-gradient"/><linearGradient id="linear-gradient-4" x1="1125.5" y1="904.18" x2="1229.84" y2="904.18" gradientTransform="translate(41.08 -713.71) rotate(8.79)" xlink:href="#linear-gradient"/></defs><rect class="cls-1" width="1600" height="1200"/><circle class="cls-2" cx="1310.75" cy="622.11" r="11.47"/><circle class="cls-2" cx="1428.49" cy="515.84" r="11.47"/><circle class="cls-2" cx="1260.48" cy="442.48" r="11.47"/><circle class="cls-2" cx="1186.21" cy="1113.47" r="11.47"/><circle class="cls-2" cx="1307.43" cy="168.5" r="11.47"/><circle class="cls-2" cx="1507.14" cy="319.45" r="11.47"/><circle class="cls-2" cx="972.31" cy="624.53" r="11.47"/><circle class="cls-2" cx="972.31" cy="506.18" r="11.47"/><circle class="cls-2" cx="1122.21" cy="187.97" r="11.47"/><circle class="cls-2" cx="1346.53" cy="40.79" r="11.47"/><circle class="cls-2" cx="1004.47" cy="102.69" r="11.47"/><circle class="cls-2" cx="1445.7" cy="902.74" r="11.47"/><ellipse class="cls-2" cx="1566.77" cy="769.6" rx="11.4" ry="11.52" transform="translate(-85.29 1333.28) rotate(-45)"/><circle class="cls-2" cx="1289.01" cy="889.15" r="11.47"/><circle class="cls-2" cx="964.16" cy="923.27" r="11.47"/><circle class="cls-2" cx="1109.23" cy="812.01" r="11.47"/><circle class="cls-2" cx="1120.7" cy="1048.71" r="11.47"/><circle class="cls-2" cx="1064.85" cy="736.69" r="11.47"/><circle class="cls-2" cx="1439.97" cy="724.76" r="11.47"/><circle class="cls-2" cx="901.67" cy="324.44" r="11.47"/><circle class="cls-2" cx="1480.27" cy="1048.71" r="11.47"/><circle class="cls-2" cx="33.23" cy="260.58" r="11.47" transform="translate(-227.66 291.26) rotate(-89.44)"/><circle class="cls-3" cx="1310.75" cy="622.11" r="5.74"/><circle class="cls-3" cx="1428.49" cy="515.84" r="5.74"/><circle class="cls-3" cx="1260.48" cy="442.48" r="5.74"/><circle class="cls-3" cx="1186.21" cy="1113.47" r="5.74"/><circle class="cls-3" cx="1307.43" cy="168.5" r="5.74"/><circle class="cls-3" cx="1507.14" cy="319.45" r="5.74"/><circle class="cls-3" cx="972.31" cy="624.53" r="5.74"/><circle class="cls-3" cx="972.31" cy="506.18" r="5.74"/><circle class="cls-3" cx="1122.21" cy="187.97" r="5.74"/><circle class="cls-3" cx="1346.53" cy="40.79" r="5.74"/><circle class="cls-3" cx="1004.47" cy="102.69" r="5.74"/><path class="cls-3" d="M1566.77,763.86a5.74,5.74,0,1,1-5.74,5.74A5.73,5.73,0,0,1,1566.77,763.86Z"/><circle class="cls-3" cx="1445.7" cy="902.74" r="5.74"/><circle class="cls-3" cx="1289.01" cy="889.15" r="5.74"/><circle class="cls-3" cx="964.16" cy="923.27" r="5.74"/><circle class="cls-3" cx="1109.23" cy="812.01" r="5.74"/><circle class="cls-3" cx="1120.7" cy="1048.71" r="5.74"/><circle class="cls-3" cx="1064.85" cy="736.69" r="5.74"/><circle class="cls-3" cx="1439.97" cy="724.76" r="5.74"/><circle class="cls-3" cx="901.67" cy="324.44" r="5.74"/><circle class="cls-3" cx="1480.27" cy="1048.71" r="5.74"/><circle class="cls-4" cx="1260.48" cy="442.48" r="5.74"/><circle class="cls-4" cx="1307.43" cy="168.5" r="5.74"/><circle class="cls-4" cx="1445.7" cy="902.74" r="5.74"/><circle class="cls-4" cx="964.16" cy="923.27" r="5.74"/><circle class="cls-4" cx="1120.7" cy="1048.71" r="5.74"/><circle class="cls-4" cx="1064.85" cy="736.69" r="5.74"/><circle class="cls-4" cx="1439.97" cy="724.76" r="5.74"/><circle class="cls-4" cx="901.67" cy="324.44" r="5.74"/><circle class="cls-4" cx="1310.75" cy="622.11" r="5.74"/><circle class="cls-4" cx="1186.21" cy="1113.47" r="5.74"/><circle class="cls-4" cx="972.31" cy="624.53" r="5.74"/><circle class="cls-4" cx="1122.21" cy="187.97" r="5.74"/><path class="cls-4" d="M1566.77,763.86a5.74,5.74,0,1,1-5.74,5.74A5.73,5.73,0,0,1,1566.77,763.86Z"/><circle class="cls-4" cx="1109.23" cy="812.01" r="5.74"/><circle class="cls-4" cx="1480.27" cy="1048.71" r="5.74"/><circle class="cls-4" cx="1428.49" cy="515.84" r="5.74"/><circle class="cls-4" cx="1507.14" cy="319.45" r="5.74"/><circle class="cls-4" cx="972.31" cy="506.18" r="5.74"/><circle class="cls-4" cx="1346.53" cy="40.79" r="5.74"/><circle class="cls-4" cx="1004.47" cy="102.69" r="5.74"/><circle class="cls-4" cx="1180.48" cy="960.85" r="5.74"/><circle class="cls-3" cx="1373.85" cy="533.2" r="3.77"/><circle class="cls-3" cx="1373.85" cy="765.22" r="3.77"/><circle class="cls-3" cx="962.2" cy="32.34" r="3.77"/><circle class="cls-3" cx="53.76" cy="292.58" r="3.77"/><circle class="cls-3" cx="1306.98" cy="394.78" r="3.77"/><circle class="cls-3" cx="1467.74" cy="536.98" r="3.77"/><circle class="cls-3" cx="1555.75" cy="608.08" r="3.77"/><circle class="cls-3" cx="1373.85" cy="990.89" r="3.77"/><circle class="cls-3" cx="1299.28" cy="1155.43" r="3.77"/><circle class="cls-3" cx="1101.68" cy="43.81" r="3.77"/><circle class="cls-3" cx="1351.81" cy="252.73" r="3.77"/><circle class="cls-3" cx="1365.39" cy="314.77" r="3.77"/><circle class="cls-3" cx="1555.75" cy="1065.77" r="3.77"/><circle class="cls-3" cx="1152.1" cy="241.41" r="3.77"/><circle class="cls-3" cx="935.33" cy="298.62" r="3.77"/><circle class="cls-3" cx="908.91" cy="86.23" r="3.77"/><circle class="cls-3" cx="1566.62" cy="271" r="3.77"/><circle class="cls-3" cx="927.78" cy="700.61" r="3.77"/><circle class="cls-3" cx="908.76" cy="399.31" r="3.77"/><circle class="cls-3" cx="1037.68" cy="481.12" r="3.77"/><circle class="cls-3" cx="908.76" cy="857" r="3.77"/><circle class="cls-3" cx="1037.68" cy="938.81" r="3.77"/><circle class="cls-3" cx="890.65" cy="1035.27" r="3.77"/><circle class="cls-3" cx="1114.96" cy="994.67" r="3.77"/><circle class="cls-3" cx="1191.19" cy="824.84" r="3.77"/><circle class="cls-5" cx="1295.5" cy="670.57" r="3.77"/><circle class="cls-5" cx="1052.92" cy="26" r="3.77"/><circle class="cls-5" cx="1439.97" cy="450.63" r="3.77"/><circle class="cls-5" cx="1416.27" cy="605.81" r="3.77"/><circle class="cls-5" cx="1335.51" cy="673.74" r="3.77"/><circle class="cls-5" cx="1450.08" cy="677.82" r="3.77"/><circle class="cls-5" cx="81.54" cy="233.56" r="3.77"/><circle class="cls-5" cx="1525.1" cy="411.23" r="3.77"/><circle class="cls-5" cx="96.18" cy="485.35" r="3.77"/><circle class="cls-5" cx="1261.54" cy="857" r="3.77"/><circle class="cls-5" cx="1380.94" cy="27.66" r="3.77"/><circle class="cls-5" cx="1390.45" cy="938.81" r="3.77"/><circle class="cls-5" cx="1243.42" cy="1035.27" r="3.77"/><circle class="cls-5" cx="1467.74" cy="994.67" r="3.77"/><circle class="cls-5" cx="931.56" cy="182.09" r="3.77"/><circle class="cls-5" cx="1034.35" cy="190.84" r="3.77"/><circle class="cls-5" cx="1247.2" cy="168.5" r="3.77"/><circle class="cls-5" cx="1434.08" cy="1102.6" r="3.77"/><circle class="cls-5" cx="1160.55" cy="71.44" r="3.77"/><circle class="cls-5" cx="1181.23" cy="290.92" r="3.77"/><circle class="cls-5" cx="1525.1" cy="868.92" r="3.77"/><circle class="cls-5" cx="1390.6" cy="121.55" r="3.77"/><circle class="cls-5" cx="1462.16" cy="186.77" r="3.77"/><circle class="cls-5" cx="886.87" cy="917.53" r="3.77"/><circle class="cls-5" cx="1543.82" cy="824.84" r="3.77"/><circle class="cls-5" cx="1382.91" cy="889.15" r="3.77"/><circle class="cls-5" cx="1021.07" cy="533.2" r="3.77"/><circle class="cls-5" cx="1021.07" cy="765.22" r="3.77"/><circle class="cls-5" cx="1114.96" cy="536.98" r="3.77"/><circle class="cls-5" cx="1202.97" cy="608.08" r="3.77"/><circle class="cls-5" cx="1097.3" cy="677.82" r="3.77"/><circle class="cls-5" cx="1172.33" cy="411.23" r="3.77"/><circle class="cls-5" cx="1021.07" cy="990.89" r="3.77"/><circle class="cls-5" cx="889.74" cy="1089.62" r="3.77"/><circle class="cls-5" cx="1202.97" cy="1065.77" r="3.77"/><circle class="cls-5" cx="1058.96" cy="1152.56" r="3.77"/><circle class="cls-5" cx="1172.33" cy="868.92" r="3.77"/><circle class="cls-5" cx="1030.28" cy="889.15" r="3.77"/><circle class="cls-2" cx="111.88" cy="69.48" r="22.34"/><circle class="cls-2" cx="1372.04" cy="705.59" r="22.34"/><circle class="cls-2" cx="1521.03" cy="950.29" r="22.34"/><circle class="cls-2" cx="958.27" cy="1095.05" r="22.34"/><circle class="cls-2" cx="1192.4" cy="250.02" r="22.34"/><circle class="cls-2" cx="1142.29" cy="443.99" r="22.34"/><circle class="cls-2" cx="1038.43" cy="674.34" r="22.34"/><circle class="cls-6" cx="111.88" cy="69.48" r="10.26"/><circle class="cls-6" cx="1372.04" cy="705.59" r="10.26"/><circle class="cls-6" cx="1521.03" cy="950.29" r="10.26"/><circle class="cls-6" cx="958.27" cy="1095.05" r="10.26"/><circle class="cls-6" cx="1192.4" cy="250.02" r="10.26"/><circle class="cls-6" cx="1142.29" cy="443.99" r="10.26"/><circle class="cls-6" cx="1038.43" cy="674.34" r="10.26"/><circle class="cls-2" cx="1377.32" cy="1167.06" r="19.32"/><circle class="cls-2" cx="1368.41" cy="800.39" r="19.32"/><circle class="cls-2" cx="1516.8" cy="177.56" r="19.32"/><circle class="cls-2" cx="1243.42" cy="521.58" r="19.32"/><circle class="cls-2" cx="57.84" cy="371.99" r="19.32"/><circle class="cls-2" cx="1049.15" cy="276.58" r="19.32"/><circle class="cls-3" cx="1377.32" cy="1167.06" r="13.13"/><circle class="cls-3" cx="1368.41" cy="800.39" r="13.13"/><circle class="cls-3" cx="1516.8" cy="177.56" r="13.13"/><circle class="cls-3" cx="1243.42" cy="521.58" r="13.13"/><circle class="cls-3" cx="57.84" cy="371.99" r="13.13"/><circle class="cls-3" cx="1049.15" cy="276.58" r="13.13"/><circle class="cls-4" cx="509.19" cy="1161.77" r="2.57"/><circle class="cls-7" cx="509.19" cy="1161.77" r="5.74"/><circle class="cls-2" cx="603.38" cy="910.43" r="11.47"/><circle class="cls-2" cx="500.74" cy="1011.57" r="11.47"/><circle class="cls-2" cx="620.14" cy="1155.88" r="11.47"/><circle class="cls-2" cx="457.11" cy="288.51" r="11.47"/><circle class="cls-2" cx="339.37" cy="394.78" r="11.47"/><circle class="cls-2" cx="507.38" cy="467.99" r="11.47"/><circle class="cls-2" cx="460.28" cy="742.12" r="11.47"/><circle class="cls-2" cx="260.57" cy="591.17" r="11.47"/><circle class="cls-2" cx="795.55" cy="286.09" r="11.47"/><circle class="cls-2" cx="795.55" cy="404.29" r="11.47"/><circle class="cls-2" cx="216.19" cy="934.44" r="11.47"/><circle class="cls-2" cx="645.65" cy="722.65" r="11.47"/><circle class="cls-2" cx="421.33" cy="869.83" r="11.47"/><circle class="cls-2" cx="763.39" cy="807.94" r="11.47"/><circle class="cls-2" cx="180.87" cy="79.44" r="11.47"/><circle class="cls-2" cx="478.85" cy="21.47" r="11.47"/><circle class="cls-2" cx="658.63" cy="98.61" r="11.47"/><circle class="cls-2" cx="736.37" cy="1022.74" r="11.47"/><circle class="cls-2" cx="703.01" cy="173.94" r="11.47"/><circle class="cls-2" cx="327.89" cy="185.86" r="11.47"/><circle class="cls-2" cx="866.04" cy="586.19" r="11.47"/><circle class="cls-2" cx="162.75" cy="410.18" r="11.47"/><circle class="cls-3" cx="603.38" cy="910.43" r="5.74"/><circle class="cls-3" cx="500.74" cy="1011.57" r="5.74"/><circle class="cls-3" cx="620.14" cy="1155.88" r="5.74"/><circle class="cls-3" cx="457.11" cy="288.51" r="5.74"/><circle class="cls-3" cx="339.37" cy="394.78" r="5.74"/><circle class="cls-3" cx="507.38" cy="467.99" r="5.74"/><circle class="cls-3" cx="460.28" cy="742.12" r="5.74"/><circle class="cls-3" cx="260.57" cy="591.17" r="5.74"/><circle class="cls-3" cx="795.55" cy="286.09" r="5.74"/><circle class="cls-3" cx="795.55" cy="404.29" r="5.74"/><circle class="cls-3" cx="216.19" cy="934.44" r="5.74"/><circle class="cls-3" cx="645.65" cy="722.65" r="5.74"/><circle class="cls-3" cx="421.33" cy="869.83" r="5.74" transform="translate(-300.8 227.45) rotate(-22.5)"/><circle class="cls-3" cx="763.39" cy="807.94" r="5.74"/><circle class="cls-3" cx="180.87" cy="79.44" r="5.74"/><circle class="cls-3" cx="478.85" cy="21.47" r="5.74"/><circle class="cls-3" cx="658.63" cy="98.61" r="5.74"/><circle class="cls-3" cx="736.37" cy="1022.74" r="5.74"/><circle class="cls-3" cx="703.01" cy="173.94" r="5.74"/><circle class="cls-3" cx="327.89" cy="185.86" r="5.74"/><circle class="cls-3" cx="866.04" cy="586.19" r="5.74"/><circle class="cls-3" cx="162.75" cy="410.18" r="5.74"/><circle class="cls-4" cx="603.38" cy="910.43" r="5.74"/><circle class="cls-4" cx="507.38" cy="467.99" r="5.74"/><circle class="cls-4" cx="460.28" cy="742.12" r="5.74"/><circle class="cls-4" cx="736.37" cy="1022.74" r="5.74"/><circle class="cls-4" cx="703.01" cy="173.94" r="5.74"/><circle class="cls-4" cx="327.89" cy="185.86" r="5.74"/><circle class="cls-4" cx="866.04" cy="586.19" r="5.74"/><circle class="cls-4" cx="162.75" cy="410.18" r="5.74"/><circle class="cls-4" cx="500.74" cy="1011.57" r="5.74"/><circle class="cls-4" cx="620.14" cy="1155.88" r="5.74"/><circle class="cls-4" cx="457.11" cy="288.51" r="5.74"/><circle class="cls-4" cx="795.55" cy="286.09" r="5.74"/><circle class="cls-4" cx="645.65" cy="722.65" r="5.74"/><circle class="cls-4" cx="180.87" cy="79.44" r="5.74"/><circle class="cls-4" cx="658.63" cy="98.61" r="5.74"/><circle class="cls-4" cx="339.37" cy="394.78" r="5.74"/><circle class="cls-4" cx="260.57" cy="591.17" r="5.74"/><circle class="cls-4" cx="795.55" cy="404.29" r="5.74"/><circle class="cls-4" cx="216.19" cy="934.44" r="5.74"/><circle class="cls-4" cx="421.33" cy="869.83" r="5.74" transform="translate(-300.8 227.45) rotate(-22.5)"/><circle class="cls-4" cx="763.39" cy="807.94" r="5.74"/><circle class="cls-3" cx="394.01" cy="377.42" r="3.77"/><circle class="cls-3" cx="394.01" cy="145.4" r="3.77"/><circle class="cls-3" cx="805.51" cy="878.28" r="3.77"/><circle class="cls-3" cx="460.88" cy="515.84" r="3.77"/><circle class="cls-3" cx="525.79" cy="926.29" r="3.77"/><circle class="cls-3" cx="300.12" cy="373.49" r="3.77"/><circle class="cls-3" cx="212.11" cy="302.55" r="3.77"/><circle class="cls-3" cx="836.3" cy="1186.23" r="3.77"/><circle class="cls-3" cx="615.61" cy="1126.9" r="3.77"/><circle class="cls-3" cx="586.48" cy="1077.39" r="3.77"/><circle class="cls-3" cx="666.18" cy="866.81" r="3.77"/><circle class="cls-3" cx="415.9" cy="657.74" r="3.77"/><circle class="cls-3" cx="402.31" cy="595.85" r="3.77"/><circle class="cls-3" cx="615.61" cy="669.06" r="3.77"/><circle class="cls-3" cx="832.53" cy="611.85" r="3.77"/><circle class="cls-3" cx="858.95" cy="824.39" r="3.77"/><circle class="cls-3" cx="310.99" cy="908.17" r="3.77"/><circle class="cls-3" cx="305.7" cy="1181.55" r="3.77"/><circle class="cls-3" cx="201.09" cy="639.63" r="3.77"/><circle class="cls-3" cx="840.08" cy="210.01" r="3.77"/><circle class="cls-3" cx="859.1" cy="511.32" r="3.77"/><circle class="cls-3" cx="730.03" cy="429.5" r="3.77"/><circle class="cls-3" cx="859.1" cy="53.63" r="3.77"/><circle class="cls-3" cx="576.67" cy="85.78" r="3.77"/><circle class="cls-5" cx="472.21" cy="240.05" r="3.77"/><circle class="cls-5" cx="696.52" cy="978.51" r="3.77"/><circle class="cls-5" cx="714.79" cy="884.62" r="3.77"/><circle class="cls-5" cx="487.6" cy="974.74" r="3.77"/><circle class="cls-5" cx="415.9" cy="1115.58" r="3.77"/><circle class="cls-5" cx="327.89" cy="459.99" r="3.77"/><circle class="cls-5" cx="351.59" cy="304.66" r="3.77"/><circle class="cls-5" cx="432.2" cy="236.73" r="3.77"/><circle class="cls-5" cx="733.51" cy="1177.47" r="3.77"/><circle class="cls-5" cx="317.78" cy="232.81" r="3.77"/><circle class="cls-5" cx="832.53" cy="1069.54" r="3.77"/><circle class="cls-5" cx="242.76" cy="499.39" r="3.77"/><circle class="cls-5" cx="506.32" cy="53.63" r="3.77"/><circle class="cls-5" cx="386.77" cy="882.96" r="3.77"/><circle class="cls-5" cx="836.3" cy="728.54" r="3.77"/><circle class="cls-5" cx="733.51" cy="719.78" r="3.77"/><circle class="cls-5" cx="520.51" cy="742.12" r="3.77"/><circle class="cls-5" cx="607.16" cy="839.03" r="3.77"/><circle class="cls-5" cx="586.48" cy="619.7" r="3.77"/><circle class="cls-5" cx="242.76" cy="41.7" r="3.77"/><circle class="cls-5" cx="377.11" cy="789.07" r="3.77"/><circle class="cls-5" cx="272.8" cy="956.48" r="3.77"/><circle class="cls-5" cx="201.09" cy="1097.31" r="3.77"/><circle class="cls-5" cx="171.96" cy="864.7" r="3.77"/><circle class="cls-5" cx="305.7" cy="723.86" r="3.77"/><circle class="cls-5" cx="223.89" cy="85.78" r="3.77"/><circle class="cls-5" cx="746.64" cy="377.42" r="3.77"/><circle class="cls-5" cx="746.64" cy="145.4" r="3.77"/><circle class="cls-5" cx="652.9" cy="373.49" r="3.77"/><circle class="cls-5" cx="564.89" cy="302.55" r="3.77"/><circle class="cls-5" cx="670.41" cy="232.81" r="3.77"/><circle class="cls-5" cx="595.38" cy="499.39" r="3.77"/><circle class="cls-5" cx="595.38" cy="41.7" r="3.77"/><circle class="cls-2" cx="395.67" cy="205.03" r="22.34"/><circle class="cls-2" cx="757.51" cy="1068.48" r="22.34"/><circle class="cls-2" cx="302.84" cy="989.08" r="22.34"/><circle class="cls-2" cx="575.46" cy="660.61" r="22.34"/><circle class="cls-2" cx="625.42" cy="466.48" r="22.34"/><circle class="cls-2" cx="729.43" cy="236.28" r="22.34"/><circle class="cls-6" cx="395.67" cy="205.03" r="10.26"/><circle class="cls-6" cx="757.51" cy="1068.48" r="10.26"/><circle class="cls-6" cx="302.84" cy="989.08" r="10.26"/><circle class="cls-6" cx="575.46" cy="660.61" r="10.26"/><circle class="cls-6" cx="625.42" cy="466.48" r="10.26"/><circle class="cls-6" cx="729.43" cy="236.28" r="10.26"/><circle class="cls-2" cx="399.3" cy="110.08" r="19.32"/><circle class="cls-2" cx="251.06" cy="732.91" r="19.32"/><circle class="cls-2" cx="524.28" cy="389.04" r="19.32"/><circle class="cls-2" cx="396.43" cy="985.01" r="19.32"/><circle class="cls-2" cx="718.56" cy="633.89" r="19.32"/><circle class="cls-2" cx="749.05" cy="912.7" r="19.32"/><circle class="cls-3" cx="399.3" cy="110.08" r="13.13"/><circle class="cls-3" cx="251.06" cy="732.91" r="13.13"/><circle class="cls-3" cx="524.28" cy="389.04" r="13.13"/><circle class="cls-3" cx="396.43" cy="985.01" r="13.13"/><circle class="cls-2" cx="83.65" cy="626.34" r="11.47"/><circle class="cls-2" cx="40.78" cy="983.8" r="11.47" transform="translate(-943.2 1019.83) rotate(-89.72)"/><circle class="cls-3" cx="83.64" cy="626.34" r="5.74" transform="translate(-545.37 686.74) rotate(-87.88)"/><circle class="cls-3" cx="40.78" cy="983.8" r="5.74" transform="translate(-943.2 1019.83) rotate(-89.72)"/><circle class="cls-4" cx="83.64" cy="626.34" r="5.74" transform="translate(-545.37 686.74) rotate(-87.88)"/><circle class="cls-4" cx="40.78" cy="983.8" r="5.74" transform="translate(-943.2 1019.83) rotate(-89.72)"/><circle class="cls-3" cx="61.31" cy="1015.8" r="3.77"/><circle class="cls-3" cx="45.16" cy="736.39" r="3.77"/><circle class="cls-5" cx="88.94" cy="956.78" r="3.77"/><circle class="cls-5" cx="63.42" cy="521.58" r="3.77"/><circle class="cls-2" cx="119.39" cy="792.7" r="22.34" transform="translate(-679.49 859.09) rotate(-86.19)"/><circle class="cls-6" cx="119.43" cy="792.69" r="10.26"/><circle class="cls-2" cx="65.39" cy="1095.15" r="19.32" transform="translate(-22.33 1.56) rotate(-1.17)"/><circle class="cls-2" cx="47.57" cy="579.52" r="19.32" transform="translate(-11.81 1.09) rotate(-1.17)"/><circle class="cls-3" cx="65.39" cy="1095.15" r="13.13" transform="translate(-22.33 1.56) rotate(-1.17)"/><circle class="cls-3" cx="47.57" cy="579.55" r="13.13"/><circle class="cls-3" cx="718.56" cy="633.89" r="13.13"/><circle class="cls-3" cx="749.05" cy="912.7" r="13.13"/><path class="cls-8" d="M1137.46,645.06l99.78,42.27"/><path class="cls-9" d="M519.6,187.07l97.67,46.79"/><path class="cls-10" d="M223.28,384.67l86.5,65.21"/><path class="cls-11" d="M1020.77,331.23l92.08,57.21"/></svg>