<?xml version="1.0" encoding="utf-8"?>
<!-- Generator: Adobe Illustrator 25.1.0, SVG Export Plug-In . SVG Version: 6.00 Build 0)  -->
<svg version="1.1" id="circuits-pattern" xmlns="http://www.w3.org/2000/svg" xmlns:xlink="http://www.w3.org/1999/xlink" x="0px"
	 y="0px" width="1031px" height="658px" viewBox="0 0 1031 658" enable-background="new 0 0 1031 658" xml:space="preserve">
<g id="circuits-path-group">
	<defs>
		<rect id="circuits-path" x="0.5" y="0.5" width="1030" height="657"/>
	</defs>
	<clipPath id="circuits-path_1_">
		<use xlink:href="#circuits_x002D_path"  overflow="visible"/>
	</clipPath>
	<g id="circuits-group" clip-path="url(#circuits-path_1_)">
		<path fill="#FFFFFF" d="M724,240.2c-3.6,0-6.5,2.9-6.5,6.5c0,3.6,2.9,6.5,6.5,6.5c3.1,0,5.6-2.1,6.3-5H868l0.4-0.3
			c0.3-0.2,0.7-0.7,0.7-1.5v-107l-0.9-0.4c-0.4-0.2-0.8-0.2-1.1-0.1l-48,0V15.6l0.1-0.6l-0.9-1h-12.8c-0.7-2.9-3.3-5-6.3-5
			c-3.6,0-6.5,2.9-6.5,6.5c0,3.6,2.9,6.5,6.5,6.5c3.1,0,5.6-2.1,6.3-5H816v123l0,0.1l0,0.1c0,0.2,0,0.7,0.3,1.2l0.4,0.7H866v103.2
			H730.4C729.7,242.3,727.1,240.2,724,240.2z M799,18.9c-1.9,0-3.5-1.6-3.5-3.5c0-1.9,1.6-3.5,3.5-3.5s3.5,1.6,3.5,3.5
			C802.5,17.4,801,18.9,799,18.9z M724,250.2c-1.9,0-3.5-1.6-3.5-3.5c0-1.9,1.6-3.5,3.5-3.5s3.5,1.6,3.5,3.5
			C727.5,248.6,726,250.2,724,250.2z"/>
		<path fill="#FFFFFF" d="M799-3.1c3.1,0,5.6-2.1,6.3-5H841v123.9l0.3,0.4c0.2,0.3,0.6,0.7,1.3,0.7c0,0,0,0,0.1,0H891v151.4
			c-0.1,0.5,0,1,0,1.4c0,0.1,0,0.3,0,0.5H730.4c-0.7-2.9-3.3-5-6.3-5c-3.6,0-6.5,2.9-6.5,6.5c0,3.6,2.9,6.5,6.5,6.5
			c3.1,0,5.6-2.1,6.3-5h160.4c0.3,0.1,0.6,0.1,0.9,0.1c0.6,0,1.1-0.2,1.5-0.5c1.1-0.8,1-2.2,0.9-3.3c0-0.4,0-0.7,0-1l0-152.2l0-2.4
			h-50V-9.4l0.1-1.1l-1.3-0.5h-37.5c-0.7-2.9-3.3-5-6.3-5c-3.6,0-6.5,2.9-6.5,6.5C792.5-6,795.5-3.1,799-3.1z M724,275.2
			c-1.9,0-3.5-1.6-3.5-3.5c0-1.9,1.6-3.5,3.5-3.5s3.5,1.6,3.5,3.5C727.5,273.6,726,275.2,724,275.2z M799-13.1
			c1.9,0,3.5,1.6,3.5,3.5c0,1.9-1.6,3.5-3.5,3.5s-3.5-1.6-3.5-3.5C795.5-11.5,797.1-13.1,799-13.1z"/>
		<path fill="#FFFFFF" d="M801.4-32c-0.6,0.6-1.5,0.9-2.4,0.9c-0.9,0-1.7-0.4-2.4-0.9h-3.6c1,2.3,3.3,3.9,6,3.9c2.7,0,5-1.6,6-3.9
			H801.4z"/>
		<path fill="#FFFFFF" d="M919,233.9V91.7c0.2-0.9-0.1-1.6-0.3-1.9c-0.7-0.9-1.8-0.8-2.5-0.8c-0.2,0-0.4,0-0.5,0l-46.6,0V-32h-3
			V90.1c-0.1,0.4,0.1,0.8,0.3,1.2c0.2,0.3,0.7,0.6,1.4,0.6h47.6c0.2,0,0.5,0,0.7,0v141.9c-2.9,0.7-5,3.3-5,6.3
			c0,3.6,2.9,6.5,6.5,6.5s6.5-2.9,6.5-6.5C924,237.1,921.9,234.6,919,233.9z M917.5,243.7c-1.9,0-3.5-1.6-3.5-3.5
			c0-1.9,1.6-3.5,3.5-3.5s3.5,1.6,3.5,3.5C921,242.1,919.5,243.7,917.5,243.7z"/>
		<path fill="#FFFFFF" d="M944,233.9V66.6l0-0.9c0-0.2,0-0.6-0.2-1l-0.4-0.8H894V-32h-3v97.2l-0.2,0.6l0.5,0.6l0.5,0.6H941v166.9
			c-2.9,0.7-5,3.3-5,6.3c0,3.6,2.9,6.5,6.5,6.5s6.5-2.9,6.5-6.5C949,237.1,946.9,234.6,944,233.9z M942.5,243.7
			c-1.9,0-3.5-1.6-3.5-3.5c0-1.9,1.6-3.5,3.5-3.5s3.5,1.6,3.5,3.5C946,242.1,944.5,243.7,942.5,243.7z"/>
		<path fill="#FFFFFF" d="M969,233.9V40.5l0-0.1c0-0.6-0.4-1.1-0.9-1.3l-0.4-0.1H919V-32h-3v71.5l0.1,2.4H966v191.9
			c-2.9,0.7-5,3.3-5,6.3c0,3.6,2.9,6.5,6.5,6.5s6.5-2.9,6.5-6.5C974,237.1,971.9,234.6,969,233.9z M967.5,243.7
			c-1.9,0-3.5-1.6-3.5-3.5c0-1.9,1.6-3.5,3.5-3.5s3.5,1.6,3.5,3.5C971,242.1,969.5,243.7,967.5,243.7z"/>
		<path fill="#FFFFFF" d="M944,8.9V-32h-3l0,40.9c-2.9,0.7-5,3.3-5,6.3c0,3.6,2.9,6.5,6.5,6.5s6.5-2.9,6.5-6.5
			C949,12.1,946.9,9.6,944,8.9z M942.5,18.7c-1.9,0-3.5-1.6-3.5-3.5c0-1.9,1.6-3.5,3.5-3.5s3.5,1.6,3.5,3.5
			C946,17.1,944.5,18.7,942.5,18.7z"/>
		<path fill="#FFFFFF" d="M969,8.9V-32h-3V8.9c-2.9,0.7-5,3.3-5,6.3c0,3.6,2.9,6.5,6.5,6.5s6.5-2.9,6.5-6.5
			C974,12.1,971.9,9.6,969,8.9z M967.5,18.7c-1.9,0-3.5-1.6-3.5-3.5c0-1.9,1.6-3.5,3.5-3.5s3.5,1.6,3.5,3.5
			C971,17.1,969.5,18.7,967.5,18.7z"/>
		<path fill="#FFFFFF" d="M994,8.9V-32h-3V8.9c-2.9,0.7-5,3.3-5,6.3c0,3.6,2.9,6.5,6.5,6.5s6.5-2.9,6.5-6.5
			C999,12.1,996.9,9.6,994,8.9z M992.5,18.7c-1.9,0-3.5-1.6-3.5-3.5c0-1.9,1.6-3.5,3.5-3.5s3.5,1.6,3.5,3.5
			C996,17.1,994.5,18.7,992.5,18.7z"/>
		<path fill="#FFFFFF" d="M766-32v96.8l-77.6,72.1c-1.1-0.7-2.3-1.1-3.6-1.1c-1.6,0-3.2,0.6-4.4,1.7c-1.3,1.2-2,2.8-2.1,4.5
			c-0.1,1.7,0.6,3.4,1.7,4.7c1.2,1.3,3,2.1,4.8,2.1c1.6,0,3.2-0.6,4.4-1.7c2.2-2.1,2.7-5.4,1.2-8l77.2-71.7l0.8-0.7
			c0.5-0.5,0.6-1,0.6-1.4V-32H766z M687.2,144.8c-0.6,0.6-1.5,0.9-2.4,0.9c-1,0-1.9-0.4-2.6-1.1c-0.6-0.7-1-1.6-0.9-2.5
			c0-0.9,0.4-1.8,1.1-2.4c0.6-0.6,1.5-0.9,2.4-0.9c1,0,1.9,0.4,2.6,1.1C688.7,141.3,688.6,143.5,687.2,144.8z"/>
		<path fill="#FFFFFF" d="M744-32h-3v84.3c0,0,0,0,0,0L676,111.9c-1.1-0.7-2.3-1.1-3.6-1.1c-1.6,0-3.2,0.6-4.4,1.7
			c-2.6,2.4-2.8,6.5-0.4,9.2c1.2,1.3,3,2.1,4.8,2.1c1.6,0,3.2-0.6,4.4-1.7c2.3-2.1,2.7-5.4,1.3-8l65-59.6l0.7-0.7l0.1-0.2
			c0.2-0.5,0.2-0.9,0.2-1.2L744-32z M674.7,119.9c-0.6,0.6-1.5,0.9-2.4,0.9c-1,0-1.9-0.4-2.6-1.1c-1.3-1.4-1.2-3.6,0.2-4.9
			c0.6-0.6,1.5-0.9,2.4-0.9c1,0,1.9,0.4,2.6,1.1C676.2,116.4,676.1,118.6,674.7,119.9z"/>
		<path fill="#FFFFFF" d="M716-32v71.8L663.6,87c-1.1-0.7-2.4-1.2-3.7-1.2c-1.6,0-3.2,0.6-4.3,1.7c-1.3,1.2-2.1,2.8-2.1,4.5
			c-0.1,1.7,0.5,3.4,1.7,4.7c1.2,1.4,3,2.2,4.8,2.2c1.6,0,3.2-0.6,4.3-1.7c2.3-2.1,2.8-5.4,1.4-7.9l52.8-47.5
			c0.1-0.1,0.2-0.2,0.3-0.3l0.3-0.4V-32H716z M662.2,94.9c-1.4,1.2-3.7,1.1-4.9-0.3c-0.6-0.7-0.9-1.6-0.9-2.5c0-0.9,0.5-1.8,1.2-2.4
			c0.6-0.6,1.5-0.9,2.3-0.9c1,0,1.9,0.4,2.6,1.2C663.8,91.4,663.6,93.7,662.2,94.9z"/>
		<path fill="#FFFFFF" d="M694-32h-3v59.3L642,70.2H569V28.3c2.9-0.7,5-3.3,5-6.3c0-3.6-2.9-6.5-6.5-6.5c-3.6,0-6.5,2.9-6.5,6.5
			c0,3.1,2.1,5.6,5,6.3v43.3l-0.1,0.6l0.5,0.6c0.1,0.1,0.4,0.4,0.9,0.5l0.1,0c0.1,0,0.1,0,0.2,0h74.7c0,0,0.1,0,0.1,0
			c0.5,0,0.9-0.2,1.1-0.4l49.6-43.4l0.6-0.5l0.1-0.4c0.1-0.4,0.1-0.7,0.1-0.8L694-32z M567.5,25.4c-1.9,0-3.5-1.6-3.5-3.5
			c0-1.9,1.6-3.5,3.5-3.5s3.5,1.6,3.5,3.5C571,23.9,569.5,25.4,567.5,25.4z"/>
		<path fill="#FFFFFF" d="M799,46.9c0-3.6-2.9-6.5-6.5-6.5s-6.5,2.9-6.5,6.5c0,3.1,2.1,5.6,5,6.3v110.9l0.1,2.8h38.6
			c0.7,2.9,3.3,5,6.3,5c3.6,0,6.5-2.9,6.5-6.5c0-3.6-2.9-6.5-6.5-6.5c-3.1,0-5.6,2.1-6.3,5H794V53.3C796.9,52.6,799,50,799,46.9z
			 M836,161.9c1.9,0,3.5,1.6,3.5,3.5c0,1.9-1.6,3.5-3.5,3.5s-3.5-1.6-3.5-3.5C832.5,163.5,834.1,161.9,836,161.9z M789,46.9
			c0-1.9,1.6-3.5,3.5-3.5s3.5,1.6,3.5,3.5c0,1.9-1.6,3.5-3.5,3.5S789,48.9,789,46.9z"/>
		<path fill="#FFFFFF" d="M774,96.9c0-3.6-2.9-6.5-6.5-6.5s-6.5,2.9-6.5,6.5c0,3.1,2.1,5.6,5,6.3v87c0,1,0.6,1.5,1.1,1.7l0.2,0.1
			h62.4c0.7,2.9,3.3,5,6.3,5c3.6,0,6.5-2.9,6.5-6.5c0-3.6-2.9-6.5-6.5-6.5c-3.1,0-5.6,2.1-6.3,5H769v-85.7
			C771.9,102.6,774,100,774,96.9z M836,186.9c1.9,0,3.5,1.6,3.5,3.5c0,1.9-1.6,3.5-3.5,3.5s-3.5-1.6-3.5-3.5
			C832.5,188.5,834.1,186.9,836,186.9z M764,96.9c0-1.9,1.6-3.5,3.5-3.5s3.5,1.6,3.5,3.5c0,1.9-1.6,3.5-3.5,3.5S764,98.9,764,96.9z"
			/>
		<path fill="#FFFFFF" d="M749,121.9c0-3.6-2.9-6.5-6.5-6.5s-6.5,2.9-6.5,6.5c0,3.1,2.1,5.6,5,6.3v87c0,0.5,0.2,1,0.5,1.3l0.4,0.4
			h87.7c0.7,2.9,3.3,5,6.3,5c3.6,0,6.5-2.9,6.5-6.5c0-3.6-2.9-6.5-6.5-6.5c-3.1,0-5.6,2.1-6.3,5H744v-85.7
			C746.9,127.6,749,125,749,121.9z M836,211.9c1.9,0,3.5,1.6,3.5,3.5c0,1.9-1.6,3.5-3.5,3.5s-3.5-1.6-3.5-3.5
			C832.5,213.5,834.1,211.9,836,211.9z M739,121.9c0-1.9,1.6-3.5,3.5-3.5s3.5,1.6,3.5,3.5c0,1.9-1.6,3.5-3.5,3.5
			S739,123.9,739,121.9z"/>
		<path fill="#FFFFFF" d="M1048,188.9h-54V53.3c2.9-0.7,5-3.3,5-6.3c0-3.6-2.9-6.5-6.5-6.5s-6.5,2.9-6.5,6.5c0,3.1,2.1,5.6,5,6.3
			v135.6l0,1.4l0,0.8l1.3,1l0.5-0.2h55.2V188.9z M992.5,50.4c-1.9,0-3.5-1.6-3.5-3.5c0-1.9,1.6-3.5,3.5-3.5s3.5,1.6,3.5,3.5
			C996,48.9,994.5,50.4,992.5,50.4z"/>
		<path fill="#FFFFFF" d="M524,221.9c3.1,0,5.6-2.1,6.3-5h188.2l0.4-1c0.1-0.3,0.1-0.6,0.1-0.8v-61.9c2.9-0.7,5-3.3,5-6.3
			c0-3.6-2.9-6.5-6.5-6.5s-6.5,2.9-6.5,6.5c0,3.1,2.1,5.6,5,6.3v60.7H530.4c-0.7-2.9-3.3-5-6.3-5c-3.6,0-6.5,2.9-6.5,6.5
			C517.5,219,520.5,221.9,524,221.9z M714,146.9c0-1.9,1.6-3.5,3.5-3.5s3.5,1.6,3.5,3.5c0,1.9-1.6,3.5-3.5,3.5S714,148.9,714,146.9z
			 M524,211.9c1.9,0,3.5,1.6,3.5,3.5c0,1.9-1.6,3.5-3.5,3.5s-3.5-1.6-3.5-3.5C520.5,213.5,522.1,211.9,524,211.9z"/>
		<path fill="#FFFFFF" d="M524,196.9c3.1,0,5.6-2.1,6.3-5h149.4c0.7,2.9,3.3,5,6.3,5c3.6,0,6.5-2.9,6.5-6.5c0-3.6-2.9-6.5-6.5-6.5
			c-3.1,0-5.6,2.1-6.3,5H530.4c-0.7-2.9-3.3-5-6.3-5c-3.6,0-6.5,2.9-6.5,6.5C517.5,194,520.5,196.9,524,196.9z M686,186.9
			c1.9,0,3.5,1.6,3.5,3.5c0,1.9-1.6,3.5-3.5,3.5s-3.5-1.6-3.5-3.5C682.5,188.5,684.1,186.9,686,186.9z M524,186.9
			c1.9,0,3.5,1.6,3.5,3.5c0,1.9-1.6,3.5-3.5,3.5s-3.5-1.6-3.5-3.5C520.5,188.5,522.1,186.9,524,186.9z"/>
		<path fill="#FFFFFF" d="M661,163.9H530.4c-0.7-2.9-3.3-5-6.3-5c-3.6,0-6.5,2.9-6.5,6.5c0,3.6,2.9,6.5,6.5,6.5c3.1,0,5.6-2.1,6.3-5
			H661c0.7,2.9,3.3,5,6.3,5c3.6,0,6.5-2.9,6.5-6.5c0-3.6-2.9-6.5-6.5-6.5C664.2,158.9,661.6,161.1,661,163.9z M524,168.9
			c-1.9,0-3.5-1.6-3.5-3.5c0-1.9,1.6-3.5,3.5-3.5s3.5,1.6,3.5,3.5C527.5,167.4,526,168.9,524,168.9z M667.3,161.9
			c1.9,0,3.5,1.6,3.5,3.5c0,1.9-1.6,3.5-3.5,3.5s-3.5-1.6-3.5-3.5C663.8,163.5,665.4,161.9,667.3,161.9z"/>
		<path fill="#FFFFFF" d="M424,221.9c3.1,0,5.6-2.1,6.3-5h61.2l1.8,0l0.8-1.1v-74h154.4c0.7,2.9,3.3,5,6.3,5c3.6,0,6.5-2.9,6.5-6.5
			c0-3.6-2.9-6.5-6.5-6.5c-3.1,0-5.6,2.1-6.3,5H494.4l-2.5,0l-0.9,1.3l0.2,0.5v73.2h-60.7c-0.7-2.9-3.3-5-6.3-5
			c-3.6,0-6.5,2.9-6.5,6.5C417.5,219,420.5,221.9,424,221.9z M654.8,136.9c1.9,0,3.5,1.6,3.5,3.5c0,1.9-1.6,3.5-3.5,3.5
			s-3.5-1.6-3.5-3.5C651.3,138.5,652.9,136.9,654.8,136.9z M424,211.9c1.9,0,3.5,1.6,3.5,3.5c0,1.9-1.6,3.5-3.5,3.5
			c-1.9,0-3.5-1.6-3.5-3.5C420.5,213.5,422.1,211.9,424,211.9z"/>
		<path fill="#FFFFFF" d="M468.5,191.6c0.2-0.2,0.5-0.6,0.5-1.2v-73.4h160.7c0.7,2.9,3.3,5,6.3,5c3.6,0,6.5-2.9,6.5-6.5
			c0-3.6-2.9-6.5-6.5-6.5c-3.1,0-5.6,2.1-6.3,5h-142l-20,0l-0.8,0l-0.9,1.3l0.2,0.5v73.2h-69.8c-0.7-2.9-3.3-5-6.3-5
			c-3.6,0-6.5,2.9-6.5,6.5c0,3.6,2.9,6.5,6.5,6.5c3.1,0,5.6-2.1,6.3-5h71.8L468.5,191.6z M636,111.9c1.9,0,3.5,1.6,3.5,3.5
			c0,1.9-1.6,3.5-3.5,3.5s-3.5-1.6-3.5-3.5C632.5,113.5,634.1,111.9,636,111.9z M390,193.9c-1.9,0-3.5-1.6-3.5-3.5
			c0-1.9,1.6-3.5,3.5-3.5c1.9,0,3.5,1.6,3.5,3.5C393.5,192.4,391.9,193.9,390,193.9z"/>
		<path fill="#FFFFFF" d="M474,83.9c-3.6,0-6.5,2.9-6.5,6.5c0,3.6,2.9,6.5,6.5,6.5c3.1,0,5.6-2.1,6.3-5h124.4c0.7,2.9,3.3,5,6.3,5
			c3.6,0,6.5-2.9,6.5-6.5c0-3.6-2.9-6.5-6.5-6.5c-3.1,0-5.6,2.1-6.3,5H480.4C479.7,86.1,477.1,83.9,474,83.9z M611,86.9
			c1.9,0,3.5,1.6,3.5,3.5c0,1.9-1.6,3.5-3.5,3.5s-3.5-1.6-3.5-3.5C607.5,88.5,609.1,86.9,611,86.9z M474,93.9
			c-1.9,0-3.5-1.6-3.5-3.5c0-1.9,1.6-3.5,3.5-3.5c1.9,0,3.5,1.6,3.5,3.5C477.5,92.4,476,93.9,474,93.9z"/>
		<path fill="#FFFFFF" d="M669-32h-3v1l0,45.8l-24.1,24.1H594v-49.9l-1.4-0.1c-0.1,0-0.2,0-0.3,0h-162c-0.7-2.9-3.3-5-6.3-5
			c-3.6,0-6.5,2.9-6.5,6.5c0,3.6,2.9,6.5,6.5,6.5c3.1,0,5.6-2.1,6.3-5H591l0,47.8c0,0.1,0,0.1,0,0.2c0,0.2,0,0.6,0.1,0.9l0.3,1.1
			l50.6,0l0.1,0c0,0,0.1,0,0.1,0c0.2,0,0.3,0,0.5,0l0.5-0.1l25.7-25.7l0.1-0.5c0-0.2,0-0.3,0-0.5l-1.5,0l1.5-0.1V-32z M424-6.1
			c-1.9,0-3.5-1.6-3.5-3.5c0-1.9,1.6-3.5,3.5-3.5c1.9,0,3.5,1.6,3.5,3.5C427.5-7.6,426-6.1,424-6.1z"/>
		<path fill="#FFFFFF" d="M641-32V7.7h-22V-32h-3V8.9l-0.2,0.6l0.5,0.6c0.2,0.2,0.6,0.6,1.2,0.6c0,0,0.1,0,0.1,0h25.9l0.4-1
			c0.1-0.3,0.1-0.6,0.1-0.8V-32H641z"/>
		<path fill="#FFFFFF" d="M426.4-32c-0.6,0.6-1.5,0.9-2.4,0.9c-0.9,0-1.7-0.4-2.4-0.9h-3.6c1,2.3,3.3,3.9,6,3.9c2.7,0,5-1.6,6-3.9
			H426.4z"/>
		<path fill="#FFFFFF" d="M536,8.9c-3.1,0-5.6,2.1-6.3,5H394V-32h-3v43.4l0,4.7l0.5,0.4c0.2,0.1,0.5,0.3,0.9,0.4l0.1,0
			c0,0,0,0,0.1,0c0,0,0,0,0.1,0h137.1c0.7,2.9,3.3,5,6.3,5c3.6,0,6.5-2.9,6.5-6.5C542.5,11.9,539.6,8.9,536,8.9z M536,18.9
			c-1.9,0-3.5-1.6-3.5-3.5c0-1.9,1.6-3.5,3.5-3.5s3.5,1.6,3.5,3.5C539.5,17.4,538,18.9,536,18.9z"/>
		<path fill="#FFFFFF" d="M529.7,41.9c0.7,2.9,3.3,5,6.3,5c3.6,0,6.5-2.9,6.5-6.5c0-3.6-2.9-6.5-6.5-6.5c-3.1,0-5.6,2.1-6.3,5H417.9
			l-0.1,0c-0.6,0-1.1,0.2-1.4,0.6l-0.4,0.4v87.7c-2.9,0.7-5,3.3-5,6.3c0,3.6,2.9,6.5,6.5,6.5c3.6,0,6.5-2.9,6.5-6.5
			c0-3.1-2.1-5.6-5-6.3V41.9H529.7z M536,36.9c1.9,0,3.5,1.6,3.5,3.5c0,1.9-1.6,3.5-3.5,3.5s-3.5-1.6-3.5-3.5
			C532.5,38.5,534.1,36.9,536,36.9z M421,133.9c0,1.9-1.6,3.5-3.5,3.5c-1.9,0-3.5-1.6-3.5-3.5c0-1.9,1.6-3.5,3.5-3.5
			C419.5,130.4,421,132,421,133.9z"/>
		<path fill="#FFFFFF" d="M1019,102.6V-32h-3l0,134.6c-2.9,0.7-5,3.3-5,6.3c0,3.6,2.9,6.5,6.5,6.5s6.5-2.9,6.5-6.5
			C1024,105.9,1021.9,103.3,1019,102.6z M1017.5,112.4c-1.9,0-3.5-1.6-3.5-3.5c0-1.9,1.6-3.5,3.5-3.5s3.5,1.6,3.5,3.5
			C1021,110.9,1019.5,112.4,1017.5,112.4z"/>
		<path fill="#FFFFFF" d="M1048,105.5c-0.9-1.4-2.3-2.4-4-2.8V-32h-3l0,134.6c-2.9,0.7-5,3.3-5,6.3c0,3.6,2.9,6.5,6.5,6.5
			c2.3,0,4.3-1.2,5.5-3V105.5z M1042.5,112.4c-1.9,0-3.5-1.6-3.5-3.5c0-1.9,1.6-3.5,3.5-3.5c1.9,0,3.5,1.6,3.5,3.5
			C1046,110.9,1044.5,112.4,1042.5,112.4z"/>
		<path fill="#FFFFFF" d="M1048,138.9h-23.9c-0.7-2.9-3.3-5-6.3-5c-3.6,0-6.5,2.9-6.5,6.5c0,3.6,2.9,6.5,6.5,6.5
			c3.1,0,5.6-2.1,6.3-5h23.9V138.9z M1017.8,143.9c-1.9,0-3.5-1.6-3.5-3.5c0-1.9,1.6-3.5,3.5-3.5s3.5,1.6,3.5,3.5
			C1021.3,142.4,1019.7,143.9,1017.8,143.9z"/>
		<path fill="#FFFFFF" d="M1048,163.9h-23.9c-0.7-2.9-3.3-5-6.3-5c-3.6,0-6.5,2.9-6.5,6.5c0,3.6,2.9,6.5,6.5,6.5
			c3.1,0,5.6-2.1,6.3-5h23.9V163.9z M1017.8,168.9c-1.9,0-3.5-1.6-3.5-3.5c0-1.9,1.6-3.5,3.5-3.5s3.5,1.6,3.5,3.5
			C1021.3,167.4,1019.7,168.9,1017.8,168.9z"/>
		<path fill="#FFFFFF" d="M1048,213.9h-55.2l-0.6-0.2l-0.6,0.5c-0.2,0.2-0.6,0.6-0.6,1.3v54.6h-60.7c-0.7-2.9-3.3-5-6.3-5
			c-3.6,0-6.5,2.9-6.5,6.5c0,3.6,2.9,6.5,6.5,6.5c3.1,0,5.6-2.1,6.3-5h62c0,0,0.1,0,0.1,0c0.2,0,0.6,0,1-0.3l0.6-0.4v-55.5h54V213.9
			z M924,275.2c-1.9,0-3.5-1.6-3.5-3.5c0-1.9,1.6-3.5,3.5-3.5s3.5,1.6,3.5,3.5C927.5,273.6,926,275.2,924,275.2z"/>
		<path fill="#FFFFFF" d="M1019,264.1v-22.2h29v-3h-31.9l0,25.2c-2.9,0.7-5,3.3-5,6.3c0,3.6,2.9,6.5,6.5,6.5s6.5-2.9,6.5-6.5
			C1024,267.4,1021.9,264.8,1019,264.1z M1017.5,273.9c-1.9,0-3.5-1.6-3.5-3.5c0-1.9,1.6-3.5,3.5-3.5s3.5,1.6,3.5,3.5
			C1021,272.4,1019.5,273.9,1017.5,273.9z"/>
		<path fill="#FFFFFF" d="M396.5,214.9c0-3.6-2.9-6.5-6.5-6.5c-3.6,0-6.5,2.9-6.5,6.5c0,3.1,2.1,5.6,5,6.3v18.6
			c-2.9,0.7-5,3.3-5,6.3c0,3.6,2.9,6.5,6.5,6.5c3.6,0,6.5-2.9,6.5-6.5c0-3.1-2.1-5.6-5-6.3v-18.6C394.3,220.6,396.5,218,396.5,214.9
			z M386.5,214.9c0-1.9,1.6-3.5,3.5-3.5c1.9,0,3.5,1.6,3.5,3.5c0,1.9-1.6,3.5-3.5,3.5C388,218.4,386.5,216.9,386.5,214.9z
			 M393.5,246.2c0,1.9-1.6,3.5-3.5,3.5c-1.9,0-3.5-1.6-3.5-3.5c0-1.9,1.6-3.5,3.5-3.5C391.9,242.7,393.5,244.3,393.5,246.2z"/>
		<path fill="#FFFFFF" d="M799,678.9c3.1,0,5.6-2.1,6.3-5H816v8.1h3v-9.4l0.1-0.6l-0.9-1h-12.8c-0.7-2.9-3.3-5-6.3-5
			c-3.6,0-6.5,2.9-6.5,6.5C792.5,676,795.5,678.9,799,678.9z M799,668.9c1.9,0,3.5,1.6,3.5,3.5c0,1.9-1.6,3.5-3.5,3.5
			s-3.5-1.6-3.5-3.5C795.5,670.5,797.1,668.9,799,668.9z"/>
		<path fill="#FFFFFF" d="M799,653.9c3.1,0,5.6-2.1,6.3-5H841V682h3v-34.4l0.1-1.1l-1.3-0.5h-37.5c-0.7-2.9-3.3-5-6.3-5
			c-3.6,0-6.5,2.9-6.5,6.5C792.5,651,795.5,653.9,799,653.9z M799,643.9c1.9,0,3.5,1.6,3.5,3.5c0,1.9-1.6,3.5-3.5,3.5
			s-3.5-1.6-3.5-3.5C795.5,645.5,797.1,643.9,799,643.9z"/>
		<path fill="#FFFFFF" d="M799,628.9c3.1,0,5.6-2.1,6.3-5H866V682h3v-61l-63.7,0c-0.7-2.9-3.3-5-6.3-5c-3.6,0-6.5,2.9-6.5,6.5
			C792.5,626,795.5,628.9,799,628.9z M799,618.9c1.9,0,3.5,1.6,3.5,3.5c0,1.9-1.6,3.5-3.5,3.5s-3.5-1.6-3.5-3.5
			C795.5,620.5,797.1,618.9,799,618.9z"/>
		<path fill="#FFFFFF" d="M799,603.9c3.1,0,5.6-2.1,6.3-5H891V682h3v-85.8l-1.2-0.3c-0.2,0-0.4,0-0.6,0l0,1.5l-0.1-1.5h-86.8
			c-0.7-2.9-3.3-5-6.3-5c-3.6,0-6.5,2.9-6.5,6.5C792.5,601,795.5,603.9,799,603.9z M799,593.9c1.9,0,3.5,1.6,3.5,3.5
			c0,1.9-1.6,3.5-3.5,3.5s-3.5-1.6-3.5-3.5C795.5,595.5,797.1,593.9,799,593.9z"/>
		<path fill="#FFFFFF" d="M799,578.9c3.1,0,5.6-2.1,6.3-5H916V682h3V571.4l-1-0.3c-0.3-0.1-0.6-0.1-0.8-0.1l0,1.5l-0.2-1.5H805.4
			c-0.7-2.9-3.3-5-6.3-5c-3.6,0-6.5,2.9-6.5,6.5C792.5,576,795.5,578.9,799,578.9z M799,568.9c1.9,0,3.5,1.6,3.5,3.5
			c0,1.9-1.6,3.5-3.5,3.5s-3.5-1.6-3.5-3.5C795.5,570.5,797.1,568.9,799,568.9z"/>
		<path fill="#FFFFFF" d="M993.5,492.4c0.1-0.1,0.4-0.3,0.5-0.7l0.1-0.2v-74.5c0-0.3,0-0.6,0-0.9l-0.1-1.4h-88.6
			c-0.7-2.9-3.3-5-6.3-5c-3.6,0-6.5,2.9-6.5,6.5c0,3.6,2.9,6.5,6.5,6.5c3.1,0,5.6-2.1,6.3-5H991v72.9l-49.8,49.8l-0.1,0.3
			c-0.1,0.3-0.1,0.7-0.1,0.8l0,124.3c-2.9,0.7-5,3.3-5,6.3c0,3.6,2.9,6.5,6.5,6.5s6.5-2.9,6.5-6.5c0-3.1-2.1-5.6-5-6.3V557l0-15.2
			l43.9-43.9L993.5,492.4z M899,419.7c-1.9,0-3.5-1.6-3.5-3.5c0-1.9,1.6-3.5,3.5-3.5s3.5,1.6,3.5,3.5
			C902.5,418.1,901,419.7,899,419.7z M946,672.2c0,1.9-1.6,3.5-3.5,3.5s-3.5-1.6-3.5-3.5c0-1.9,1.6-3.5,3.5-3.5S946,670.3,946,672.2
			z"/>
		<path fill="#FFFFFF" d="M1018.7,504.6l0.1-0.2c0.2-0.4,0.2-0.7,0.2-0.9V390.3l-0.9-0.4c-0.4-0.2-0.8-0.2-0.9-0.2l-111.9,0
			c-0.7-2.9-3.3-5-6.3-5c-3.6,0-6.5,2.9-6.5,6.5c0,3.6,2.9,6.5,6.5,6.5c3.1,0,5.6-2.1,6.3-5H1016v110.4l-49.8,49.8l-0.1,0.4
			c-0.1,0.3-0.1,0.5-0.1,0.7l1.5,0l-1.5,0.2v111.7c-2.9,0.7-5,3.3-5,6.3c0,3.6,2.9,6.5,6.5,6.5s6.5-2.9,6.5-6.5c0-3.1-2.1-5.6-5-6.3
			V583l0-28.7l37.6-37.6L1018.7,504.6z M899,394.7c-1.9,0-3.5-1.6-3.5-3.5c0-1.9,1.6-3.5,3.5-3.5s3.5,1.6,3.5,3.5
			C902.5,393.1,901,394.7,899,394.7z M971,672.2c0,1.9-1.6,3.5-3.5,3.5s-3.5-1.6-3.5-3.5c0-1.9,1.6-3.5,3.5-3.5S971,670.3,971,672.2
			z"/>
		<path fill="#FFFFFF" d="M1042.6,518.2c0.1-0.1,0.2-0.2,0.3-0.3c0.5-0.4,1.4-1.3,1.1-2.7V366.3c0-0.4-0.1-0.8-0.3-1.1l-0.6-0.6
			l-0.7,0.1h-137c-0.7-2.9-3.3-5-6.3-5c-3.6,0-6.5,2.9-6.5,6.5c0,3.6,2.9,6.5,6.5,6.5c3.1,0,5.6-2.1,6.3-5H1041v147.9
			c-0.1,0.1-0.1,0.1-0.2,0.2c-0.2,0.1-0.3,0.3-0.5,0.5l-48.6,48.6l-0.6,0.6l-0.1,0.5c0,0.2,0,0.4,0,0.5l1.5,0l-1.5,0.2v99.3
			c-2.9,0.7-5,3.3-5,6.3c0,3.6,2.9,6.5,6.5,6.5s6.5-2.9,6.5-6.5c0-3.1-2.1-5.6-5-6.3v-46.3l0-52.7L1042.6,518.2L1042.6,518.2z
			 M899,369.7c-1.9,0-3.5-1.6-3.5-3.5c0-1.9,1.6-3.5,3.5-3.5s3.5,1.6,3.5,3.5C902.5,368.1,901,369.7,899,369.7z M996,672.2
			c0,1.9-1.6,3.5-3.5,3.5s-3.5-1.6-3.5-3.5c0-1.9,1.6-3.5,3.5-3.5S996,670.3,996,672.2z"/>
		<path fill="#FFFFFF" d="M967.3,440.9c-3.1,0-5.6,2.1-6.3,5h-85.7l0-48.3c0-0.1,0-0.3-0.1-0.6l-0.1-0.4l-24.3-24.3
			c-0.1-0.1-0.2-0.2-0.3-0.3c-0.4-0.5-1.3-1.4-2.7-1.1H726.5c-0.4,0-0.8,0-1.1,0c0,0,0,0-0.1,0V329c2.9-0.7,5-3.3,5-6.3
			c0-3.6-2.9-6.5-6.5-6.5s-6.5,2.9-6.5,6.5c0,3.1,2.1,5.6,5,6.3v41.9c-0.2,0.9-0.1,1.6,0.3,2.1c0.8,1,2,0.9,2.9,0.9
			c0.3,0,0.6,0,0.7,0l122,0c0.1,0.1,0.1,0.1,0.2,0.2c0.2,0.2,0.3,0.3,0.4,0.4l23.5,23.5v50.4l0.9,0.4c0.3,0.1,0.5,0.1,0.7,0.1
			c0.1,0,0.1,0,0.1,0l86.9,0c0.7,2.9,3.3,5,6.3,5c3.6,0,6.5-2.9,6.5-6.5C973.8,443.9,970.9,440.9,967.3,440.9z M720.3,322.7
			c0-1.9,1.6-3.5,3.5-3.5s3.5,1.6,3.5,3.5c0,1.9-1.6,3.5-3.5,3.5S720.3,324.6,720.3,322.7z M967.3,450.9c-1.9,0-3.5-1.6-3.5-3.5
			c0-1.9,1.6-3.5,3.5-3.5s3.5,1.6,3.5,3.5C970.8,449.4,969.2,450.9,967.3,450.9z"/>
		<path fill="#FFFFFF" d="M847.9,473.6c0.4,0.3,0.8,0.3,1.1,0.3c0.1,0,0.1,0,0.2,0l111.9,0c0.7,2.9,3.3,5,6.3,5
			c3.6,0,6.5-2.9,6.5-6.5c0-3.6-2.9-6.5-6.5-6.5c-3.1,0-5.6,2.1-6.3,5H850.3v-60.8c0-0.2,0-0.6-0.3-1l-12.5-12.5
			c-0.1-0.1-0.2-0.2-0.4-0.3l-0.4-0.2H730.4c-0.7-2.9-3.3-5-6.3-5c-3.6,0-6.5,2.9-6.5,6.5c0,3.6,2.9,6.5,6.5,6.5
			c3.1,0,5.6-2.1,6.3-5h105.3l11.6,11.6v62.6L847.9,473.6z M967.3,468.9c1.9,0,3.5,1.6,3.5,3.5c0,1.9-1.6,3.5-3.5,3.5
			s-3.5-1.6-3.5-3.5C963.8,470.5,965.4,468.9,967.3,468.9z M724,400.9c-1.9,0-3.5-1.6-3.5-3.5c0-1.9,1.6-3.5,3.5-3.5
			s3.5,1.6,3.5,3.5C727.5,399.4,726,400.9,724,400.9z"/>
		<path fill="#FFFFFF" d="M936,503.9c3.6,0,6.5-2.9,6.5-6.5c0-3.6-2.9-6.5-6.5-6.5c-3.1,0-5.6,2.1-6.3,5H825.3V424l0-0.2
			c0-0.1,0-0.2,0-0.3c0-0.6,0.1-1.6-0.8-2.2c-0.3-0.3-0.9-0.5-1.7-0.3h-67.4c-0.7-2.9-3.3-5-6.3-5c-3.6,0-6.5,2.9-6.5,6.5
			c0,3.6,2.9,6.5,6.5,6.5c3.1,0,5.6-2.1,6.3-5h66.9c0,0,0,0.1,0,0.1v74l0.5,0.4c0.4,0.4,0.9,0.4,1.2,0.4c0.1,0,0.1,0,0.1,0l105.6,0
			C930.4,501.8,933,503.9,936,503.9z M936,493.9c1.9,0,3.5,1.6,3.5,3.5c0,1.9-1.6,3.5-3.5,3.5s-3.5-1.6-3.5-3.5
			C932.5,495.5,934.1,493.9,936,493.9z M749,425.9c-1.9,0-3.5-1.6-3.5-3.5c0-1.9,1.6-3.5,3.5-3.5s3.5,1.6,3.5,3.5
			C752.5,424.4,751,425.9,749,425.9z"/>
		<path fill="#FFFFFF" d="M797.7,523.4c0.3,0.4,0.8,0.6,1.3,0.6c0,0,0.1,0,0.1,0l105.6,0c0.7,2.9,3.3,5,6.3,5c3.6,0,6.5-2.9,6.5-6.5
			c0-3.6-2.9-6.5-6.5-6.5c-3.1,0-5.6,2.1-6.3,5H800.3V454l-0.1-1l-0.5-0.4c-0.3-0.3-0.7-0.4-1.1-0.4h-18.3c-0.7-2.9-3.3-5-6.3-5
			c-3.6,0-6.5,2.9-6.5,6.5c0,3.6,2.9,6.5,6.5,6.5c3.1,0,5.6-2.1,6.3-5h16.9V523L797.7,523.4z M911,518.9c1.9,0,3.5,1.6,3.5,3.5
			c0,1.9-1.6,3.5-3.5,3.5s-3.5-1.6-3.5-3.5C907.5,520.5,909.1,518.9,911,518.9z M774,457.2c-1.9,0-3.5-1.6-3.5-3.5
			c0-1.9,1.6-3.5,3.5-3.5s3.5,1.6,3.5,3.5C777.5,455.6,776,457.2,774,457.2z"/>
		<path fill="#FFFFFF" d="M769,682V548.9h110.7c0.7,2.9,3.3,5,6.3,5c3.6,0,6.5-2.9,6.5-6.5c0-3.6-2.9-6.5-6.5-6.5
			c-3.1,0-5.6,2.1-6.3,5H768l-0.1,0l-0.1,0c-0.2,0-0.6,0-1,0.2l-0.8,0.4V682H769z M886,543.9c1.9,0,3.5,1.6,3.5,3.5
			c0,1.9-1.6,3.5-3.5,3.5s-3.5-1.6-3.5-3.5C882.5,545.5,884.1,543.9,886,543.9z"/>
		<path fill="#FFFFFF" d="M741,535.3V682h3l0-146.7c2.9-0.7,5-3.3,5-6.3c0-3.6-2.9-6.5-6.5-6.5s-6.5,2.9-6.5,6.5
			C736,532,738.2,534.6,741,535.3z M742.5,525.4c1.9,0,3.5,1.6,3.5,3.5c0,1.9-1.6,3.5-3.5,3.5s-3.5-1.6-3.5-3.5
			C739,527,740.6,525.4,742.5,525.4z"/>
		<path fill="#FFFFFF" d="M719,682V521.4l0-22.4h48.2c0.7,2.9,3.3,5,6.3,5c3.6,0,6.5-2.9,6.5-6.5c0-3.6-2.9-6.5-6.5-6.5
			c-3.1,0-5.6,2.1-6.3,5h-50.7l-0.3,1c-0.1,0.3-0.1,0.6-0.1,0.9V682H719z M773.5,493.9c1.9,0,3.5,1.6,3.5,3.5c0,1.9-1.6,3.5-3.5,3.5
			s-3.5-1.6-3.5-3.5C770,495.5,771.6,493.9,773.5,493.9z"/>
		<path fill="#FFFFFF" d="M692,548.9L692,548.9c0.3,0,0.9,0,1.4-0.4l0.6-0.5v-74.2h48.2c0.7,2.9,3.3,5,6.3,5c3.6,0,6.5-2.9,6.5-6.5
			c0-3.6-2.9-6.5-6.5-6.5c-3.1,0-5.6,2.1-6.3,5h-43.1l-8.1,0v75h-22v-97h48.2c0.7,2.9,3.3,5,6.3,5c3.6,0,6.5-2.9,6.5-6.5
			c0-3.6-2.9-6.5-6.5-6.5c-3.1,0-5.6,2.1-6.3,5h-48.6l-0.9,0c-0.8,0-1.2,0.3-1.4,0.6l-0.5,0.7l0.2,0.5v99.5c0,0.7,0.3,1.1,0.6,1.4
			c0.3,0.2,0.6,0.3,1,0.3c0.1,0,0.1,0,0.2,0L692,548.9L692,548.9z M748.5,468.9c1.9,0,3.5,1.6,3.5,3.5c0,1.9-1.6,3.5-3.5,3.5
			s-3.5-1.6-3.5-3.5C745,470.5,746.6,468.9,748.5,468.9z M723.5,443.9c1.9,0,3.5,1.6,3.5,3.5c0,1.9-1.6,3.5-3.5,3.5
			s-3.5-1.6-3.5-3.5C720,445.5,721.6,443.9,723.5,443.9z"/>
		<path fill="#FFFFFF" d="M565.9,682c-1.1-0.6-1.8-1.7-1.8-3.1c0-1.9,1.6-3.5,3.5-3.5s3.5,1.6,3.5,3.5c0,1.3-0.7,2.5-1.8,3.1h4.1
			c0.5-0.9,0.8-2,0.8-3.1c0-3.6-2.9-6.5-6.5-6.5c-3.6,0-6.5,2.9-6.5,6.5c0,1.1,0.3,2.1,0.8,3.1H565.9z"/>
		<path fill="#FFFFFF" d="M691,585.3V682h3l0-96.7c2.9-0.7,5-3.3,5-6.3c0-3.6-2.9-6.5-6.5-6.5s-6.5,2.9-6.5,6.5
			C686,582,688.2,584.6,691,585.3z M692.5,575.4c1.9,0,3.5,1.6,3.5,3.5c0,1.9-1.6,3.5-3.5,3.5s-3.5-1.6-3.5-3.5
			C689,577,690.6,575.4,692.5,575.4z"/>
		<path fill="#FFFFFF" d="M698.8,316.2c-3.6,0-6.5,2.9-6.5,6.5c0,3.1,2.1,5.6,5,6.3v41.9H591.9l-0.4,0.5c-0.4,0.5-0.4,1.1-0.4,1.4
			l0,118.1c-2.9,0.7-5,3.3-5,6.3c0,3.6,2.9,6.5,6.5,6.5s6.5-2.9,6.5-6.5c0-3.1-2.1-5.6-5-6.3V373.9h105.9l0.3-1.1l0.1-0.3V329
			c2.9-0.7,5-3.3,5-6.3C705.3,319.1,702.4,316.2,698.8,316.2z M596,497.2c0,1.9-1.6,3.5-3.5,3.5s-3.5-1.6-3.5-3.5
			c0-1.9,1.6-3.5,3.5-3.5S596,495.3,596,497.2z M698.8,326.2c-1.9,0-3.5-1.6-3.5-3.5c0-1.9,1.6-3.5,3.5-3.5s3.5,1.6,3.5,3.5
			C702.3,324.6,700.7,326.2,698.8,326.2z"/>
		<path fill="#FFFFFF" d="M667.2,398.9c0.7,2.9,3.3,5,6.3,5c3.6,0,6.5-2.9,6.5-6.5c0-3.6-2.9-6.5-6.5-6.5c-3.1,0-5.6,2.1-6.3,5
			h-49.6c-0.8-0.1-1.4,0.5-1.6,1.1l-0.1,0.2v93.6c-2.9,0.7-5,3.3-5,6.3c0,3.6,2.9,6.5,6.5,6.5s6.5-2.9,6.5-6.5c0-3.1-2.1-5.6-5-6.3
			v-91.9H667.2z M673.5,393.9c1.9,0,3.5,1.6,3.5,3.5c0,1.9-1.6,3.5-3.5,3.5s-3.5-1.6-3.5-3.5C670,395.5,671.6,393.9,673.5,393.9z
			 M621,497.2c0,1.9-1.6,3.5-3.5,3.5s-3.5-1.6-3.5-3.5c0-1.9,1.6-3.5,3.5-3.5S621,495.3,621,497.2z"/>
		<path fill="#FFFFFF" d="M692.2,423.9c0.7,2.9,3.3,5,6.3,5c3.6,0,6.5-2.9,6.5-6.5c0-3.6-2.9-6.5-6.5-6.5c-3.1,0-5.6,2.1-6.3,5
			h-49.6c-0.8,0-1.4,0.5-1.6,1.1l-0.1,0.2v68.6c-2.9,0.7-5,3.3-5,6.3c0,3.6,2.9,6.5,6.5,6.5s6.5-2.9,6.5-6.5c0-3.1-2.1-5.6-5-6.3
			v-66.9H692.2z M698.5,418.9c1.9,0,3.5,1.6,3.5,3.5c0,1.9-1.6,3.5-3.5,3.5s-3.5-1.6-3.5-3.5C695,420.5,696.6,418.9,698.5,418.9z
			 M646,497.2c0,1.9-1.6,3.5-3.5,3.5s-3.5-1.6-3.5-3.5c0-1.9,1.6-3.5,3.5-3.5S646,495.3,646,497.2z"/>
		<path fill="#FFFFFF" d="M424,653.9c3.1,0,5.6-2.1,6.3-5H591l0,33.1h3v-35.9l-1.4-0.1c-0.1,0-0.2,0-0.3,0h-162
			c-0.7-2.9-3.3-5-6.3-5c-3.6,0-6.5,2.9-6.5,6.5C417.5,651,420.5,653.9,424,653.9z M424,643.9c1.9,0,3.5,1.6,3.5,3.5
			c0,1.9-1.6,3.5-3.5,3.5c-1.9,0-3.5-1.6-3.5-3.5C420.5,645.5,422.1,643.9,424,643.9z"/>
		<path fill="#FFFFFF" d="M666,585.3V626l0,45.8L655.9,682h4.2l8.8-8.8l0.1-0.5c0-0.2,0-0.3,0-0.5l-1.5,0l1.5-0.1v-86.8
			c2.9-0.7,5-3.3,5-6.3c0-3.6-2.9-6.5-6.5-6.5s-6.5,2.9-6.5,6.5C661,582,663.2,584.6,666,585.3z M667.5,575.4c1.9,0,3.5,1.6,3.5,3.5
			c0,1.9-1.6,3.5-3.5,3.5s-3.5-1.6-3.5-3.5C664,577,665.6,575.4,667.5,575.4z"/>
		<path fill="#FFFFFF" d="M424,615.9c-3.6,0-6.5,2.9-6.5,6.5c0,3.6,2.9,6.5,6.5,6.5c3.1,0,5.6-2.1,6.3-5l185.7,0v42l-0.2,0.6
			l0.5,0.6c0.2,0.2,0.6,0.6,1.2,0.6c0,0,0,0,0.1,0h25.9l0.4-1c0.1-0.3,0.1-0.6,0.1-0.8v-80.6c2.9-0.7,5-3.3,5-6.3
			c0-3.6-2.9-6.5-6.5-6.5s-6.5,2.9-6.5,6.5c0,3.1,2.1,5.6,5,6.3v79.4h-22v-43.3l-1-0.4c-0.4-0.1-0.7-0.1-1-0.1l-186.7,0
			C429.7,618.1,427.1,615.9,424,615.9z M639,578.9c0-1.9,1.6-3.5,3.5-3.5s3.5,1.6,3.5,3.5c0,1.9-1.6,3.5-3.5,3.5
			S639,580.9,639,578.9z M424,625.9c-1.9,0-3.5-1.6-3.5-3.5c0-1.9,1.6-3.5,3.5-3.5c1.9,0,3.5,1.6,3.5,3.5
			C427.5,624.4,426,625.9,424,625.9z"/>
		<path fill="#FFFFFF" d="M642.3,540.9c-3.1,0-5.6,2.1-6.3,5h-19.3l-0.4,0.7c-0.2,0.4-0.2,0.8-0.2,0.9v48.4h-85.7
			c-0.7-2.9-3.3-5-6.3-5c-3.6,0-6.5,2.9-6.5,6.5c0,3.6,2.9,6.5,6.5,6.5c3.1,0,5.6-2.1,6.3-5h87c0,0,0.1,0,0.1,0
			c0.9,0,1.4-0.6,1.6-1.1l0.1-0.2v-48.7H636c0.7,2.9,3.3,5,6.3,5c3.6,0,6.5-2.9,6.5-6.5C648.8,543.9,645.9,540.9,642.3,540.9z
			 M524,600.9c-1.9,0-3.5-1.6-3.5-3.5c0-1.9,1.6-3.5,3.5-3.5s3.5,1.6,3.5,3.5C527.5,599.4,526,600.9,524,600.9z M642.3,550.9
			c-1.9,0-3.5-1.6-3.5-3.5c0-1.9,1.6-3.5,3.5-3.5s3.5,1.6,3.5,3.5C645.8,549.4,644.2,550.9,642.3,550.9z"/>
		<path fill="#FFFFFF" d="M642.3,515.9c-3.1,0-5.6,2.1-6.3,5h-42.3l-2.2-0.1l-0.4,1.3v48.7h-60.7c-0.7-2.9-3.3-5-6.3-5
			c-3.6,0-6.5,2.9-6.5,6.5c0,3.6,2.9,6.5,6.5,6.5c3.1,0,5.6-2.1,6.3-5h63.3l0.3-1.1c0.1-0.3,0.1-0.6,0.1-0.8v-48.1H636
			c0.7,2.9,3.3,5,6.3,5c3.6,0,6.5-2.9,6.5-6.5C648.8,518.9,645.9,515.9,642.3,515.9z M524,575.9c-1.9,0-3.5-1.6-3.5-3.5
			c0-1.9,1.6-3.5,3.5-3.5s3.5,1.6,3.5,3.5C527.5,574.4,526,575.9,524,575.9z M642.3,525.9c-1.9,0-3.5-1.6-3.5-3.5
			c0-1.9,1.6-3.5,3.5-3.5s3.5,1.6,3.5,3.5C645.8,524.4,644.2,525.9,642.3,525.9z"/>
		<path fill="#FFFFFF" d="M374.3,390.9c-3.6,0-6.5,2.9-6.5,6.5c0,3.6,2.9,6.5,6.5,6.5c3.1,0,5.6-2.1,6.3-5H466v72.8l0,0.6
			c0,0.7,0.4,1.1,0.6,1.3l0.7,0.5l0.5-0.2H566v60.7c-2.9,0.7-5,3.3-5,6.3c0,3.6,2.9,6.5,6.5,6.5c3.6,0,6.5-2.9,6.5-6.5
			c0-3.1-2.1-5.6-5-6.3v-62c0-0.1,0-0.3,0-0.5l-0.3-1.2H469v-72.2l0-2l-1-0.9h-87.5C379.9,393.1,377.4,390.9,374.3,390.9z
			 M571,540.9c0,1.9-1.6,3.5-3.5,3.5s-3.5-1.6-3.5-3.5c0-1.9,1.6-3.5,3.5-3.5S571,539,571,540.9z M374.3,400.9
			c-1.9,0-3.5-1.6-3.5-3.5c0-1.9,1.6-3.5,3.5-3.5c1.9,0,3.5,1.6,3.5,3.5C377.8,399.4,376.2,400.9,374.3,400.9z"/>
		<path fill="#FFFFFF" d="M444.1,421.7l-1.3-1l-0.5,0.2h-36.9c-0.7-2.9-3.3-5-6.3-5c-3.6,0-6.5,2.9-6.5,6.5c0,3.6,2.9,6.5,6.5,6.5
			c3.1,0,5.6-2.1,6.3-5H441v74.3l0.7,0.4c0.4,0.2,0.8,0.2,0.9,0.2H541v35.7c-2.9,0.7-5,3.3-5,6.3c0,3.6,2.9,6.5,6.5,6.5
			c3.6,0,6.5-2.9,6.5-6.5c0-3.1-2.1-5.6-5-6.3v-38.7l-100,0v-72.1L444.1,421.7z M399,425.9c-1.9,0-3.5-1.6-3.5-3.5
			c0-1.9,1.6-3.5,3.5-3.5c1.9,0,3.5,1.6,3.5,3.5C402.5,424.4,401,425.9,399,425.9z M546,540.9c0,1.9-1.6,3.5-3.5,3.5
			s-3.5-1.6-3.5-3.5c0-1.9,1.6-3.5,3.5-3.5S546,539,546,540.9z"/>
		<path fill="#FFFFFF" d="M511,540.9c0,3.6,2.9,6.5,6.5,6.5c3.6,0,6.5-2.9,6.5-6.5c0-3.1-2.1-5.6-5-6.3v-11.3l0.1-1.5l-1.2-1
			l-0.6,0.2H419v-73.4c0-0.4-0.1-0.8-0.3-1.1l-0.6-0.6l-0.7,0.1h-12c-0.7-2.9-3.3-5-6.3-5c-3.6,0-6.5,2.9-6.5,6.5
			c0,3.6,2.9,6.5,6.5,6.5c3.1,0,5.6-2.1,6.3-5H416v73l0.1,2H516v10.7C513.2,535.3,511,537.9,511,540.9z M399,450.9
			c-1.9,0-3.5-1.6-3.5-3.5c0-1.9,1.6-3.5,3.5-3.5c1.9,0,3.5,1.6,3.5,3.5C402.5,449.4,401,450.9,399,450.9z M521,540.9
			c0,1.9-1.6,3.5-3.5,3.5s-3.5-1.6-3.5-3.5c0-1.9,1.6-3.5,3.5-3.5S521,539,521,540.9z"/>
		<path fill="#FFFFFF" d="M536,678.9c3.6,0,6.5-2.9,6.5-6.5c0-3.6-2.9-6.5-6.5-6.5c-3.1,0-5.6,2.1-6.3,5H394v-72h85.7
			c0.7,2.9,3.3,5,6.3,5c3.6,0,6.5-2.9,6.5-6.5c0-3.6-2.9-6.5-6.5-6.5c-3.1,0-5.6,2.1-6.3,5h-41.6l-45.4,0c-0.2,0-0.6,0-1,0.2
			l-0.8,0.4v71.9l0,4.7l0.5,0.4c0.2,0.1,0.5,0.3,0.9,0.4l0.1,0c0,0,0,0,0.1,0c0,0,0,0,0.1,0h137.1C530.4,676.8,533,678.9,536,678.9z
			 M486,593.9c1.9,0,3.5,1.6,3.5,3.5c0,1.9-1.6,3.5-3.5,3.5c-1.9,0-3.5-1.6-3.5-3.5C482.5,595.5,484.1,593.9,486,593.9z M536,668.9
			c1.9,0,3.5,1.6,3.5,3.5c0,1.9-1.6,3.5-3.5,3.5s-3.5-1.6-3.5-3.5C532.5,670.5,534.1,668.9,536,668.9z"/>
		<path fill="#FFFFFF" d="M492.1,448.9l0.2,0.1h62.4c0.7,2.9,3.3,5,6.3,5c3.6,0,6.5-2.9,6.5-6.5c0-3.6-2.9-6.5-6.5-6.5
			c-3.1,0-5.6,2.1-6.3,5H494v-60.7c2.9-0.7,5-3.3,5-6.3c0-3.6-2.9-6.5-6.5-6.5c-3.6,0-6.5,2.9-6.5,6.5c0,3.1,2.1,5.6,5,6.3v62
			C491,448.2,491.6,448.7,492.1,448.9z M561,443.9c1.9,0,3.5,1.6,3.5,3.5c0,1.9-1.6,3.5-3.5,3.5s-3.5-1.6-3.5-3.5
			C557.5,445.5,559.1,443.9,561,443.9z M489,378.9c0-1.9,1.6-3.5,3.5-3.5c1.9,0,3.5,1.6,3.5,3.5c0,1.9-1.6,3.5-3.5,3.5
			C490.6,382.4,489,380.9,489,378.9z"/>
		<path fill="#FFFFFF" d="M519,347.1l-0.6-1.2h-57.1l-0.4,0l-1.1,0.7v19.2c-2.9,0.7-5,3.3-5,6.3c0,3.6,2.9,6.5,6.5,6.5
			c3.6,0,6.5-2.9,6.5-6.5c0-3.1-2.1-5.6-5-6.3v-16.9H516v74.2l1,0.9l37.7,0c0.7,2.9,3.3,5,6.3,5c3.6,0,6.5-2.9,6.5-6.5
			c0-3.6-2.9-6.5-6.5-6.5c-3.1,0-5.6,2.1-6.3,5H519v-73.2L519,347.1z M464.8,372.2c0,1.9-1.6,3.5-3.5,3.5c-1.9,0-3.5-1.6-3.5-3.5
			c0-1.9,1.6-3.5,3.5-3.5C463.2,368.7,464.8,370.3,464.8,372.2z M561,418.9c1.9,0,3.5,1.6,3.5,3.5c0,1.9-1.6,3.5-3.5,3.5
			s-3.5-1.6-3.5-3.5C557.5,420.5,559.1,418.9,561,418.9z"/>
		<path fill="#FFFFFF" d="M567.1,346c-0.5,0.2-1,0.7-1,1.4l0,0c0,0,0,0.1,0,0.1v37.1c-2.9,0.7-5,3.3-5,6.3c0,3.6,2.9,6.5,6.5,6.5
			c3.6,0,6.5-2.9,6.5-6.5c0-3.1-2.1-5.6-5-6.3v-35.7h98.2c0.7,2.9,3.3,5,6.3,5c3.6,0,6.5-2.9,6.5-6.5c0-3.6-2.9-6.5-6.5-6.5
			c-3.1,0-5.6,2.1-6.3,5h-99.9L567.1,346z M673.5,343.9c1.9,0,3.5,1.6,3.5,3.5c0,1.9-1.6,3.5-3.5,3.5s-3.5-1.6-3.5-3.5
			C670,345.5,671.6,343.9,673.5,343.9z M571,390.9c0,1.9-1.6,3.5-3.5,3.5s-3.5-1.6-3.5-3.5c0-1.9,1.6-3.5,3.5-3.5S571,389,571,390.9
			z"/>
		<path fill="#FFFFFF" d="M536,390.9c0,3.6,2.9,6.5,6.5,6.5c3.6,0,6.5-2.9,6.5-6.5c0-3.1-2.1-5.6-5-6.3v-39.1c2.9-0.7,5-3.3,5-6.3
			c0-3.6-2.9-6.5-6.5-6.5c-3.6,0-6.5,2.9-6.5,6.5c0,3.1,2.1,5.6,5,6.3v39.1C538.2,385.3,536,387.9,536,390.9z M546,390.9
			c0,1.9-1.6,3.5-3.5,3.5s-3.5-1.6-3.5-3.5c0-1.9,1.6-3.5,3.5-3.5S546,389,546,390.9z M539,339.2c0-1.9,1.6-3.5,3.5-3.5
			s3.5,1.6,3.5,3.5c0,1.9-1.6,3.5-3.5,3.5S539,341.1,539,339.2z"/>
		<path fill="#FFFFFF" d="M479.7,545.9h-74.4c-0.7-2.9-3.3-5-6.3-5c-3.6,0-6.5,2.9-6.5,6.5c0,3.6,2.9,6.5,6.5,6.5
			c3.1,0,5.6-2.1,6.3-5h74.4c0.7,2.9,3.3,5,6.3,5c3.6,0,6.5-2.9,6.5-6.5c0-3.6-2.9-6.5-6.5-6.5C483,540.9,480.4,543.1,479.7,545.9z
			 M399,550.9c-1.9,0-3.5-1.6-3.5-3.5c0-1.9,1.6-3.5,3.5-3.5c1.9,0,3.5,1.6,3.5,3.5C402.5,549.4,401,550.9,399,550.9z M489.5,547.4
			c0,1.9-1.6,3.5-3.5,3.5c-1.9,0-3.5-1.6-3.5-3.5c0-1.9,1.6-3.5,3.5-3.5C488,543.9,489.5,545.5,489.5,547.4z"/>
		<path fill="#FFFFFF" d="M399,578.9c3.1,0,5.6-2.1,6.3-5h74.4c0.7,2.9,3.3,5,6.3,5c3.6,0,6.5-2.9,6.5-6.5c0-3.6-2.9-6.5-6.5-6.5
			c-3.1,0-5.6,2.1-6.3,5h-74.4c-0.7-2.9-3.3-5-6.3-5c-3.6,0-6.5,2.9-6.5,6.5C392.5,576,395.5,578.9,399,578.9z M486,568.9
			c1.9,0,3.5,1.6,3.5,3.5c0,1.9-1.6,3.5-3.5,3.5c-1.9,0-3.5-1.6-3.5-3.5C482.5,570.5,484.1,568.9,486,568.9z M399,568.9
			c1.9,0,3.5,1.6,3.5,3.5c0,1.9-1.6,3.5-3.5,3.5c-1.9,0-3.5-1.6-3.5-3.5C395.5,570.5,397.1,568.9,399,568.9z"/>
		<path fill="#FFFFFF" d="M1016,682h3V579.4c0,0,0-0.1,0-0.1l29-29v-4.2l-31.7,31.7l-0.1,0.3c-0.2,0.4-0.1,0.8-0.1,1L1016,682z"/>
		<path fill="#FFFFFF" d="M1041,682h3v-90.1c0,0,0,0,0-0.1l4-4v-4.2l-6.7,6.7l-0.1,0.3c-0.2,0.4-0.1,0.8-0.1,1.1L1041,682z"/>
		<path fill="#FFFFFF" d="M1048,269.4c-0.5-3.1-3.2-5.4-6.4-5.4c-3.6,0-6.5,2.9-6.5,6.5c0,3.1,2.1,5.6,5,6.3c0,8-0.1,31.6-0.1,40.2
			H876.5l-0.1,0l0,0c-0.2,0-0.5,0-0.9,0.1l-0.4,0.1l-27.9,27.9h-92.8c-0.7-2.9-3.3-5-6.3-5c-3.6,0-6.5,2.9-6.5,6.5
			c0,3.6,2.9,6.5,6.5,6.5c3.1,0,5.6-2.1,6.3-5h87.6l5.6,0l0,0c0.2,0,0.4,0,0.5,0l0.5-0.1l28-28l163.8,0c0.1,0,0.3,0,0.4,0
			c0.3,0,0.7,0,1,0l1.4-0.1v-2.7c0-8.5,0-32.3,0.1-40.4c2.5-0.6,4.5-2.7,4.9-5.2V269.4z M748,350.2c-1.9,0-3.5-1.6-3.5-3.5
			c0-1.9,1.6-3.5,3.5-3.5s3.5,1.6,3.5,3.5C751.5,348.6,750,350.2,748,350.2z M1041.6,274c-1.9,0-3.5-1.6-3.5-3.5s1.6-3.5,3.5-3.5
			s3.5,1.6,3.5,3.5S1043.5,274,1041.6,274z"/>
		<path fill="#FFFFFF" d="M898,346.9c3.1,0,5.6-2.1,6.3-5H1035c0.7,2.9,3.3,5,6.3,5c3.6,0,6.5-2.9,6.5-6.5c0-3.6-2.9-6.5-6.5-6.5
			c-3.1,0-5.6,2.1-6.3,5H904.4c-0.7-2.9-3.3-5-6.3-5c-3.6,0-6.5,2.9-6.5,6.5C891.5,344,894.5,346.9,898,346.9z M1041.3,336.9
			c1.9,0,3.5,1.6,3.5,3.5c0,1.9-1.6,3.5-3.5,3.5c-1.9,0-3.5-1.6-3.5-3.5C1037.8,338.5,1039.4,336.9,1041.3,336.9z M898,336.9
			c1.9,0,3.5,1.6,3.5,3.5c0,1.9-1.6,3.5-3.5,3.5s-3.5-1.6-3.5-3.5C894.5,338.5,896.1,336.9,898,336.9z"/>
		<path fill="#FFFFFF" d="M1010,290.2c-3.1,0-5.6,2.1-6.3,5H864.4l-3.7,0l0,0c-0.2,0-0.5,0-0.8,0.1l-0.4,0.1l-24.8,24.8h-85.4v-23.4
			c0-0.4-0.1-0.7-0.3-1l-0.5-0.6h-67.9v-18.4c2.9-0.7,5-3.3,5-6.3c0-3.6-2.9-6.5-6.5-6.5s-6.5,2.9-6.5,6.5c0,3.1,2.1,5.6,5,6.3v19.4
			l0,0.1l0,0.1c0,0.2,0,0.7,0.2,1.1l0.4,0.8h68.1v23l-0.1,1l0.9,1h87.9c0,0,0.1,0,0.1,0c0.6,0,1-0.3,1.2-0.5l24.5-24.5l142.8,0
			c0.7,2.9,3.3,5,6.3,5c3.6,0,6.5-2.9,6.5-6.5C1016.5,293.1,1013.6,290.2,1010,290.2z M675.5,270.5c0-1.9,1.6-3.5,3.5-3.5
			s3.5,1.6,3.5,3.5S681,274,679,274S675.5,272.4,675.5,270.5z M1010,300.2c-1.9,0-3.5-1.6-3.5-3.5c0-1.9,1.6-3.5,3.5-3.5
			s3.5,1.6,3.5,3.5C1013.5,298.6,1012,300.2,1010,300.2z"/>
		<path fill="#FFFFFF" d="M674.5,248.2v-3H555.1l-0.2,0.1c-1,0.3-1,0.6-1.1,3.5l0,5.5c0,4.6,0,10.7,0,16.8l0,24.1H531
			c0-48.7,0-48.7-0.2-49.1l-0.4-0.9h-1c-12.2,0-87.2,0-98.1,0c-0.7-2.9-3.3-5-6.3-5c-3.6,0-6.5,2.9-6.5,6.5c0,3.6,2.9,6.5,6.5,6.5
			c3.1,0,5.6-2.1,6.3-5c10.5,0,80.7,0,96.6,0c0,6.4,0,32.4,0,48.4v1.6h27.3l1.5,0v-1.5c0-16,0-42,0-48.4H674.5z M425,250.3
			c-1.9,0-3.5-1.6-3.5-3.5c0-1.9,1.6-3.5,3.5-3.5c1.9,0,3.5,1.6,3.5,3.5C428.5,248.7,427,250.3,425,250.3z"/>
		<path fill="#FFFFFF" d="M628.1,322.9c0.4,0.3,0.4,0.3,13,0.3c1.8,0,3.9,0,6.3,0c0.7,2.9,3.3,5,6.3,5c3.6,0,6.5-2.9,6.5-6.5
			c0-3.6-2.9-6.5-6.5-6.5c-3.1,0-5.6,2.1-6.3,5c-7.2,0-14,0-16.9,0v-23.9l-0.1-0.2c-0.4-1.1-0.4-1.1-8-1.1c-4,0-9.3,0-14.7,0
			c-9.4,0-19.1,0-22.5,0c-0.7-2.9-3.3-5-6.3-5c-3.6,0-6.5,2.9-6.5,6.5c0,3.6,2.9,6.5,6.5,6.5c3.1,0,5.6-2.1,6.3-5
			c18.5,0,37.2,0,42.3,0.1v24.4L628.1,322.9z M653.8,318.2c1.9,0,3.5,1.6,3.5,3.5c0,1.9-1.6,3.5-3.5,3.5s-3.5-1.6-3.5-3.5
			C650.3,319.8,651.9,318.2,653.8,318.2z M578.9,300c-1.9,0-3.5-1.6-3.5-3.5c0-1.9,1.6-3.5,3.5-3.5c1.9,0,3.5,1.6,3.5,3.5
			C582.4,298.4,580.8,300,578.9,300z"/>
		<path fill="#FFFFFF" d="M404.3,328.2c3.1,0,5.6-2.1,6.3-5h180.6c0.7,2.9,3.3,5,6.3,5c3.6,0,6.5-2.9,6.5-6.5c0-3.6-2.9-6.5-6.5-6.5
			c-3.1,0-5.6,2.1-6.3,5H410.6c-0.7-2.9-3.3-5-6.3-5c-3.6,0-6.5,2.9-6.5,6.5C397.8,325.3,400.7,328.2,404.3,328.2z M597.5,318.2
			c1.9,0,3.5,1.6,3.5,3.5s-1.6,3.5-3.5,3.5s-3.5-1.6-3.5-3.5S595.6,318.2,597.5,318.2z M404.3,318.2c1.9,0,3.5,1.6,3.5,3.5
			s-1.6,3.5-3.5,3.5c-1.9,0-3.5-1.6-3.5-3.5S402.4,318.2,404.3,318.2z"/>
		<path fill="#FFFFFF" d="M385.6,526.4c-0.7-2.9-3.3-5-6.3-5c-3.6,0-6.5,2.9-6.5,6.5c0,3.6,2.9,6.5,6.5,6.5c3.1,0,5.6-2.1,6.3-5
			h13.6l0.2-0.1c0.6-0.2,1.1-0.7,1.1-1.6v-48.3c2.9-0.7,5-3.3,5-6.3c0-3.6-2.9-6.5-6.5-6.5c-3.6,0-6.5,2.9-6.5,6.5
			c0,3.1,2.1,5.6,5,6.3v46.9H385.6z M379.3,531.4c-1.9,0-3.5-1.6-3.5-3.5c0-1.9,1.6-3.5,3.5-3.5c1.9,0,3.5,1.6,3.5,3.5
			C382.8,529.9,381.2,531.4,379.3,531.4z M395.5,473.2c0-1.9,1.6-3.5,3.5-3.5c1.9,0,3.5,1.6,3.5,3.5c0,1.9-1.6,3.5-3.5,3.5
			C397.1,476.7,395.5,475.1,395.5,473.2z"/>
		<path fill="#FFFFFF" d="M497.8,297.2c0,3.6,2.9,6.5,6.5,6.5c3.6,0,6.5-2.9,6.5-6.5c0-3.1-2.1-5.6-5-6.3v-19l0.1-2.2l-1.1-0.4
			l-0.3-0.1h-51.6c-0.7-2.9-3.3-5-6.3-5c-3.6,0-6.5,2.9-6.5,6.5c0,3.6,2.9,6.5,6.5,6.5c3.1,0,5.6-2.1,6.3-5h49.9v18.6
			C499.9,291.6,497.8,294.1,497.8,297.2z M446.5,274.3c-1.9,0-3.5-1.6-3.5-3.5c0-1.9,1.6-3.5,3.5-3.5c1.9,0,3.5,1.6,3.5,3.5
			C450,272.7,448.5,274.3,446.5,274.3z M507.8,297.2c0,1.9-1.6,3.5-3.5,3.5c-1.9,0-3.5-1.6-3.5-3.5c0-1.9,1.6-3.5,3.5-3.5
			C506.2,293.7,507.8,295.3,507.8,297.2z"/>
		<path fill="#FFFFFF" d="M647.3,290.2c0,3.6,2.9,6.5,6.5,6.5s6.5-2.9,6.5-6.5c0-3.1-2.1-5.6-5-6.3v-13.3l-0.1-0.2
			c-0.2-0.5-0.7-1.1-1.6-1.1h-66.9c-0.7-2.9-3.3-5-6.3-5c-3.6,0-6.5,2.9-6.5,6.5c0,3.6,2.9,6.5,6.5,6.5c3.1,0,5.6-2.1,6.3-5h65.6
			v11.6C649.4,284.6,647.3,287.1,647.3,290.2z M580.4,274.3c-1.9,0-3.5-1.6-3.5-3.5c0-1.9,1.6-3.5,3.5-3.5c1.9,0,3.5,1.6,3.5,3.5
			C583.9,272.7,582.3,274.3,580.4,274.3z M657.3,290.2c0,1.9-1.6,3.5-3.5,3.5s-3.5-1.6-3.5-3.5c0-1.9,1.6-3.5,3.5-3.5
			S657.3,288.3,657.3,290.2z"/>
		<path fill="#FFFFFF" d="M815.5,295.6h-33.6c-0.7-2.9-3.3-5-6.3-5c-3.6,0-6.5,2.9-6.5,6.5c0,3.6,2.9,6.5,6.5,6.5
			c3.1,0,5.6-2.1,6.3-5h33.6c0.7,2.9,3.3,5,6.3,5c3.6,0,6.5-2.9,6.5-6.5c0-3.6-2.9-6.5-6.5-6.5C818.7,290.6,816.1,292.8,815.5,295.6
			z M775.5,300.6c-1.9,0-3.5-1.6-3.5-3.5c0-1.9,1.6-3.5,3.5-3.5s3.5,1.6,3.5,3.5C779,299.1,777.5,300.6,775.5,300.6z M825.3,297.1
			c0,1.9-1.6,3.5-3.5,3.5s-3.5-1.6-3.5-3.5c0-1.9,1.6-3.5,3.5-3.5S825.3,295.2,825.3,297.1z"/>
		<path fill="#FFFFFF" d="M360.5,158.9c-3.6,0-6.5,2.9-6.5,6.5c0,3.6,2.9,6.5,6.5,6.5c3.1,0,5.6-2.1,6.3-5h76.7l0.4-0.9
			c0.2-0.4,0.2-0.8,0.1-1.1l0-98h85.7c0.7,2.9,3.3,5,6.3,5c3.6,0,6.5-2.9,6.5-6.5c0-3.6-2.9-6.5-6.5-6.5c-3.1,0-5.6,2.1-6.3,5h-86.9
			l-0.1,0c-0.2,0-0.7,0-1.1,0.3l-0.6,0.4v99.3h-74.2C366.2,161.1,363.6,158.9,360.5,158.9z M536,61.9c1.9,0,3.5,1.6,3.5,3.5
			c0,1.9-1.6,3.5-3.5,3.5s-3.5-1.6-3.5-3.5C532.5,63.5,534.1,61.9,536,61.9z M360.5,168.9c-1.9,0-3.5-1.6-3.5-3.5
			c0-1.9,1.6-3.5,3.5-3.5c1.9,0,3.5,1.6,3.5,3.5C364,167.4,362.5,168.9,360.5,168.9z"/>
		<path fill="#FFFFFF" d="M-36,8.9V-32h0v44c1.2,0.6,2,1.8,2,3.2c0,1.4-0.8,2.6-2,3.2v3.2c2.9-0.7,5-3.2,5-6.3
			C-31,12.1-33.1,9.6-36,8.9z"/>
		<path fill="#FFFFFF" d="M24.8,183.9c-3.1,0-5.6,2.1-6.3,5H-36V53.3c2.9-0.7,5-3.3,5-6.3c0-3.1-2.2-5.7-5-6.3v3.2
			c1.2,0.6,2,1.8,2,3.2c0,1.4-0.8,2.6-2,3.2v141.8h54.5c0.7,2.9,3.3,5,6.3,5c3.6,0,6.5-2.9,6.5-6.5
			C31.3,186.9,28.4,183.9,24.8,183.9z M24.8,193.9c-1.9,0-3.5-1.6-3.5-3.5c0-1.9,1.6-3.5,3.5-3.5s3.5,1.6,3.5,3.5
			C28.3,192.4,26.7,193.9,24.8,193.9z"/>
		<path fill="#FFFFFF" d="M-11,102.6V-32h-3l0,134.6c-2.9,0.7-5,3.3-5,6.3c0,3.6,2.9,6.5,6.5,6.5s6.5-2.9,6.5-6.5
			C-6,105.9-8.1,103.3-11,102.6z M-12.5,112.4c-1.9,0-3.5-1.6-3.5-3.5c0-1.9,1.6-3.5,3.5-3.5S-9,107-9,108.9
			C-9,110.9-10.5,112.4-12.5,112.4z"/>
		<path fill="#FFFFFF" d="M14,102.6V-32h-3l0,134.6c-2.9,0.7-5,3.3-5,6.3c0,3.6,2.9,6.5,6.5,6.5s6.5-2.9,6.5-6.5
			C19,105.9,16.9,103.3,14,102.6z M12.5,112.4c-1.9,0-3.5-1.6-3.5-3.5c0-1.9,1.6-3.5,3.5-3.5s3.5,1.6,3.5,3.5
			C16,110.9,14.5,112.4,12.5,112.4z"/>
		<path fill="#FFFFFF" d="M39,102.6V-32h-3l0,134.6c-2.9,0.7-5,3.3-5,6.3c0,3.6,2.9,6.5,6.5,6.5s6.5-2.9,6.5-6.5
			C44,105.9,41.9,103.3,39,102.6z M37.5,112.4c-1.9,0-3.5-1.6-3.5-3.5c0-1.9,1.6-3.5,3.5-3.5c1.9,0,3.5,1.6,3.5,3.5
			C41,110.9,39.5,112.4,37.5,112.4z"/>
		<path fill="#FFFFFF" d="M64,27.6V-28c2.1-0.5,3.8-2,4.6-4h-3.5c-0.6,0.7-1.6,1.2-2.6,1.2c-1,0-2-0.5-2.6-1.2h-3.5
			c0.8,2,2.5,3.5,4.6,4v55.6c-2.9,0.7-5,3.3-5,6.3c0,3.6,2.9,6.5,6.5,6.5c3.6,0,6.5-2.9,6.5-6.5C69,30.9,66.9,28.3,64,27.6z
			 M62.5,37.4c-1.9,0-3.5-1.6-3.5-3.5c0-1.9,1.6-3.5,3.5-3.5c1.9,0,3.5,1.6,3.5,3.5C66,35.9,64.5,37.4,62.5,37.4z"/>
		<path fill="#FFFFFF" d="M89-32h-3v95.9H62.7c-0.2,0-0.5,0-0.9,0.2L61,64.6v74.3H-5.9c-0.7-2.9-3.3-5-6.3-5c-3.6,0-6.5,2.9-6.5,6.5
			c0,3.6,2.9,6.5,6.5,6.5c3.1,0,5.6-2.1,6.3-5h68.3c0,0,0.1,0,0.1,0c0.3,0,0.7-0.1,0.9-0.3l0.6-0.5l0-0.7V66.9h24.2l0.5-0.5
			c0.4-0.5,0.4-1,0.4-1.3L89-32z M-12.2,143.9c-1.9,0-3.5-1.6-3.5-3.5c0-1.9,1.6-3.5,3.5-3.5s3.5,1.6,3.5,3.5
			C-8.7,142.4-10.3,143.9-12.2,143.9z"/>
		<path fill="#FFFFFF" d="M114-32h-3V88.9H87.8l-0.6-0.2l-0.6,0.5c-0.2,0.2-0.6,0.6-0.6,1.3v73.4H-5.9c-0.7-2.9-3.3-5-6.3-5
			c-3.6,0-6.5,2.9-6.5,6.5c0,3.6,2.9,6.5,6.5,6.5c3.1,0,5.6-2.1,6.3-5h94l0.4-0.4c0.2-0.2,0.5-0.6,0.5-1.2V91.9h23.4
			c0.4,0,0.7-0.1,1-0.3l0.6-0.6l-0.1-0.7V-32z M-12.2,168.9c-1.9,0-3.5-1.6-3.5-3.5c0-1.9,1.6-3.5,3.5-3.5s3.5,1.6,3.5,3.5
			C-8.7,167.4-10.3,168.9-12.2,168.9z"/>
		<path fill="#FFFFFF" d="M139,58.9V-32h-3v90.9c-2.9,0.7-5,3.3-5,6.3c0,3.6,2.9,6.5,6.5,6.5s6.5-2.9,6.5-6.5
			C144,62.1,141.9,59.6,139,58.9z M137.5,68.7c-1.9,0-3.5-1.6-3.5-3.5c0-1.9,1.6-3.5,3.5-3.5s3.5,1.6,3.5,3.5
			C141,67.1,139.5,68.7,137.5,68.7z"/>
		<path fill="#FFFFFF" d="M274.8,83.9c-3.1,0-5.6,2.1-6.3,5H137.7l-0.7-0.1l-1,1.1l0.1,0.6v23.4h-10.7c-0.7-2.9-3.3-5-6.3-5
			c-3.6,0-6.5,2.9-6.5,6.5c0,3.6,2.9,6.5,6.5,6.5c3.1,0,5.6-2.1,6.3-5h11.5l1.3,0.1l1-1.3l-0.2-0.6V91.9h129.4c0.7,2.9,3.3,5,6.3,5
			c3.6,0,6.5-2.9,6.5-6.5C281.3,86.9,278.4,83.9,274.8,83.9z M119,118.9c-1.9,0-3.5-1.6-3.5-3.5c0-1.9,1.6-3.5,3.5-3.5
			c1.9,0,3.5,1.6,3.5,3.5C122.5,117.4,121,118.9,119,118.9z M274.8,93.9c-1.9,0-3.5-1.6-3.5-3.5c0-1.9,1.6-3.5,3.5-3.5
			c1.9,0,3.5,1.6,3.5,3.5C278.3,92.4,276.7,93.9,274.8,93.9z"/>
		<path fill="#FFFFFF" d="M274.8,108.9c-3.1,0-5.6,2.1-6.3,5H163c-0.5-0.1-0.9,0-1.3,0.3c-0.7,0.5-0.7,1.3-0.6,1.6l0,23.1h-35.7
			c-0.7-2.9-3.3-5-6.3-5c-3.6,0-6.5,2.9-6.5,6.5c0,3.6,2.9,6.5,6.5,6.5c3.1,0,5.6-2.1,6.3-5h36.2l2,0.1l0.4-1.4v-23.7h104.4
			c0.7,2.9,3.3,5,6.3,5c3.6,0,6.5-2.9,6.5-6.5C281.3,111.9,278.4,108.9,274.8,108.9z M119,143.9c-1.9,0-3.5-1.6-3.5-3.5
			c0-1.9,1.6-3.5,3.5-3.5c1.9,0,3.5,1.6,3.5,3.5C122.5,142.4,121,143.9,119,143.9z M274.8,118.9c-1.9,0-3.5-1.6-3.5-3.5
			c0-1.9,1.6-3.5,3.5-3.5c1.9,0,3.5,1.6,3.5,3.5C278.3,117.4,276.7,118.9,274.8,118.9z"/>
		<path fill="#FFFFFF" d="M187.5,166.4c0.9,0,1.3-0.6,1.5-1.1l0.1-0.2v-23.2h79.4c0.7,2.9,3.3,5,6.3,5c3.6,0,6.5-2.9,6.5-6.5
			c0-3.6-2.9-6.5-6.5-6.5c-3.1,0-5.6,2.1-6.3,5h-80.6l-0.1,0c-0.1,0-0.3,0-0.4,0l-1.3,0.2v24.3h-60.7c-0.7-2.9-3.3-5-6.3-5
			c-3.6,0-6.5,2.9-6.5,6.5c0,3.6,2.9,6.5,6.5,6.5c3.1,0,5.6-2.1,6.3-5L187.5,166.4C187.4,166.4,187.4,166.4,187.5,166.4z
			 M274.8,136.9c1.9,0,3.5,1.6,3.5,3.5c0,1.9-1.6,3.5-3.5,3.5c-1.9,0-3.5-1.6-3.5-3.5C271.3,138.5,272.9,136.9,274.8,136.9z
			 M119,168.4c-1.9,0-3.5-1.6-3.5-3.5c0-1.9,1.6-3.5,3.5-3.5c1.9,0,3.5,1.6,3.5,3.5C122.5,166.9,121,168.4,119,168.4z"/>
		<path fill="#FFFFFF" d="M24.8,208.9c-3.1,0-5.6,2.1-6.3,5H-36v58.5l0,0v-55.5h54.4c0.7,2.9,3.3,5,6.3,5c3.6,0,6.5-2.9,6.5-6.5
			C31.3,211.9,28.4,208.9,24.8,208.9z M24.8,218.9c-1.9,0-3.5-1.6-3.5-3.5c0-1.9,1.6-3.5,3.5-3.5s3.5,1.6,3.5,3.5
			C28.3,217.4,26.7,218.9,24.8,218.9z"/>
		<path fill="#FFFFFF" d="M162.3,183.9c-3.1,0-5.6,2.1-6.3,5H50.7l-0.6,0c-0.1,0-0.2,0-0.4,0l-1.2,0.3v49.6h-62.5l0,25.2
			c-2.9,0.7-5,3.3-5,6.3c0,3.6,2.9,6.5,6.5,6.5S-6,274-6,270.4c0-3.1-2.1-5.6-5-6.3v-22.2h61.9l0.4-0.8c0.2-0.4,0.2-0.8,0.2-1
			l0-48.2H156c0.7,2.9,3.3,5,6.3,5c3.6,0,6.5-2.9,6.5-6.5C168.8,186.9,165.9,183.9,162.3,183.9z M-9,270.4c0,1.9-1.6,3.5-3.5,3.5
			s-3.5-1.6-3.5-3.5c0-1.9,1.6-3.5,3.5-3.5S-9,268.5-9,270.4z M162.3,193.9c-1.9,0-3.5-1.6-3.5-3.5c0-1.9,1.6-3.5,3.5-3.5
			c1.9,0,3.5,1.6,3.5,3.5C165.8,192.4,164.2,193.9,162.3,193.9z"/>
		<path fill="#FFFFFF" d="M162.3,221.9c3.6,0,6.5-2.9,6.5-6.5c0-3.6-2.9-6.5-6.5-6.5c-3.1,0-5.6,2.1-6.3,5H75.3
			c-0.2,0-0.7,0-1.1,0.3l-0.6,0.5v49.2H36.8l-0.4,0.6c-0.2,0.3-0.3,0.6-0.3,1v9.8c-2.9,0.7-5,3.3-5,6.3c0,3.6,2.9,6.5,6.5,6.5
			s6.5-2.9,6.5-6.5c0-3.1-2.1-5.6-5-6.3v-8.4h35.9c0.4,0,0.8-0.1,1.1-0.4l0.5-0.4v-49.2H156C156.6,219.8,159.2,221.9,162.3,221.9z
			 M162.3,211.9c1.9,0,3.5,1.6,3.5,3.5c0,1.9-1.6,3.5-3.5,3.5c-1.9,0-3.5-1.6-3.5-3.5C158.8,213.5,160.4,211.9,162.3,211.9z
			 M41,281.7c0,1.9-1.6,3.5-3.5,3.5c-1.9,0-3.5-1.6-3.5-3.5c0-1.9,1.6-3.5,3.5-3.5C39.5,278.2,41,279.8,41,281.7z"/>
		<path fill="#FFFFFF" d="M300.3,167.1l0.6-0.5c0.2-0.2,0.6-0.6,0.6-1.3V66l0.1-1.1l-0.9-1H169.1c-0.7-2.9-3.3-5-6.3-5
			c-3.6,0-6.5,2.9-6.5,6.5c0,3.6,2.9,6.5,6.5,6.5c3.1,0,5.6-2.1,6.3-5h129.4v97l-85.8,0c-0.1,0-0.4,0-0.7,0.1l-0.9,0.4v24.5h-16.9
			c-0.7-2.9-3.3-5-6.3-5c-3.6,0-6.5,2.9-6.5,6.5c0,3.6,2.9,6.5,6.5,6.5c3.1,0,5.6-2.1,6.3-5h18.3c0,0,0.1,0,0.1,0
			c0.7,0,1-0.3,1.2-0.6l0.5-0.7l-0.2-0.6v-23.2h85.7L300.3,167.1z M162.8,68.9c-1.9,0-3.5-1.6-3.5-3.5c0-1.9,1.6-3.5,3.5-3.5
			c1.9,0,3.5,1.6,3.5,3.5C166.3,67.4,164.7,68.9,162.8,68.9z M187.8,193.9c-1.9,0-3.5-1.6-3.5-3.5c0-1.9,1.6-3.5,3.5-3.5
			c1.9,0,3.5,1.6,3.5,3.5C191.3,192.4,189.7,193.9,187.8,193.9z"/>
		<path fill="#FFFFFF" d="M286.5,183.9c-3.1,0-5.6,2.1-6.3,5h-43.9l-0.3,1.2l0,23.8h-41.9c-0.7-2.9-3.3-5-6.3-5
			c-3.6,0-6.5,2.9-6.5,6.5c0,3.6,2.9,6.5,6.5,6.5c3.1,0,5.6-2.1,6.3-5h42.3l2.2,0.1l0.4-1.3v-23.7h41.2c0.7,2.9,3.3,5,6.3,5
			c3.6,0,6.5-2.9,6.5-6.5C293,186.9,290.1,183.9,286.5,183.9z M187.8,218.9c-1.9,0-3.5-1.6-3.5-3.5c0-1.9,1.6-3.5,3.5-3.5
			c1.9,0,3.5,1.6,3.5,3.5C191.3,217.4,189.7,218.9,187.8,218.9z M286.5,193.9c-1.9,0-3.5-1.6-3.5-3.5c0-1.9,1.6-3.5,3.5-3.5
			c1.9,0,3.5,1.6,3.5,3.5C290,192.4,288.5,193.9,286.5,193.9z"/>
		<path fill="#FFFFFF" d="M106.6,238.9c-0.7-2.9-3.3-5-6.3-5c-3.6,0-6.5,2.9-6.5,6.5c0,3.6,2.9,6.5,6.5,6.5c3.1,0,5.6-2.1,6.3-5
			h155.8c0,0,0.1,0,0.1,0c0.7,0,1.1-0.4,1.2-0.6l0.5-0.7l-0.2-0.6V222c2.9-0.7,5-3.3,5-6.3c0-3.6-2.9-6.5-6.5-6.5
			c-3.6,0-6.5,2.9-6.5,6.5c0,3.1,2.1,5.6,5,6.3v16.9H106.6z M100.3,243.9c-1.9,0-3.5-1.6-3.5-3.5c0-1.9,1.6-3.5,3.5-3.5
			c1.9,0,3.5,1.6,3.5,3.5C103.8,242.4,102.2,243.9,100.3,243.9z M259,215.7c0-1.9,1.6-3.5,3.5-3.5c1.9,0,3.5,1.6,3.5,3.5
			c0,1.9-1.6,3.5-3.5,3.5C260.6,219.2,259,217.6,259,215.7z"/>
		<path fill="#FFFFFF" d="M286.5,208.9c-3.6,0-6.5,2.9-6.5,6.5c0,3.1,2.1,5.6,5,6.3v42.2H106.6c-0.7-2.9-3.3-5-6.3-5
			c-3.6,0-6.5,2.9-6.5,6.5c0,3.6,2.9,6.5,6.5,6.5c3.1,0,5.6-2.1,6.3-5h179.8c0,0,0.1,0,0.1,0c0.7,0,1.1-0.4,1.2-0.6l0.5-0.7
			l-0.2-0.5v-43.4c2.9-0.7,5-3.3,5-6.3C293,211.9,290.1,208.9,286.5,208.9z M100.3,268.9c-1.9,0-3.5-1.6-3.5-3.5
			c0-1.9,1.6-3.5,3.5-3.5c1.9,0,3.5,1.6,3.5,3.5C103.8,267.4,102.2,268.9,100.3,268.9z M286.5,218.9c-1.9,0-3.5-1.6-3.5-3.5
			s1.6-3.5,3.5-3.5c1.9,0,3.5,1.6,3.5,3.5S288.5,218.9,286.5,218.9z"/>
		<path fill="#FFFFFF" d="M302.2-32c-0.6,0.6-1.5,0.9-2.4,0.9s-1.7-0.4-2.4-0.9h-3.6c1,2.3,3.3,3.9,6,3.9c2.7,0,5-1.6,6-3.9H302.2z"
			/>
		<path fill="#FFFFFF" d="M164,33.9V-32h-3v65.9c-2.9,0.7-5,3.3-5,6.3c0,3.6,2.9,6.5,6.5,6.5s6.5-2.9,6.5-6.5
			C169,37.1,166.9,34.6,164,33.9z M162.5,43.7c-1.9,0-3.5-1.6-3.5-3.5c0-1.9,1.6-3.5,3.5-3.5c1.9,0,3.5,1.6,3.5,3.5
			C166,42.1,164.5,43.7,162.5,43.7z"/>
		<path fill="#FFFFFF" d="M306.3,40.4c0-3.6-2.9-6.5-6.5-6.5c-3.1,0-5.6,2.1-6.3,5h-99.4c-0.7-2.9-3.3-5-6.3-5
			c-3.6,0-6.5,2.9-6.5,6.5c0,3.6,2.9,6.5,6.5,6.5c3.1,0,5.6-2.1,6.3-5h99.4c0.7,2.9,3.3,5,6.3,5C303.4,46.9,306.3,44,306.3,40.4z
			 M187.8,43.9c-1.9,0-3.5-1.6-3.5-3.5c0-1.9,1.6-3.5,3.5-3.5c1.9,0,3.5,1.6,3.5,3.5C191.3,42.4,189.7,43.9,187.8,43.9z M299.8,43.9
			c-1.9,0-3.5-1.6-3.5-3.5c0-1.9,1.6-3.5,3.5-3.5c1.9,0,3.5,1.6,3.5,3.5C303.3,42.4,301.7,43.9,299.8,43.9z"/>
		<path fill="#FFFFFF" d="M323.5,121.7c3.6,0,6.5-2.9,6.5-6.5c0-3.1-2.1-5.6-5-6.3V15.7l0.2-0.6l-0.5-0.6l-0.5-0.6H194.1
			c-0.7-2.9-3.3-5-6.3-5c-3.6,0-6.5,2.9-6.5,6.5c0,3.6,2.9,6.5,6.5,6.5c3.1,0,5.6-2.1,6.3-5H322v91.9c-2.9,0.7-5,3.3-5,6.3
			C317,118.8,320,121.7,323.5,121.7z M187.8,18.9c-1.9,0-3.5-1.6-3.5-3.5c0-1.9,1.6-3.5,3.5-3.5c1.9,0,3.5,1.6,3.5,3.5
			C191.3,17.4,189.7,18.9,187.8,18.9z M323.5,111.7c1.9,0,3.5,1.6,3.5,3.5c0,1.9-1.6,3.5-3.5,3.5c-1.9,0-3.5-1.6-3.5-3.5
			C320,113.3,321.6,111.7,323.5,111.7z"/>
		<path fill="#FFFFFF" d="M325-32h-3v20.9H194.1c-0.7-2.9-3.3-5-6.3-5c-3.6,0-6.5,2.9-6.5,6.5c0,3.6,2.9,6.5,6.5,6.5
			c3.1,0,5.6-2.1,6.3-5h122l7.3,0l0.8,0l1-1.3L325-9.8V-32z M187.8-6.1c-1.9,0-3.5-1.6-3.5-3.5c0-1.9,1.6-3.5,3.5-3.5
			c1.9,0,3.5,1.6,3.5,3.5C191.3-7.6,189.7-6.1,187.8-6.1z"/>
		<path fill="#FFFFFF" d="M318,189.9c0-3.6-2.9-6.5-6.5-6.5c-3.6,0-6.5,2.9-6.5,6.5c0,3.1,2.1,5.6,5,6.3v93.9c-2.9,0.7-5,3.3-5,6.3
			c0,3.6,2.9,6.5,6.5,6.5c3.6,0,6.5-2.9,6.5-6.5c0-3.1-2.1-5.6-5-6.3v-93.9C315.9,195.6,318,193,318,189.9z M308,189.9
			c0-1.9,1.6-3.5,3.5-3.5c1.9,0,3.5,1.6,3.5,3.5c0,1.9-1.6,3.5-3.5,3.5C309.6,193.4,308,191.9,308,189.9z M315,296.4
			c0,1.9-1.6,3.5-3.5,3.5c-1.9,0-3.5-1.6-3.5-3.5c0-1.9,1.6-3.5,3.5-3.5C313.5,292.9,315,294.5,315,296.4z"/>
		<path fill="#FFFFFF" d="M369.3,126.9v-24.5l0-0.5c-0.1-0.6-0.6-1.1-1.4-1.2l-0.1,0c0,0-0.1,0-0.1,0h-17.2V-32h-3v133.9
			c-0.1,0.4,0.1,0.9,0.3,1.2c0.3,0.4,0.8,0.6,1.4,0.6l17,0v23.2c-2.9,0.7-5,3.3-5,6.3c0,3.6,2.9,6.5,6.5,6.5c3.6,0,6.5-2.9,6.5-6.5
			C374.3,130.1,372.1,127.6,369.3,126.9z M367.8,136.7c-1.9,0-3.5-1.6-3.5-3.5c0-1.9,1.6-3.5,3.5-3.5c1.9,0,3.5,1.6,3.5,3.5
			C371.3,135.1,369.7,136.7,367.8,136.7z"/>
		<path fill="#FFFFFF" d="M394.3,126.9v-23.7l0-25.8c0-0.1,0-0.4-0.1-0.7l-0.4-1h-18.3V-32h-3V78.7l18.8,0v48.2
			c-2.9,0.7-5,3.3-5,6.3c0,3.6,2.9,6.5,6.5,6.5c3.6,0,6.5-2.9,6.5-6.5C399.3,130.1,397.1,127.6,394.3,126.9z M392.8,136.7
			c-1.9,0-3.5-1.6-3.5-3.5c0-1.9,1.6-3.5,3.5-3.5c1.9,0,3.5,1.6,3.5,3.5C396.3,135.1,394.7,136.7,392.8,136.7z"/>
		<path fill="#FFFFFF" d="M327.8,146.9c0,3.1,2.1,5.6,5,6.3V295l0,1.5l0,0.8l1.3,1l0.5-0.2h48.9c0.7,2.9,3.3,5,6.3,5
			c3.6,0,6.5-2.9,6.5-6.5c0-3.6-2.9-6.5-6.5-6.5c-3.1,0-5.6,2.1-6.3,5h-47.7V153.3c2.9-0.7,5-3.3,5-6.3c0-3.6-2.9-6.5-6.5-6.5
			C330.7,140.4,327.8,143.4,327.8,146.9z M389.8,293.2c1.9,0,3.5,1.6,3.5,3.5c0,1.9-1.6,3.5-3.5,3.5c-1.9,0-3.5-1.6-3.5-3.5
			C386.3,294.8,387.9,293.2,389.8,293.2z M337.8,146.9c0,1.9-1.6,3.5-3.5,3.5c-1.9,0-3.5-1.6-3.5-3.5c0-1.9,1.6-3.5,3.5-3.5
			C336.2,143.4,337.8,145,337.8,146.9z"/>
		<path fill="#FFFFFF" d="M380.7,315.1l-0.5-0.6c-0.2-0.2-0.5-0.5-1.1-0.6l0,0c-0.1,0-0.1,0-0.2,0h-18.3c-0.7-2.9-3.3-5-6.3-5
			c-3.6,0-6.5,2.9-6.5,6.5c0,3.6,2.9,6.5,6.5,6.5c3.1,0,5.6-2.1,6.3-5h16.9v24.5l0.9,0.4c0.3,0.1,0.5,0.1,0.6,0.1c0,0,0.1,0,0.1,0
			h49.5c0.7,2.9,3.3,5,6.3,5c3.6,0,6.5-2.9,6.5-6.5c0-3.6-2.9-6.5-6.5-6.5c-3.1,0-5.6,2.1-6.3,5l-48.2,0v-23.2L380.7,315.1z
			 M354.3,318.9c-1.9,0-3.5-1.6-3.5-3.5c0-1.9,1.6-3.5,3.5-3.5c1.9,0,3.5,1.6,3.5,3.5C357.8,317.4,356.2,318.9,354.3,318.9z
			 M435,336.9c1.9,0,3.5,1.6,3.5,3.5c0,1.9-1.6,3.5-3.5,3.5c-1.9,0-3.5-1.6-3.5-3.5C431.5,338.5,433.1,336.9,435,336.9z"/>
		<path fill="#FFFFFF" d="M-36,416.1l0-0.3v75.7l0-0.1v-74.5C-36,416.7-36,416.4-36,416.1z"/>
		<path fill="#FFFFFF" d="M-11,503.5V390.3l-0.8-0.4c-0.4-0.2-0.8-0.2-1-0.2l-23.2,0v3h22v110.4l-22,22v4.2l24.7-24.7l0.1-0.2
			C-11,504-11,503.7-11,503.5z"/>
		<path fill="#FFFFFF" d="M14,515.3V366.3c0-0.4-0.1-0.8-0.4-1.1l-0.6-0.6l-0.7,0.1H-36v3h47v147.9c-0.1,0.1-0.1,0.1-0.2,0.2
			c-0.2,0.1-0.3,0.3-0.5,0.5L-36,562.6V669c1.2,0.6,2,1.8,2,3.2c0,1.4-0.8,2.6-2,3.2v3.2c2.9-0.7,5-3.2,5-6.3c0-3.1-2.1-5.6-5-6.3
			v-46.3l0-52.7l48.5-48.5l0.1-0.1c0.1-0.1,0.2-0.2,0.3-0.3C13.4,517.5,14.3,516.7,14,515.3z"/>
		<path fill="#FFFFFF" d="M-14,682h3V579.4c0,0,0-0.1,0-0.1l50-50l0-80.4h110.7c0.7,2.9,3.3,5,6.3,5c3.6,0,6.5-2.9,6.5-6.5
			c0-3.6-2.9-6.5-6.5-6.5c-3.1,0-5.6,2.1-6.3,5h-112l-0.7-0.1l-0.5,0.5c-0.2,0.2-0.4,0.5-0.5,0.9l0,0.1c0,0.1,0,0.1,0,0.2v80l0,0.5
			l-49.7,49.7l-0.1,0.3c-0.2,0.4-0.1,0.8-0.1,1L-14,682z M156,443.9c1.9,0,3.5,1.6,3.5,3.5c0,1.9-1.6,3.5-3.5,3.5
			c-1.9,0-3.5-1.6-3.5-3.5C152.5,445.5,154.1,443.9,156,443.9z"/>
		<path fill="#FFFFFF" d="M11,682h3v-90.1c0,0,0,0,0-0.1L63.9,542l0.1-0.4c0.1-0.4,0.1-0.8,0.1-1.1c0-0.1,0-0.2,0-0.4v-66.2h85.7
			c0.7,2.9,3.3,5,6.3,5c3.6,0,6.5-2.9,6.5-6.5c0-3.6-2.9-6.5-6.5-6.5c-3.1,0-5.6,2.1-6.3,5H61.3l-0.2,1.2c0,0.1,0,0.3,0,0.5l0,67.4
			c0,0.2,0,0.3,0,0.5l-49.7,49.7l-0.1,0.3c-0.2,0.4-0.1,0.8-0.1,1.1L11,682z M156,468.9c1.9,0,3.5,1.6,3.5,3.5
			c0,1.9-1.6,3.5-3.5,3.5c-1.9,0-3.5-1.6-3.5-3.5C152.5,470.5,154.1,468.9,156,468.9z"/>
		<path fill="#FFFFFF" d="M36,682h3v-77.7c0,0,0,0,0,0l49.4-49.4c0.3-0.2,0.6-0.7,0.6-1.4v-54.6h60.7c0.7,2.9,3.3,5,6.3,5
			c3.6,0,6.5-2.9,6.5-6.5c0-3.6-2.9-6.5-6.5-6.5c-3.1,0-5.6,2.1-6.3,5H88.8l-1.1,0c-0.7,0-1.2,0.4-1.3,0.6l-0.5,0.7l0.2,0.5v55.3
			l-49.7,49.7l-0.1,0.3c-0.2,0.4-0.2,0.8-0.1,1.1L36,682z M156,493.9c1.9,0,3.5,1.6,3.5,3.5c0,1.9-1.6,3.5-3.5,3.5
			c-1.9,0-3.5-1.6-3.5-3.5C152.5,495.5,154.1,493.9,156,493.9z"/>
		<path fill="#FFFFFF" d="M206,515.4c-3.1,0-5.6,2.1-6.3,5h-74.4c-0.7-2.9-3.3-5-6.3-5c-3.6,0-6.5,2.9-6.5,6.5
			c0,3.6,2.9,6.5,6.5,6.5c3.1,0,5.6-2.1,6.3-5h74.4c0.7,2.9,3.3,5,6.3,5c3.6,0,6.5-2.9,6.5-6.5C212.5,518.4,209.6,515.4,206,515.4z
			 M119,525.4c-1.9,0-3.5-1.6-3.5-3.5c0-1.9,1.6-3.5,3.5-3.5c1.9,0,3.5,1.6,3.5,3.5C122.5,523.9,121,525.4,119,525.4z M206,525.4
			c-1.9,0-3.5-1.6-3.5-3.5c0-1.9,1.6-3.5,3.5-3.5c1.9,0,3.5,1.6,3.5,3.5C209.5,523.9,208,525.4,206,525.4z"/>
		<path fill="#FFFFFF" d="M119,540.9c-3.6,0-6.5,2.9-6.5,6.5c0,3.6,2.9,6.5,6.5,6.5c3.1,0,5.6-2.1,6.3-5h99.4c0.7,2.9,3.3,5,6.3,5
			c3.6,0,6.5-2.9,6.5-6.5c0-3.6-2.9-6.5-6.5-6.5c-3.1,0-5.6,2.1-6.3,5h-99.4C124.7,543.1,122.1,540.9,119,540.9z M119,550.9
			c-1.9,0-3.5-1.6-3.5-3.5c0-1.9,1.6-3.5,3.5-3.5c1.9,0,3.5,1.6,3.5,3.5C122.5,549.4,121,550.9,119,550.9z M231,543.9
			c1.9,0,3.5,1.6,3.5,3.5c0,1.9-1.6,3.5-3.5,3.5c-1.9,0-3.5-1.6-3.5-3.5C227.5,545.5,229.1,543.9,231,543.9z"/>
		<path fill="#FFFFFF" d="M256,565.9c-3.1,0-5.6,2.1-6.3,5H125.4c-0.7-2.9-3.3-5-6.3-5c-3.6,0-6.5,2.9-6.5,6.5
			c0,3.6,2.9,6.5,6.5,6.5c3.1,0,5.6-2.1,6.3-5h124.4c0.7,2.9,3.3,5,6.3,5c3.6,0,6.5-2.9,6.5-6.5C262.5,568.9,259.6,565.9,256,565.9z
			 M119,575.9c-1.9,0-3.5-1.6-3.5-3.5c0-1.9,1.6-3.5,3.5-3.5c1.9,0,3.5,1.6,3.5,3.5C122.5,574.4,121,575.9,119,575.9z M256,575.9
			c-1.9,0-3.5-1.6-3.5-3.5c0-1.9,1.6-3.5,3.5-3.5c1.9,0,3.5,1.6,3.5,3.5C259.5,574.4,258,575.9,256,575.9z"/>
		<path fill="#FFFFFF" d="M61,629v53h3v-53c2.9-0.7,5-3.3,5-6.3c0-3.6-2.9-6.5-6.5-6.5c-3.6,0-6.5,2.9-6.5,6.5
			C56,625.8,58.2,628.3,61,629z M62.5,619.2c1.9,0,3.5,1.6,3.5,3.5c0,1.9-1.6,3.5-3.5,3.5c-1.9,0-3.5-1.6-3.5-3.5
			C59,620.8,60.6,619.2,62.5,619.2z"/>
		<path fill="#FFFFFF" d="M86,610.3V682h3l0-71.7c2.9-0.7,5-3.3,5-6.3c0-3.6-2.9-6.5-6.5-6.5s-6.5,2.9-6.5,6.5
			C81,607,83.2,609.6,86,610.3z M87.5,600.4c1.9,0,3.5,1.6,3.5,3.5c0,1.9-1.6,3.5-3.5,3.5c-1.9,0-3.5-1.6-3.5-3.5
			C84,602,85.6,600.4,87.5,600.4z"/>
		<path fill="#FFFFFF" d="M111,610.3V682h3v-71.7c2.9-0.7,5-3.3,5-6.3c0-3.6-2.9-6.5-6.5-6.5s-6.5,2.9-6.5,6.5
			C106,607,108.2,609.6,111,610.3z M112.5,600.4c1.9,0,3.5,1.6,3.5,3.5c0,1.9-1.6,3.5-3.5,3.5c-1.9,0-3.5-1.6-3.5-3.5
			C109,602,110.6,600.4,112.5,600.4z"/>
		<path fill="#FFFFFF" d="M139,682v-83.1h110.7c0.7,2.9,3.3,5,6.3,5c3.6,0,6.5-2.9,6.5-6.5c0-3.6-2.9-6.5-6.5-6.5
			c-3.1,0-5.6,2.1-6.3,5H138l-0.1,0c-0.2,0-0.9,0-1.4,0.5l-0.4,0.4V682H139z M256,593.9c1.9,0,3.5,1.6,3.5,3.5
			c0,1.9-1.6,3.5-3.5,3.5c-1.9,0-3.5-1.6-3.5-3.5C252.5,595.5,254.1,593.9,256,593.9z"/>
		<path fill="#FFFFFF" d="M31,422.2c0,3.6,2.9,6.5,6.5,6.5s6.5-2.9,6.5-6.5c0-3.1-2.1-5.6-5-6.3V310.5c2.9-0.7,5-3.3,5-6.3
			c0-3.6-2.9-6.5-6.5-6.5s-6.5,2.9-6.5,6.5c0,3.1,2.1,5.6,5,6.3v105.4C33.2,416.6,31,419.1,31,422.2z M41,422.2
			c0,1.9-1.6,3.5-3.5,3.5c-1.9,0-3.5-1.6-3.5-3.5c0-1.9,1.6-3.5,3.5-3.5C39.5,418.7,41,420.3,41,422.2z M34,304.2
			c0-1.9,1.6-3.5,3.5-3.5c1.9,0,3.5,1.6,3.5,3.5c0,1.9-1.6,3.5-3.5,3.5C35.6,307.7,34,306.1,34,304.2z"/>
		<path fill="#FFFFFF" d="M156,309.7c-3.1,0-5.6,2.1-6.3,5c-62.5,0-62.5,0-63,0.3l-0.7,0.4v106.8l0,0.3c0.3,1.2,0.7,1.2,4.1,1.3
			c1.7,0,4.2,0,7.2,0.1c6,0,14.3,0,23.4,0.1c18.1,0,39.1,0,51,0c3.5,0,6.4,0,8.1,0v66.9c-2.9,0.7-5,3.3-5,6.3c0,3.6,2.9,6.5,6.5,6.5
			s6.5-2.9,6.5-6.5c0-3.1-2.1-5.6-5-6.3V421l-1.4-0.1c-0.1,0-0.1,0-9.6,0c-20.8,0-73.6,0-82.7-0.1V317.7c7.2,0,39.9,0,60.7,0
			c0.7,2.9,3.3,5,6.3,5c3.6,0,6.5-2.9,6.5-6.5C162.5,312.6,159.6,309.7,156,309.7z M184.8,497.2c0,1.9-1.6,3.5-3.5,3.5
			c-1.9,0-3.5-1.6-3.5-3.5c0-1.9,1.6-3.5,3.5-3.5C183.2,493.7,184.8,495.3,184.8,497.2z M156,319.7c-1.9,0-3.5-1.6-3.5-3.5
			s1.6-3.5,3.5-3.5c1.9,0,3.5,1.6,3.5,3.5S158,319.7,156,319.7z"/>
		<path fill="#FFFFFF" d="M149.7,342.7c0.7,2.9,3.3,5,6.3,5c3.6,0,6.5-2.9,6.5-6.5c0-3.6-2.9-6.5-6.5-6.5c-3.1,0-5.6,2.1-6.3,5
			h-36.2l-2-0.1L111,341v49.6c-2.9,0.7-5,3.3-5,6.3c0,3.6,2.9,6.5,6.5,6.5s6.5-2.9,6.5-6.5c0-3.1-2.1-5.6-5-6.3v-47.9H149.7z
			 M156,337.7c1.9,0,3.5,1.6,3.5,3.5c0,1.9-1.6,3.5-3.5,3.5c-1.9,0-3.5-1.6-3.5-3.5C152.5,339.3,154.1,337.7,156,337.7z M116,396.9
			c0,1.9-1.6,3.5-3.5,3.5c-1.9,0-3.5-1.6-3.5-3.5c0-1.9,1.6-3.5,3.5-3.5C114.5,393.4,116,395,116,396.9z"/>
		<path fill="#FFFFFF" d="M137.3,364.7l-0.2,0.1c-1,0.3-1,0.3-1,5.4l0,8.7l0,12c-2.9,0.7-5,3.3-5,6.3c0,3.6,2.9,6.5,6.5,6.5
			s6.5-2.9,6.5-6.5c0-3.1-2.1-5.6-5-6.3c0-7.8,0-19.2,0-23.2h40.4l0.4-0.3c0.7-0.5,0.7-0.5,0.7-14.9c0-4.1,0-8.6,0-10.4l0,0v-39.4
			c2.9-0.7,5-3.3,5-6.3c0-3.6-2.9-6.5-6.5-6.5s-6.5,2.9-6.5,6.5c0,3.1,2.1,5.6,5,6.3v38.5h0c-0.1,0.7-0.1,1.7-0.1,3.5
			c0,2.1,0,4.9,0,7.9c0,4.4,0,9.7,0,12.2H137.3z M141,397.2c0,1.9-1.6,3.5-3.5,3.5s-3.5-1.6-3.5-3.5c0-1.9,1.6-3.5,3.5-3.5
			S141,395.3,141,397.2z M175.5,296.4c0-1.9,1.6-3.5,3.5-3.5c1.9,0,3.5,1.6,3.5,3.5c0,1.9-1.6,3.5-3.5,3.5
			C177.1,299.9,175.5,298.3,175.5,296.4z"/>
		<path fill="#FFFFFF" d="M231.2,398.9c0.8,0,1.3-0.5,1.5-1.1l0.1-0.2v-24.9c2.9-0.7,5-3.3,5-6.3c0-3.6-2.9-6.5-6.5-6.5
			s-6.5,2.9-6.5,6.5c0,3.1,2.1,5.6,5,6.3v23.2h-54.4c-0.7-2.9-3.3-5-6.3-5c-3.6,0-6.5,2.9-6.5,6.5c0,3.6,2.9,6.5,6.5,6.5
			c3.1,0,5.6-2.1,6.3-5L231.2,398.9C231.2,398.9,231.2,398.9,231.2,398.9z M169,400.9c-1.9,0-3.5-1.6-3.5-3.5c0-1.9,1.6-3.5,3.5-3.5
			c1.9,0,3.5,1.6,3.5,3.5C172.5,399.4,171,400.9,169,400.9z M227.8,366.4c0-1.9,1.6-3.5,3.5-3.5c1.9,0,3.5,1.6,3.5,3.5
			c0,1.9-1.6,3.5-3.5,3.5C229.4,369.9,227.8,368.4,227.8,366.4z"/>
		<path fill="#FFFFFF" d="M161,682h3v-58.1h129.4c0.7,2.9,3.3,5,6.3,5c3.6,0,6.5-2.9,6.5-6.5c0-3.6-2.9-6.5-6.5-6.5
			c-3.1,0-5.6,2.1-6.3,5H166.2l-4.3,0l-0.9,1.3l0.2,0.5V682z M299.8,618.9c1.9,0,3.5,1.6,3.5,3.5c0,1.9-1.6,3.5-3.5,3.5
			c-1.9,0-3.5-1.6-3.5-3.5C296.3,620.5,297.9,618.9,299.8,618.9z"/>
		<path fill="#FFFFFF" d="M187.8,678.9c3.1,0,5.6-2.1,6.3-5H322v8.1h3v-9.3l0.2-0.6l-0.5-0.6l-0.5-0.6H194.1c-0.7-2.9-3.3-5-6.3-5
			c-3.6,0-6.5,2.9-6.5,6.5C181.3,676,184.2,678.9,187.8,678.9z M187.8,668.9c1.9,0,3.5,1.6,3.5,3.5c0,1.9-1.6,3.5-3.5,3.5
			c-1.9,0-3.5-1.6-3.5-3.5C184.3,670.5,185.9,668.9,187.8,668.9z"/>
		<path fill="#FFFFFF" d="M187.8,653.9c3.1,0,5.6-2.1,6.3-5h126l3.3,0l0.8,0l1-1.3l-0.2-0.5v-51l-1.3-0.2c-0.2,0-0.5,0-0.8,0h-35.2
			c-0.7-2.9-3.3-5-6.3-5c-3.6,0-6.5,2.9-6.5,6.5c0,3.6,2.9,6.5,6.5,6.5c3.1,0,5.6-2.1,6.3-5l34.2,0v47H194.1c-0.7-2.9-3.3-5-6.3-5
			c-3.6,0-6.5,2.9-6.5,6.5C181.3,651,184.2,653.9,187.8,653.9z M281.5,600.9c-1.9,0-3.5-1.6-3.5-3.5c0-1.9,1.6-3.5,3.5-3.5
			c1.9,0,3.5,1.6,3.5,3.5C285,599.4,283.5,600.9,281.5,600.9z M187.8,643.9c1.9,0,3.5,1.6,3.5,3.5c0,1.9-1.6,3.5-3.5,3.5
			c-1.9,0-3.5-1.6-3.5-3.5C184.3,645.5,185.9,643.9,187.8,643.9z"/>
		<path fill="#FFFFFF" d="M282.8,558.6c0-3.7,0-7.5-0.1-11.2l0-0.6l-49.1-49.1l-0.9-0.9c-0.2-0.2-0.9-1-2-0.8h-17.9
			c-0.7-2.9-3.3-5-6.3-5c-3.6,0-6.5,2.9-6.5,6.5c0,3.6,2.9,6.5,6.5,6.5c3.1,0,5.6-2.1,6.3-5h17.8c0,0,0.1,0.1,0.1,0.1l49,49
			c0.1,3.5,0.1,7.1,0,10.5c0,2,0,4.1,0,6.1v1.2c-2.9,0.7-5,3.3-5,6.3c0,3.6,2.9,6.5,6.5,6.5c3.6,0,6.5-2.9,6.5-6.5
			c0-3.1-2.1-5.6-5-6.3v-1.2C282.8,562.6,282.8,560.6,282.8,558.6z M206.5,500.9c-1.9,0-3.5-1.6-3.5-3.5c0-1.9,1.6-3.5,3.5-3.5
			c1.9,0,3.5,1.6,3.5,3.5C210,499.4,208.5,500.9,206.5,500.9z M284.8,572.2c0,1.9-1.6,3.5-3.5,3.5c-1.9,0-3.5-1.6-3.5-3.5
			c0-1.9,1.6-3.5,3.5-3.5C283.2,568.7,284.8,570.3,284.8,572.2z"/>
		<path fill="#FFFFFF" d="M212.8,422.7c0-3.6-2.9-6.5-6.5-6.5s-6.5,2.9-6.5,6.5c0,3.1,2.1,5.6,5,6.3v36.9c-2.9,0.7-5,3.3-5,6.3
			c0,3.6,2.9,6.5,6.5,6.5s6.5-2.9,6.5-6.5c0-3.1-2.1-5.6-5-6.3V429C210.6,428.3,212.8,425.8,212.8,422.7z M202.8,422.7
			c0-1.9,1.6-3.5,3.5-3.5c1.9,0,3.5,1.6,3.5,3.5c0,1.9-1.6,3.5-3.5,3.5C204.4,426.2,202.8,424.6,202.8,422.7z M209.8,472.2
			c0,1.9-1.6,3.5-3.5,3.5c-1.9,0-3.5-1.6-3.5-3.5c0-1.9,1.6-3.5,3.5-3.5C208.2,468.7,209.8,470.3,209.8,472.2z"/>
		<path fill="#FFFFFF" d="M331,578.9c3.6,0,6.5-2.9,6.5-6.5c0-3.6-2.9-6.5-6.5-6.5c-3.1,0-5.6,2.1-6.3,5h-16.9v-35.9
			c0-0.2,0-0.6-0.2-1l-0.1-0.1l-74.7-74.7V429c2.9-0.7,5-3.3,5-6.3c0-3.6-2.9-6.5-6.5-6.5s-6.5,2.9-6.5,6.5c0,3.1,2.1,5.6,5,6.3
			v14.3l0,17.2l75,75V572l-0.1,1l1.1,1l0.6-0.1h18.3C325.4,576.8,328,578.9,331,578.9z M227.8,422.7c0-1.9,1.6-3.5,3.5-3.5
			c1.9,0,3.5,1.6,3.5,3.5c0,1.9-1.6,3.5-3.5,3.5C229.4,426.2,227.8,424.6,227.8,422.7z M331,568.9c1.9,0,3.5,1.6,3.5,3.5
			c0,1.9-1.6,3.5-3.5,3.5c-1.9,0-3.5-1.6-3.5-3.5C327.5,570.5,329.1,568.9,331,568.9z"/>
		<path fill="#FFFFFF" d="M332.8,540.9V534c0-1.4,0-2.7,0-4.1c0-2.5,0-5-0.1-7.5l0-0.6l-68.4-68.4c-0.1-0.1-0.2-0.2-0.3-0.3l0-135.4
			h60.7c0.7,2.9,3.3,5,6.3,5c3.6,0,6.5-2.9,6.5-6.5c0-3.6-2.9-6.5-6.5-6.5c-3.1,0-5.6,2.1-6.3,5h-63.3l-0.3,1.2
			c-0.1,0.4-0.1,0.7-0.1,1c0,0.1,0,0.2,0,0.3V453c-0.2,1.2,0.6,1.9,0.9,2.2c0,0,0.1,0.1,0.1,0.1l67.6,67.6c0.1,2.3,0,4.6,0,6.8
			c0,1.4,0,2.8,0,4.1v6.9c-2.9,0.7-5,3.3-5,6.3c0,3.6,2.9,6.5,6.5,6.5c3.6,0,6.5-2.9,6.5-6.5C337.8,544.1,335.6,541.6,332.8,540.9z
			 M331,312.7c1.9,0,3.5,1.6,3.5,3.5c0,1.9-1.6,3.5-3.5,3.5c-1.9,0-3.5-1.6-3.5-3.5C327.5,314.3,329.1,312.7,331,312.7z
			 M331.3,550.7c-1.9,0-3.5-1.6-3.5-3.5c0-1.9,1.6-3.5,3.5-3.5c1.9,0,3.5,1.6,3.5,3.5C334.8,549.1,333.2,550.7,331.3,550.7z"/>
		<path fill="#FFFFFF" d="M349.7,342.7c0.7,2.9,3.3,5,6.3,5c3.6,0,6.5-2.9,6.5-6.5c0-3.6-2.9-6.5-6.5-6.5c-3.1,0-5.6,2.1-6.3,5h-62
			c-0.9,0-1.4,0.5-1.6,1.1L286,341v68.6c-2.9,0.7-5,3.3-5,6.3c0,3.6,2.9,6.5,6.5,6.5c3.6,0,6.5-2.9,6.5-6.5c0-3.1-2.1-5.6-5-6.3
			v-66.9H349.7z M356,337.7c1.9,0,3.5,1.6,3.5,3.5c0,1.9-1.6,3.5-3.5,3.5c-1.9,0-3.5-1.6-3.5-3.5C352.5,339.3,354.1,337.7,356,337.7
			z M291,415.9c0,1.9-1.6,3.5-3.5,3.5c-1.9,0-3.5-1.6-3.5-3.5c0-1.9,1.6-3.5,3.5-3.5C289.5,412.4,291,414,291,415.9z"/>
		<path fill="#FFFFFF" d="M11.6,264c-3.6,0-6.5,2.9-6.5,6.5c0,3.1,2.1,5.6,5,6.3c0,8-0.1,31.6-0.1,40.2h-46v3l46.3,0
			c0.1,0,0.3,0,0.4,0c0.3,0,0.7,0,1,0l1.4-0.1v-2.7c0-8.5,0-32.3,0.1-40.4c2.9-0.7,5-3.3,5-6.3C18.1,266.9,15.2,264,11.6,264z
			 M11.6,274c-1.9,0-3.5-1.6-3.5-3.5s1.6-3.5,3.5-3.5s3.5,1.6,3.5,3.5S13.5,274,11.6,274z"/>
		<path fill="#FFFFFF" d="M11.3,333.9c-3.1,0-5.6,2.1-6.3,5h-41v3H5c0.7,2.9,3.3,5,6.3,5c3.6,0,6.5-2.9,6.5-6.5
			C17.8,336.9,14.9,333.9,11.3,333.9z M11.3,343.9c-1.9,0-3.5-1.6-3.5-3.5c0-1.9,1.6-3.5,3.5-3.5s3.5,1.6,3.5,3.5
			C14.8,342.4,13.2,343.9,11.3,343.9z"/>
		<path fill="#FFFFFF" d="M-20,290.2c-3.1,0-5.6,2.1-6.3,5H-36v3l9.7,0c0.7,2.9,3.3,5,6.3,5c3.6,0,6.5-2.9,6.5-6.5
			C-13.5,293.1-16.4,290.2-20,290.2z M-20,300.2c-1.9,0-3.5-1.6-3.5-3.5c0-1.9,1.6-3.5,3.5-3.5s3.5,1.6,3.5,3.5
			C-16.5,298.6-18,300.2-20,300.2z"/>
		<path fill="#FFFFFF" d="M303.6,451.5c1.2,0,2.4-0.3,3.4-1l53,53v73.9l-11.8,18.1l-0.4,0.6c-0.1,0.2-0.3,0.5-0.4,1V682h3v-84.4
			l12.2-18.8c0.2-0.3,0.3-0.7,0.3-1.1V504l0-0.9l0-0.3l-0.2-0.6l-53.7-53.7c0.6-1,1-2.2,1-3.4c0-1.7-0.7-3.4-1.9-4.6
			c-1.2-1.2-2.9-1.9-4.6-1.9c-1.7,0-3.4,0.7-4.6,1.9c-1.2,1.2-1.9,2.9-1.9,4.6c0,1.7,0.7,3.4,1.9,4.6
			C300.3,450.9,301.9,451.5,303.6,451.5z M301.2,442.6c0.7-0.7,1.5-1,2.5-1c0.9,0,1.8,0.4,2.5,1c0.7,0.7,1,1.5,1,2.5
			c0,0.9-0.4,1.8-1,2.5c-1.3,1.3-3.6,1.3-4.9,0c-0.7-0.7-1-1.5-1-2.5C300.1,444.1,300.5,443.2,301.2,442.6z"/>
		<path fill="#FFFFFF" d="M372.5,608.7V682h3v-73.3c2.9-0.7,5-3.3,5-6.3c0-3.6-2.9-6.5-6.5-6.5c-3.6,0-6.5,2.9-6.5,6.5
			C367.5,605.5,369.7,608,372.5,608.7z M374,598.9c1.9,0,3.5,1.6,3.5,3.5c0,1.9-1.6,3.5-3.5,3.5c-1.9,0-3.5-1.6-3.5-3.5
			C370.5,600.5,372.1,598.9,374,598.9z"/>
		<path fill="#FFFFFF" d="M310,396c0,14,0,14,1.1,14.9c22.4,22.4,61.7,62.7,66.2,67.3v13.2c-2.9,0.7-5,3.3-5,6.3
			c0,3.6,2.9,6.5,6.5,6.5c3.6,0,6.5-2.9,6.5-6.5c0-3.1-2.1-5.6-5-6.3V477l-0.4-0.4c-0.4-0.4-43-44.1-66.7-67.8
			c-0.1-0.1-0.1-0.1-0.2-0.2c-0.1-1-0.1-4.7-0.1-12.6c0-5.2,0-12.3,0-22.3V372c2.9-0.7,5-3.3,5-6.3c0-3.6-2.9-6.5-6.5-6.5
			c-3.6,0-6.5,2.9-6.5,6.5c0,3.1,2.1,5.6,5,6.3v1.8C310,383.7,310,390.9,310,396z M382.3,497.7c0,1.9-1.6,3.5-3.5,3.5
			c-1.9,0-3.5-1.6-3.5-3.5c0-1.9,1.6-3.5,3.5-3.5C380.8,494.2,382.3,495.8,382.3,497.7z M308,365.7c0-1.9,1.6-3.5,3.5-3.5
			c1.9,0,3.5,1.6,3.5,3.5c0,1.9-1.6,3.5-3.5,3.5C309.6,369.2,308,367.6,308,365.7z"/>
		<path fill="#FFFFFF" d="M377.6,440.2c-2.9,0.7-5,3.3-5,6.3c0,3.6,2.9,6.5,6.5,6.5c3.6,0,6.5-2.9,6.5-6.5c0-3.1-2.1-5.6-5-6.3v0
			c0-0.8,0-1.7,0-2.6c0-1.5,0-3.1,0-4.7l0-0.6L338,389.8v-22.9H430c0.7,2.9,3.3,5,6.3,5c3.6,0,6.5-2.9,6.5-6.5
			c0-3.6-2.9-6.5-6.5-6.5c-3.1,0-5.6,2.1-6.3,5H335l0,26.1c-0.1,0.6,0.2,1.2,0.8,1.8l41.8,41.8c0,1.3,0,2.7,0,4
			C377.6,438.5,377.6,439.4,377.6,440.2z M436.3,361.9c1.9,0,3.5,1.6,3.5,3.5c0,1.9-1.6,3.5-3.5,3.5c-1.9,0-3.5-1.6-3.5-3.5
			C432.8,363.5,434.4,361.9,436.3,361.9z M382.6,446.5c0,1.9-1.6,3.5-3.5,3.5c-1.9,0-3.5-1.6-3.5-3.5c0-1.9,1.6-3.5,3.5-3.5
			C381.1,443,382.6,444.6,382.6,446.5z"/>
		<path fill="#FFFFFF" d="M198.8,373.9c0,3.6,2.9,6.5,6.5,6.5s6.5-2.9,6.5-6.5c0-3.1-2.1-5.6-5-6.3v-64.7c2.9-0.7,5-3.3,5-6.3
			c0-3.6-2.9-6.5-6.5-6.5s-6.5,2.9-6.5,6.5c0,3.1,2.1,5.6,5,6.3v64.7C200.9,368.3,198.8,370.9,198.8,373.9z M208.8,373.9
			c0,1.9-1.6,3.5-3.5,3.5c-1.9,0-3.5-1.6-3.5-3.5c0-1.9,1.6-3.5,3.5-3.5C207.2,370.4,208.8,372,208.8,373.9z M201.8,296.6
			c0-1.9,1.6-3.5,3.5-3.5c1.9,0,3.5,1.6,3.5,3.5c0,1.9-1.6,3.5-3.5,3.5C203.4,300.1,201.8,298.6,201.8,296.6z"/>
		<path fill="#FFFFFF" d="M237.8,297.4c0-3.6-2.9-6.5-6.5-6.5s-6.5,2.9-6.5,6.5c0,3.1,2.1,5.6,5,6.3v30.1c-2.9,0.7-5,3.3-5,6.3
			c0,3.6,2.9,6.5,6.5,6.5s6.5-2.9,6.5-6.5c0-3.1-2.1-5.6-5-6.3v-30.1C235.6,303.1,237.8,300.5,237.8,297.4z M227.8,297.4
			c0-1.9,1.6-3.5,3.5-3.5c1.9,0,3.5,1.6,3.5,3.5c0,1.9-1.6,3.5-3.5,3.5C229.4,300.9,227.8,299.3,227.8,297.4z M234.8,340.2
			c0,1.9-1.6,3.5-3.5,3.5c-1.9,0-3.5-1.6-3.5-3.5c0-1.9,1.6-3.5,3.5-3.5C233.2,336.7,234.8,338.3,234.8,340.2z"/>
		<path fill="#FFFFFF" d="M130,290.2c-3.1,0-5.6,2.1-6.3,5H61.8l-0.6-0.2l-1.2,1v119.1c-2.9,0.7-5,3.3-5,6.3c0,3.6,2.9,6.5,6.5,6.5
			c3.6,0,6.5-2.9,6.5-6.5c0-3.1-2.1-5.6-5-6.3V298.2h60.7c0.7,2.9,3.3,5,6.3,5c3.6,0,6.5-2.9,6.5-6.5
			C136.5,293.1,133.6,290.2,130,290.2z M65,421.4c0,1.9-1.6,3.5-3.5,3.5c-1.9,0-3.5-1.6-3.5-3.5c0-1.9,1.6-3.5,3.5-3.5
			C63.5,417.9,65,419.5,65,421.4z M130,300.2c-1.9,0-3.5-1.6-3.5-3.5c0-1.9,1.6-3.5,3.5-3.5s3.5,1.6,3.5,3.5
			C133.5,298.6,132,300.2,130,300.2z"/>
		<path fill="#FFFFFF" d="M286,290.2c-3.1,0-5.6,2.1-6.3,5h-15.9c-0.7-2.9-3.3-5-6.3-5c-3.6,0-6.5,2.9-6.5,6.5
			c0,3.6,2.9,6.5,6.5,6.5c3.1,0,5.6-2.1,6.3-5h15.9c0.7,2.9,3.3,5,6.3,5c3.6,0,6.5-2.9,6.5-6.5C292.5,293.1,289.6,290.2,286,290.2z
			 M257.5,300.2c-1.9,0-3.5-1.6-3.5-3.5c0-1.9,1.6-3.5,3.5-3.5c1.9,0,3.5,1.6,3.5,3.5C261,298.6,259.5,300.2,257.5,300.2z
			 M286,300.2c-1.9,0-3.5-1.6-3.5-3.5c0-1.9,1.6-3.5,3.5-3.5c1.9,0,3.5,1.6,3.5,3.5C289.5,298.6,288,300.2,286,300.2z"/>
		<path fill="#FFFFFF" d="M359.5,238.5c0,8.2,0,16.3,0,22.3c0,3,0,5.5,0,7.3c0,3.9,0,3.9,1.1,4.2l0.2,0.1l0.5,0
			c25.8,0,55.9,0,62.7,0v25.7h49.5c0.7,2.9,3.3,5,6.3,5c3.6,0,6.5-2.9,6.5-6.5c0-3.6-2.9-6.5-6.5-6.5c-3.1,0-5.6,2.1-6.3,5H427
			v-24.7l-0.3-0.4c-0.5-0.7-0.5-0.7-10.7-0.7c-5.7,0-13.3,0-21.1,0c-13.7,0-27.8,0-32.4,0c0-7.6,0-43.6,0-65.6v-1.3
			c2.9-0.7,5-3.3,5-6.3c0-3.6-2.9-6.5-6.5-6.5c-3.6,0-6.5,2.9-6.5,6.5c0,3.1,2.1,5.6,5,6.3v1.3C359.5,205.4,359.5,222.1,359.5,238.5
			z M479.8,293.2c1.9,0,3.5,1.6,3.5,3.5c0,1.9-1.6,3.5-3.5,3.5c-1.9,0-3.5-1.6-3.5-3.5C476.3,294.8,477.9,293.2,479.8,293.2z
			 M357.5,196.2c0-1.9,1.6-3.5,3.5-3.5c1.9,0,3.5,1.6,3.5,3.5c0,1.9-1.6,3.5-3.5,3.5C359.1,199.7,357.5,198.1,357.5,196.2z"/>
	</g>
</g>
</svg>
