<?xml version="1.0" encoding="UTF-8"?>
<svg id="Layer_1" data-name="Layer 1" xmlns="http://www.w3.org/2000/svg" viewBox="0 0 24 24">
  <defs>
    <style>
      .cls-1 {
        fill: #0a66c2;
        stroke-width: 0px;
      }
    </style>
  </defs>
  <path class="cls-1" d="m20.5,2H3.5c-.8284,0-1.5.6716-1.5,1.5v17c0,.8284.6716,1.5,1.5,1.5h17c.8284,0,1.5-.6716,1.5-1.5V3.5c0-.8284-.6716-1.5-1.5-1.5Zm-12.5,17h-3v-9h3v9Zm-1.5-10.75c-.9661-.0276-1.7269-.8332-1.6993-1.7993.0276-.9661.8332-1.7269,1.7993-1.6993.9464.0271,1.6996.8018,1.7,1.7486-.0164.9792-.8208,1.7611-1.8,1.75Zm12.5,10.75h-3v-4.74c0-1.42-.6-1.93-1.38-1.93-.9589.0638-1.6844.8929-1.6206,1.8517.0002.0028.0004.0055.0006.0083-.005.0465-.005.0935,0,.14v4.67h-3v-9h2.9v1.3c.5949-.9049,1.6176-1.4352,2.7-1.4,1.55,0,3.36.86,3.36,3.66l.04,5.44Z"/>
</svg>